<svg xmlns="http://www.w3.org/2000/svg" width="600" height="600">
<style>text { font-family: 'Segoe UI',Arial, sans-serif; fill: #222222; }</style>
<rect width="100%" height="100%" fill="white"/>
<text x="300.0" y="30" text-anchor="middle" font-size="20" style="white-space: break-spaces">Sky Plot of GPS Satellite Trajectories from the rinex.nav
for Observation Times and Satellites from the rinex.obs</text>
<rect x="1" y="1" width="598" height="598" fill="none" stroke="gray" stroke-width="2" />
<defs>
<marker id="arrow-green" markerWidth="10" markerHeight="10" refX="10" refY="5" orient="auto" markerUnits="strokeWidth">
<path d="M0,0 L10,5 L0,10 Z" fill="green" />
</marker>
<marker id="arrow-yellow" markerWidth="10" markerHeight="10" refX="10" refY="5" orient="auto" markerUnits="strokeWidth">
<path d="M0,0 L10,5 L0,10 Z" fill="yellow" />
</marker>
<marker id="arrow-orange" markerWidth="10" markerHeight="10" refX="10" refY="5" orient="auto" markerUnits="strokeWidth">
<path d="M0,0 L10,5 L0,10 Z" fill="orange" />
</marker>
<marker id="arrow-red" markerWidth="10" markerHeight="10" refX="10" refY="5" orient="auto" markerUnits="strokeWidth">
<path d="M0,0 L10,5 L0,10 Z" fill="red" />
</marker>
</defs>
<defs>
<symbol id="point-green-symbol" overflow="visible">
<circle cx="0" cy="0" r="2" fill="green" />
</symbol>
<symbol id="point-yellow-symbol" overflow="visible">
<circle cx="0" cy="0" r="2" fill="yellow" />
</symbol>
<symbol id="point-orange-symbol" overflow="visible">
<circle cx="0" cy="0" r="2" fill="orange" />
</symbol>
<symbol id="point-red-symbol" overflow="visible">
<circle cx="0" cy="0" r="2" fill="red" />
</symbol>
</defs>
<defs>
<marker id="sat-3" markerWidth="30" markerHeight="30" refX="23" refY="15" orient="auto" markerUnits="userSpaceOnUse">
  <text x="15" y="10" font-size="14" text-anchor="middle">3</text>
</marker>
<marker id="sat-4" markerWidth="30" markerHeight="30" refX="23" refY="15" orient="auto" markerUnits="userSpaceOnUse">
  <text x="15" y="10" font-size="14" text-anchor="middle">4</text>
</marker>
<marker id="sat-6" markerWidth="30" markerHeight="30" refX="23" refY="15" orient="auto" markerUnits="userSpaceOnUse">
  <text x="15" y="10" font-size="14" text-anchor="middle">6</text>
</marker>
<marker id="sat-7" markerWidth="30" markerHeight="30" refX="23" refY="15" orient="auto" markerUnits="userSpaceOnUse">
  <text x="15" y="10" font-size="14" text-anchor="middle">7</text>
</marker>
<marker id="sat-9" markerWidth="30" markerHeight="30" refX="23" refY="15" orient="auto" markerUnits="userSpaceOnUse">
  <text x="15" y="10" font-size="14" text-anchor="middle">9</text>
</marker>
<marker id="sat-11" markerWidth="30" markerHeight="30" refX="23" refY="15" orient="auto" markerUnits="userSpaceOnUse">
  <text x="15" y="10" font-size="14" text-anchor="middle">11</text>
</marker>
<marker id="sat-16" markerWidth="30" markerHeight="30" refX="23" refY="15" orient="auto" markerUnits="userSpaceOnUse">
  <text x="15" y="10" font-size="14" text-anchor="middle">16</text>
</marker>
<marker id="sat-20" markerWidth="30" markerHeight="30" refX="23" refY="15" orient="auto" markerUnits="userSpaceOnUse">
  <text x="15" y="10" font-size="14" text-anchor="middle">20</text>
</marker>
<marker id="sat-26" markerWidth="30" markerHeight="30" refX="23" refY="15" orient="auto" markerUnits="userSpaceOnUse">
  <text x="15" y="10" font-size="14" text-anchor="middle">26</text>
</marker>
<marker id="sat-29" markerWidth="30" markerHeight="30" refX="23" refY="15" orient="auto" markerUnits="userSpaceOnUse">
  <text x="15" y="10" font-size="14" text-anchor="middle">29</text>
</marker>
<marker id="sat-30" markerWidth="30" markerHeight="30" refX="23" refY="15" orient="auto" markerUnits="userSpaceOnUse">
  <text x="15" y="10" font-size="14" text-anchor="middle">30</text>
</marker>
</defs>
<defs>
<symbol id="sat-3-symbol" overflow="visible">
  <text x="-8" y="-5" font-size="14" text-anchor="midle" >3</text>
</symbol>
<symbol id="sat-4-symbol" overflow="visible">
  <text x="-8" y="-5" font-size="14" text-anchor="midle" >4</text>
</symbol>
<symbol id="sat-6-symbol" overflow="visible">
  <text x="-8" y="-5" font-size="14" text-anchor="midle" >6</text>
</symbol>
<symbol id="sat-7-symbol" overflow="visible">
  <text x="-8" y="-5" font-size="14" text-anchor="midle" >7</text>
</symbol>
<symbol id="sat-9-symbol" overflow="visible">
  <text x="-8" y="-5" font-size="14" text-anchor="midle" >9</text>
</symbol>
<symbol id="sat-11-symbol" overflow="visible">
  <text x="-8" y="-5" font-size="14" text-anchor="midle" >11</text>
</symbol>
<symbol id="sat-16-symbol" overflow="visible">
  <text x="-8" y="-5" font-size="14" text-anchor="midle" >16</text>
</symbol>
<symbol id="sat-20-symbol" overflow="visible">
  <text x="-8" y="-5" font-size="14" text-anchor="midle" >20</text>
</symbol>
<symbol id="sat-26-symbol" overflow="visible">
  <text x="-8" y="-5" font-size="14" text-anchor="midle" >26</text>
</symbol>
<symbol id="sat-29-symbol" overflow="visible">
  <text x="-8" y="-5" font-size="14" text-anchor="midle" >29</text>
</symbol>
<symbol id="sat-30-symbol" overflow="visible">
  <text x="-8" y="-5" font-size="14" text-anchor="midle" >30</text>
</symbol>
</defs>
<circle cx="300.0" cy="340.0" r="230.0" stroke="#cccccc" fill="none" />
<circle cx="300.0" cy="340.0" r="217.2" stroke="#cccccc" fill="none" />
<circle cx="300.0" cy="340.0" r="204.4" stroke="#cccccc" fill="none" />
<circle cx="300.0" cy="340.0" r="191.7" stroke="#cccccc" fill="none" />
<circle cx="300.0" cy="340.0" r="153.3" stroke="#cccccc" fill="none" />
<circle cx="300.0" cy="340.0" r="76.7" stroke="#cccccc" fill="none" />
<line x1="70.0" y1="340.0" x2="530.0" y2="340.0" stroke="#cccccc" />
<line x1="300.0" y1="110.0" x2="300.0" y2="570.0" stroke="#cccccc" />
<text x="300.0" y="100.0" font-size="16" text-anchor="middle">N</text>
<text x="545.0" y="340.0" font-size="16" text-anchor="middle">E</text>
<text x="300.0" y="590.0" font-size="16" text-anchor="middle">S</text>
<text x="50.0" y="340.0" font-size="16" text-anchor="middle">W</text>
<text x="302.0" y="163.33333333333334" font-size="14" style="fill:#aaaaaa">15°</text>
<text x="302.0" y="201.66666666666666" font-size="14" style="fill:#aaaaaa">30°</text>
<text x="302.0" y="278.3333333333333" font-size="14" style="fill:#aaaaaa">60°</text>
<rect x="20" y="70" width="20" height="10" fill="green" /><text x="50" y="80" font-size="14" fill="black">fitInterval =  4 h</text>
<rect x="20" y="90" width="20" height="10" fill="yellow" /><text x="50" y="100" font-size="14" fill="black">fitInterval =  6 h</text>
<rect x="20" y="110" width="20" height="10" fill="orange" /><text x="50" y="120" font-size="14" fill="black">fitInterval =  8 h</text>
<rect x="20" y="130" width="20" height="10" fill="red" /><text x="50" y="140" font-size="14" fill="black">fitInterval ≥ 10 h</text>
<polyline points="456.48,453.08 456.65,453.57 456.82,454.05 456.99,454.53 457.17,455.02 457.34,455.50 457.51,455.98 457.67,456.47 457.84,456.95 458.01,457.43 458.17,457.92 458.34,458.40 458.50,458.88 458.67,459.37 458.83,459.85 458.99,460.33 459.15,460.82 459.32,461.30 459.48,461.79 459.63,462.27 459.79,462.75 459.95,463.24 460.11,463.72 460.26,464.20 460.42,464.69 460.57,465.17 460.73,465.65 " stroke="green" fill="none" marker-start="url(#sat-3)"
marker-end="url(#arrow-green)"/>
<polyline points="413.04,303.73 413.56,303.73 414.07,303.73 414.59,303.73 415.11,303.73 415.62,303.74 416.14,303.75 416.65,303.76 417.17,303.77 417.69,303.79 418.20,303.80 418.72,303.82 419.23,303.84 419.75,303.87 420.27,303.89 420.78,303.92 421.30,303.95 421.81,303.98 422.33,304.02 422.84,304.05 423.36,304.09 423.88,304.13 424.39,304.18 424.91,304.22 425.42,304.27 " stroke="green" fill="none" marker-start="url(#sat-4)"
marker-end="url(#arrow-green)"/>
<polyline points="206.08,397.48 206.03,397.99 205.98,398.49 205.93,399.00 205.87,399.51 205.82,400.01 205.77,400.52 205.72,401.02 205.67,401.53 205.61,402.03 205.56,402.54 205.51,403.04 205.45,403.55 205.40,404.05 205.35,404.56 205.29,405.06 205.24,405.57 205.18,406.07 205.13,406.57 205.07,407.08 205.01,407.58 204.96,408.09 204.90,408.59 204.84,409.09 204.79,409.60 204.73,410.10 204.67,410.60 204.62,411.11 204.56,411.61 " stroke="green" fill="none" marker-start="url(#sat-6)"
marker-end="url(#arrow-green)"/>
<polyline points="289.51,468.37 289.59,467.86 289.68,467.34 289.76,466.83 289.84,466.32 289.92,465.80 290.01,465.29 290.09,464.78 290.17,464.28 290.26,463.79 290.34,463.30 290.42,462.80 290.51,462.31 290.59,461.82 290.67,461.32 290.76,460.83 290.84,460.33 290.93,459.84 291.02,459.35 291.10,458.85 291.19,458.36 291.28,457.86 291.37,457.37 291.45,456.87 291.54,456.38 291.63,455.88 " stroke="green" fill="none" marker-start="url(#sat-7)"
marker-end="url(#arrow-green)"/>
<polyline points="299.34,335.41 299.82,335.25 300.30,335.09 300.78,334.93 301.26,334.77 301.75,334.61 302.23,334.46 302.71,334.31 303.19,334.16 303.67,334.01 304.16,333.86 304.64,333.71 305.13,333.57 305.61,333.43 306.09,333.29 306.58,333.15 307.07,333.01 307.55,332.88 308.04,332.75 308.53,332.61 309.01,332.49 309.50,332.36 309.99,332.23 310.48,332.11 310.97,331.99 311.46,331.86 311.95,331.75 " stroke="green" fill="none" marker-start="url(#sat-9)"
marker-end="url(#arrow-green)"/>
<polyline points="183.40,293.87 183.36,294.37 183.31,294.88 183.26,295.39 183.22,295.89 183.17,296.40 183.12,296.91 183.07,297.42 183.01,297.93 182.96,298.43 182.91,298.94 182.86,299.45 182.80,299.96 182.75,300.47 182.69,300.98 182.63,301.50 182.58,302.01 182.52,302.52 182.46,303.03 182.40,303.54 182.34,304.05 182.28,304.57 182.22,305.08 182.16,305.59 182.09,306.10 182.03,306.62 181.97,307.13 181.90,307.65 " stroke="green" fill="none" marker-start="url(#sat-11)"
marker-end="url(#arrow-green)"/>
<polyline points="476.31,289.73 476.03,289.31 475.74,288.89 475.46,288.46 475.18,288.04 474.90,287.62 474.61,287.20 474.33,286.77 474.05,286.35 473.76,285.93 473.48,285.51 473.20,285.08 472.91,284.66 472.63,284.24 472.35,283.82 472.06,283.40 471.78,282.97 471.50,282.55 471.21,282.13 470.93,281.71 470.65,281.29 470.36,280.86 470.08,280.44 469.80,280.02 469.51,279.60 469.23,279.18 468.95,278.76 468.66,278.34 468.38,277.91 468.09,277.49 467.81,277.07 " stroke="green" fill="none" marker-start="url(#sat-16)"
marker-end="url(#arrow-green)"/>
<polyline points="157.75,242.65 158.19,242.91 158.63,243.18 159.06,243.44 159.50,243.71 159.94,243.99 160.37,244.26 160.80,244.54 161.23,244.82 161.66,245.10 162.09,245.38 162.52,245.67 162.94,245.96 163.37,246.25 163.79,246.54 164.21,246.83 164.63,247.13 165.05,247.43 165.47,247.73 165.89,248.03 166.30,248.34 166.72,248.65 " stroke="green" fill="none" marker-start="url(#sat-20)"
marker-end="url(#arrow-green)"/>
<polyline points="427.33,197.66 427.02,197.25 426.71,196.83 426.39,196.42 426.08,196.01 425.77,195.60 425.46,195.19 425.15,194.78 424.84,194.37 424.53,193.96 424.22,193.55 423.92,193.14 423.61,192.73 423.30,192.32 422.99,191.90 422.69,191.49 422.38,191.09 422.08,190.68 421.77,190.27 421.47,189.86 421.16,189.45 420.86,189.04 420.56,188.63 420.26,188.22 419.95,187.81 419.65,187.40 419.35,186.99 419.05,186.59 418.75,186.18 " stroke="green" fill="none" marker-start="url(#sat-26)"
marker-end="url(#arrow-green)"/>
<polyline points="272.50,122.82 272.01,123.00 271.53,123.17 271.04,123.35 270.56,123.53 270.07,123.70 269.58,123.88 269.09,124.05 268.61,124.23 268.12,124.40 267.63,124.58 267.14,124.75 266.65,124.93 266.17,125.10 265.68,125.28 265.19,125.45 264.70,125.63 264.21,125.81 263.72,125.98 263.23,126.15 262.74,126.33 262.25,126.50 261.76,126.68 261.27,126.85 260.78,127.03 260.28,127.20 259.79,127.38 259.30,127.55 258.81,127.73 258.32,127.90 " stroke="green" fill="none" marker-start="url(#sat-29)"
marker-end="url(#arrow-green)"/>
<polyline points="224.26,527.83 224.38,527.34 224.50,526.86 224.62,526.36 224.74,525.87 224.86,525.38 224.98,524.89 225.10,524.40 225.22,523.90 225.33,523.41 225.45,522.91 225.57,522.42 225.69,521.92 225.81,521.43 225.92,520.93 226.04,520.43 226.16,519.93 226.28,519.44 226.39,518.94 226.51,518.44 226.63,517.94 226.75,517.44 226.86,516.93 226.98,516.43 " stroke="green" fill="none" marker-start="url(#sat-30)"
marker-end="url(#arrow-green)"/>
</svg>
