<svg xmlns="http://www.w3.org/2000/svg" width="600" height="600">
<style>text { font-family: 'Segoe UI',Arial, sans-serif; fill: #222222; }</style>
<rect width="100%" height="100%" fill="white"/>
<text x="300.0" y="30" text-anchor="middle" font-size="20">Sky Plot of filtered GPS Satellite Trajectories from the rinex.nav</text>
<rect x="1" y="1" width="598" height="598" fill="none" stroke="gray" stroke-width="2" />
<defs>
<marker id="arrow-green" markerWidth="10" markerHeight="10" refX="10" refY="5" orient="auto" markerUnits="strokeWidth">
<path d="M0,0 L10,5 L0,10 Z" fill="green" />
</marker>
<marker id="arrow-yellow" markerWidth="10" markerHeight="10" refX="10" refY="5" orient="auto" markerUnits="strokeWidth">
<path d="M0,0 L10,5 L0,10 Z" fill="yellow" />
</marker>
<marker id="arrow-orange" markerWidth="10" markerHeight="10" refX="10" refY="5" orient="auto" markerUnits="strokeWidth">
<path d="M0,0 L10,5 L0,10 Z" fill="orange" />
</marker>
<marker id="arrow-red" markerWidth="10" markerHeight="10" refX="10" refY="5" orient="auto" markerUnits="strokeWidth">
<path d="M0,0 L10,5 L0,10 Z" fill="red" />
</marker>
</defs>
<defs>
<marker id="sat-20" markerWidth="30" markerHeight="30" refX="23" refY="15" orient="auto" markerUnits="userSpaceOnUse">
  <text x="15" y="13" font-size="14" text-anchor="middle">20</text>
</marker>
<marker id="sat-21" markerWidth="30" markerHeight="30" refX="23" refY="15" orient="auto" markerUnits="userSpaceOnUse">
  <text x="15" y="13" font-size="14" text-anchor="middle">21</text>
</marker>
<marker id="sat-22" markerWidth="30" markerHeight="30" refX="23" refY="15" orient="auto" markerUnits="userSpaceOnUse">
  <text x="15" y="13" font-size="14" text-anchor="middle">22</text>
</marker>
<marker id="sat-24" markerWidth="30" markerHeight="30" refX="23" refY="15" orient="auto" markerUnits="userSpaceOnUse">
  <text x="15" y="13" font-size="14" text-anchor="middle">24</text>
</marker>
<marker id="sat-25" markerWidth="30" markerHeight="30" refX="23" refY="15" orient="auto" markerUnits="userSpaceOnUse">
  <text x="15" y="13" font-size="14" text-anchor="middle">25</text>
</marker>
</defs>
<circle cx="300.0" cy="330.0" r="240.0" stroke="#cccccc" fill="none" />
<circle cx="300.0" cy="330.0" r="226.7" stroke="#cccccc" fill="none" />
<circle cx="300.0" cy="330.0" r="213.3" stroke="#cccccc" fill="none" />
<circle cx="300.0" cy="330.0" r="200.0" stroke="#cccccc" fill="none" />
<circle cx="300.0" cy="330.0" r="160.0" stroke="#cccccc" fill="none" />
<circle cx="300.0" cy="330.0" r="80.0" stroke="#cccccc" fill="none" />
<line x1="60.0" y1="330.0" x2="540.0" y2="330.0" stroke="#cccccc" />
<line x1="300.0" y1="90.0" x2="300.0" y2="570.0" stroke="#cccccc" />
<text x="300.0" y="80.0" font-size="16" text-anchor="middle">N</text>
<text x="555.0" y="330.0" font-size="16" text-anchor="middle">E</text>
<text x="300.0" y="590.0" font-size="16" text-anchor="middle">S</text>
<text x="40.0" y="330.0" font-size="16" text-anchor="middle">W</text>
<text x="302.0" y="145.0" font-size="14" fill="#666666">15°</text>
<text x="302.0" y="185.0" font-size="14" fill="#666666">30°</text>
<text x="302.0" y="265.0" font-size="14" fill="#666666">60°</text>
<rect x="20" y="50" width="20" height="10" fill="green" /><text x="50" y="60" font-size="14" fill="black">fitInterval = 4 h</text>
<rect x="20" y="75" width="20" height="10" fill="yellow" /><text x="50" y="85" font-size="14" fill="black">fitInterval = 6 h</text>
<rect x="20" y="100" width="20" height="10" fill="orange" /><text x="50" y="110" font-size="14" fill="black">fitInterval = 8 h</text>
<rect x="20" y="125" width="20" height="10" fill="red" /><text x="50" y="135" font-size="14" fill="black">fitInterval ≥ 10 h</text>
<polyline points="220.27,512.95 220.38,514.81 220.51,516.66 220.65,518.51 220.79,520.36 220.96,522.20 221.13,524.04 221.32,525.87 221.52,527.69 221.73,529.52 221.96,531.33 222.21,533.14 222.47,534.95 " stroke="green" fill="none" marker-end="url(#sat-20)"/>
<polyline points="222.47,534.95 222.74,536.75 223.03,538.55 223.34,540.34 223.66,542.13 224.01,543.91 224.36,545.68 224.74,547.45 225.14,549.22 225.56,550.98 225.99,552.73 226.45,554.48 226.92,556.22 227.42,557.95 " stroke="green" fill="none" marker-end="url(#arrow-green)"/>
<polyline points="523.64,376.71 522.79,374.76 521.93,372.81 521.06,370.86 520.17,368.92 519.28,366.98 518.37,365.05 517.46,363.12 516.54,361.20 515.60,359.28 514.66,357.37 513.71,355.46 512.75,353.55 511.79,351.64 510.81,349.74 509.83,347.84 508.84,345.95 507.84,344.05 506.84,342.16 505.83,340.28 504.81,338.39 503.79,336.51 502.76,334.63 501.73,332.75 500.69,330.87 499.64,329.00 498.59,327.13 497.54,325.26 496.48,323.39 495.42,321.52 494.36,319.65 493.29,317.79 492.21,315.92 491.14,314.06 490.06,312.20 488.98,310.34 487.90,308.48 486.81,306.62 485.73,304.77 484.64,302.91 483.55,301.05 482.46,299.20 481.36,297.34 480.27,295.49 479.18,293.64 478.09,291.78 476.99,289.93 475.90,288.08 474.81,286.23 473.71,284.38 472.62,282.53 471.53,280.68 470.44,278.83 469.36,276.99 468.27,275.14 467.19,273.29 466.11,271.44 465.03,269.60 463.95,267.75 462.88,265.91 461.81,264.06 460.75,262.22 459.68,260.38 458.63,258.53 457.57,256.69 456.52,254.85 455.48,253.01 454.44,251.17 453.40,249.33 452.37,247.49 451.34,245.66 450.32,243.82 449.31,241.99 " stroke="green" fill="none" marker-end="url(#sat-20)"/>
<polyline points="449.31,241.99 448.30,240.15 447.30,238.32 446.31,236.49 445.32,234.66 444.34,232.83 443.36,231.00 442.40,229.17 441.44,227.35 440.49,225.53 439.54,223.70 438.61,221.88 437.68,220.06 436.76,218.25 435.85,216.43 434.95,214.62 434.06,212.81 433.18,211.00 432.31,209.19 431.45,207.38 430.59,205.58 429.75,203.78 428.92,201.98 428.10,200.18 427.29,198.39 426.49,196.60 425.70,194.81 424.93,193.02 424.16,191.24 423.41,189.46 422.66,187.68 421.93,185.91 421.22,184.13 420.51,182.36 419.82,180.60 419.14,178.84 418.47,177.08 417.82,175.32 417.18,173.57 416.55,171.82 415.93,170.07 415.33,168.33 414.75,166.59 414.17,164.85 413.61,163.12 413.07,161.39 412.54,159.67 412.02,157.95 411.52,156.23 411.03,154.52 410.56,152.81 410.10,151.11 409.66,149.41 409.23,147.71 408.82,146.02 408.43,144.34 408.05,142.65 407.68,140.98 407.33,139.30 407.00,137.63 406.68,135.97 406.38,134.31 406.09,132.66 405.82,131.01 405.57,129.36 405.34,127.72 405.12,126.09 404.91,124.46 404.73,122.83 404.56,121.22 404.40,119.60 404.27,117.99 404.15,116.39 404.05,114.79 " stroke="green" fill="none" marker-end="url(#arrow-green)"/>
<polyline points="259.54,513.06 259.69,514.88 259.85,516.70 260.01,518.51 260.18,520.32 260.36,522.12 260.55,523.92 260.74,525.70 260.95,527.49 261.16,529.27 261.39,531.04 261.62,532.80 261.87,534.56 262.12,536.31 262.39,538.06 262.67,539.80 " stroke="green" fill="none" marker-end="url(#sat-21)"/>
<polyline points="262.67,539.80 262.96,541.53 263.26,543.26 263.58,544.98 263.91,546.70 264.25,548.40 264.61,550.10 264.98,551.80 265.37,553.48 265.77,555.16 266.19,556.83 266.63,558.50 267.08,560.16 267.55,561.81 268.04,563.45 268.55,565.08 269.08,566.71 " stroke="green" fill="none" marker-end="url(#arrow-green)"/>
<polyline points="539.52,336.44 538.40,334.55 537.26,332.67 536.12,330.79 534.97,328.92 533.80,327.06 532.63,325.20 531.44,323.35 530.25,321.51 529.05,319.67 527.84,317.84 526.62,316.01 525.39,314.19 524.16,312.38 522.91,310.57 521.66,308.76 520.41,306.96 519.14,305.16 517.87,303.37 516.60,301.58 515.31,299.79 514.02,298.01 512.73,296.23 511.43,294.46 510.12,292.68 508.81,290.92 507.50,289.15 506.18,287.39 504.85,285.63 503.53,283.87 502.19,282.12 500.86,280.37 499.52,278.62 498.18,276.87 496.83,275.12 495.48,273.38 494.13,271.64 492.78,269.90 491.42,268.16 490.07,266.42 488.71,264.69 487.35,262.96 485.99,261.22 484.62,259.49 483.26,257.77 481.89,256.04 480.53,254.31 479.16,252.59 477.80,250.86 476.43,249.14 475.07,247.41 473.71,245.69 472.34,243.97 470.98,242.25 469.62,240.53 468.26,238.82 466.90,237.10 465.55,235.38 464.19,233.67 462.84,231.95 461.49,230.24 460.15,228.53 458.81,226.81 457.47,225.10 456.13,223.39 454.80,221.68 453.47,219.97 452.14,218.26 " stroke="green" fill="none" marker-end="url(#sat-21)"/>
<polyline points="452.14,218.26 450.82,216.55 449.50,214.85 448.19,213.14 446.89,211.43 445.58,209.73 444.29,208.02 443.00,206.32 441.71,204.62 440.43,202.92 439.16,201.22 437.89,199.52 436.63,197.82 435.38,196.12 434.13,194.42 432.89,192.73 431.66,191.03 430.44,189.34 429.22,187.65 428.01,185.95 426.81,184.26 425.62,182.57 424.43,180.89 423.26,179.20 422.09,177.51 420.93,175.83 419.79,174.15 418.65,172.46 417.52,170.78 416.40,169.11 415.29,167.43 414.19,165.75 413.10,164.08 412.02,162.40 410.96,160.73 409.90,159.06 408.85,157.40 407.82,155.73 406.80,154.06 405.78,152.40 404.78,150.74 403.79,149.08 402.82,147.42 401.85,145.77 400.90,144.11 399.96,142.46 399.03,140.81 398.12,139.16 397.21,137.52 396.32,135.87 395.45,134.23 394.58,132.59 393.73,130.95 392.90,129.32 392.07,127.68 391.26,126.05 390.46,124.42 389.68,122.79 388.91,121.17 388.16,119.54 387.42,117.92 386.69,116.31 385.98,114.69 385.28,113.08 384.60,111.46 383.93,109.86 383.27,108.25 382.63,106.65 382.01,105.04 " stroke="green" fill="none" marker-end="url(#arrow-green)"/>
<polyline points="518.33,264.31 520.00,265.01 521.67,265.74 523.33,266.48 " stroke="green" fill="none" marker-end="url(#sat-22)"/>
<polyline points="523.33,266.48 525.00,267.25 526.66,268.04 528.31,268.86 529.96,269.70 531.61,270.56 " stroke="green" fill="none" marker-end="url(#arrow-green)"/>
<polyline points="329.58,394.27 330.56,395.98 331.52,397.70 332.47,399.42 333.41,401.15 334.33,402.88 335.23,404.62 336.13,406.37 337.00,408.12 337.87,409.87 338.72,411.63 339.55,413.39 340.38,415.16 341.19,416.93 341.98,418.71 342.76,420.49 343.53,422.27 344.29,424.06 345.03,425.84 345.76,427.63 346.47,429.43 347.18,431.22 347.87,433.02 348.55,434.81 349.22,436.61 349.87,438.41 350.52,440.21 351.15,442.01 351.77,443.81 352.38,445.61 352.98,447.41 353.57,449.21 354.14,451.01 354.71,452.81 355.27,454.61 355.82,456.41 356.35,458.20 356.88,460.00 357.40,461.79 357.91,463.58 358.41,465.37 358.91,467.16 359.39,468.94 359.87,470.72 360.33,472.50 360.80,474.28 361.25,476.05 " stroke="green" fill="none" marker-end="url(#sat-24)"/>
<polyline points="361.25,476.05 361.70,477.82 362.14,479.59 362.57,481.35 363.00,483.11 363.42,484.86 363.83,486.62 364.24,488.36 364.65,490.11 365.05,491.85 365.45,493.58 365.84,495.31 366.23,497.03 366.61,498.75 366.99,500.47 367.37,502.18 367.74,503.88 368.12,505.58 368.49,507.27 368.85,508.96 369.22,510.64 369.59,512.32 369.95,513.99 370.32,515.65 370.68,517.31 371.05,518.96 371.41,520.60 371.78,522.24 372.15,523.87 372.51,525.49 372.89,527.11 373.26,528.71 373.63,530.32 374.01,531.91 374.39,533.49 374.78,535.07 375.17,536.64 375.56,538.21 375.96,539.76 376.37,541.31 376.77,542.84 377.19,544.37 377.61,545.89 378.04,547.40 378.48,548.90 378.92,550.40 379.37,551.88 379.83,553.36 380.30,554.82 " stroke="green" fill="none" marker-end="url(#arrow-green)"/>
<polyline points="" stroke="green" fill="none" marker-end="url(#sat-24)"/>
<polyline points="" stroke="green" fill="none" marker-end="url(#arrow-green)"/>
<polyline points="300.81,327.22 302.64,327.85 304.47,328.50 306.29,329.17 308.10,329.87 309.90,330.59 311.69,331.33 313.48,332.10 315.26,332.88 317.02,333.69 318.78,334.53 320.53,335.38 322.26,336.25 323.99,337.15 325.71,338.07 327.41,339.00 329.11,339.96 330.79,340.94 332.47,341.94 334.13,342.96 335.78,344.00 337.41,345.06 339.04,346.14 340.65,347.24 342.25,348.35 343.84,349.49 345.42,350.64 346.98,351.81 348.53,353.00 350.06,354.21 351.59,355.43 353.09,356.67 354.59,357.93 356.07,359.20 357.54,360.50 358.99,361.80 360.43,363.12 361.85,364.46 363.26,365.81 364.66,367.18 366.04,368.56 367.41,369.96 368.76,371.37 370.10,372.79 371.42,374.23 372.73,375.67 374.02,377.14 375.29,378.61 376.56,380.10 377.80,381.60 379.04,383.11 380.25,384.63 381.45,386.16 382.64,387.71 383.81,389.26 384.97,390.83 386.11,392.40 387.24,393.98 388.35,395.58 389.44,397.18 390.52,398.79 391.59,400.41 392.64,402.04 393.68,403.68 394.70,405.32 395.70,406.97 396.70,408.63 " stroke="green" fill="none" marker-end="url(#sat-25)"/>
<polyline points="396.70,408.63 397.67,410.29 398.64,411.96 399.59,413.64 400.52,415.33 401.44,417.01 402.35,418.71 403.24,420.41 404.12,422.11 404.98,423.82 405.83,425.54 406.67,427.26 407.49,428.98 408.30,430.70 409.10,432.43 409.89,434.17 410.66,435.90 411.42,437.64 412.16,439.38 412.90,441.12 413.62,442.87 414.33,444.61 415.03,446.36 415.72,448.11 416.39,449.86 417.06,451.61 417.71,453.36 418.35,455.12 418.99,456.87 419.61,458.62 420.22,460.37 420.82,462.12 421.41,463.87 422.00,465.62 422.57,467.37 423.13,469.12 423.69,470.86 424.24,472.60 424.78,474.35 425.31,476.09 425.83,477.82 426.35,479.56 426.85,481.29 427.36,483.01 427.85,484.74 428.34,486.46 428.82,488.18 429.30,489.89 429.77,491.60 430.24,493.31 430.70,495.01 431.15,496.71 431.61,498.40 432.05,500.09 432.50,501.77 432.94,503.44 433.38,505.11 433.81,506.78 434.25,508.44 434.68,510.09 435.11,511.74 435.53,513.38 435.96,515.01 436.39,516.64 436.81,518.26 437.24,519.87 437.66,521.48 438.09,523.08 438.52,524.67 " stroke="green" fill="none" marker-end="url(#arrow-green)"/>
</svg>
