<svg xmlns="http://www.w3.org/2000/svg" width="600" height="600">
<style>text { font-family: 'Segoe UI',Arial, sans-serif; fill: #222222; }</style>
<rect width="100%" height="100%" fill="white"/>
<text x="300.0" y="30" text-anchor="middle" font-size="20">Sky Plot of filtered GPS Satellite Trajectories from the rinex.nav</text>
<rect x="1" y="1" width="598" height="598" fill="none" stroke="gray" stroke-width="2" />
<defs>
<marker id="arrow-green" markerWidth="10" markerHeight="10" refX="10" refY="5" orient="auto" markerUnits="strokeWidth">
<path d="M0,0 L10,5 L0,10 Z" fill="green" />
</marker>
<marker id="arrow-yellow" markerWidth="10" markerHeight="10" refX="10" refY="5" orient="auto" markerUnits="strokeWidth">
<path d="M0,0 L10,5 L0,10 Z" fill="yellow" />
</marker>
<marker id="arrow-orange" markerWidth="10" markerHeight="10" refX="10" refY="5" orient="auto" markerUnits="strokeWidth">
<path d="M0,0 L10,5 L0,10 Z" fill="orange" />
</marker>
<marker id="arrow-red" markerWidth="10" markerHeight="10" refX="10" refY="5" orient="auto" markerUnits="strokeWidth">
<path d="M0,0 L10,5 L0,10 Z" fill="red" />
</marker>
</defs>
<defs>
<marker id="sat-5" markerWidth="30" markerHeight="30" refX="23" refY="15" orient="auto" markerUnits="userSpaceOnUse">
  <text x="15" y="12" font-size="14" text-anchor="middle">5</text>
</marker>
<marker id="sat-6" markerWidth="30" markerHeight="30" refX="23" refY="15" orient="auto" markerUnits="userSpaceOnUse">
  <text x="15" y="12" font-size="14" text-anchor="middle">6</text>
</marker>
<marker id="sat-7" markerWidth="30" markerHeight="30" refX="23" refY="15" orient="auto" markerUnits="userSpaceOnUse">
  <text x="15" y="12" font-size="14" text-anchor="middle">7</text>
</marker>
<marker id="sat-9" markerWidth="30" markerHeight="30" refX="23" refY="15" orient="auto" markerUnits="userSpaceOnUse">
  <text x="15" y="12" font-size="14" text-anchor="middle">9</text>
</marker>
<marker id="sat-10" markerWidth="30" markerHeight="30" refX="23" refY="15" orient="auto" markerUnits="userSpaceOnUse">
  <text x="15" y="12" font-size="14" text-anchor="middle">10</text>
</marker>
</defs>
<circle cx="300.0" cy="340.0" r="230.0" stroke="#cccccc" fill="none" />
<circle cx="300.0" cy="340.0" r="217.2" stroke="#cccccc" fill="none" />
<circle cx="300.0" cy="340.0" r="204.4" stroke="#cccccc" fill="none" />
<circle cx="300.0" cy="340.0" r="191.7" stroke="#cccccc" fill="none" />
<circle cx="300.0" cy="340.0" r="153.3" stroke="#cccccc" fill="none" />
<circle cx="300.0" cy="340.0" r="76.7" stroke="#cccccc" fill="none" />
<line x1="70.0" y1="340.0" x2="530.0" y2="340.0" stroke="#cccccc" />
<line x1="300.0" y1="110.0" x2="300.0" y2="570.0" stroke="#cccccc" />
<text x="300.0" y="100.0" font-size="16" text-anchor="middle">N</text>
<text x="545.0" y="340.0" font-size="16" text-anchor="middle">E</text>
<text x="300.0" y="590.0" font-size="16" text-anchor="middle">S</text>
<text x="50.0" y="340.0" font-size="16" text-anchor="middle">W</text>
<text x="302.0" y="163.33333333333334" font-size="14" style="fill:#aaaaaa">15°</text>
<text x="302.0" y="201.66666666666666" font-size="14" style="fill:#aaaaaa">30°</text>
<text x="302.0" y="278.3333333333333" font-size="14" style="fill:#aaaaaa">60°</text>
<rect x="20" y="70" width="20" height="10" fill="green" /><text x="50" y="80" font-size="14" fill="black">fitInterval =  4 h</text>
<rect x="20" y="90" width="20" height="10" fill="yellow" /><text x="50" y="100" font-size="14" fill="black">fitInterval =  6 h</text>
<rect x="20" y="110" width="20" height="10" fill="orange" /><text x="50" y="120" font-size="14" fill="black">fitInterval =  8 h</text>
<rect x="20" y="130" width="20" height="10" fill="red" /><text x="50" y="140" font-size="14" fill="black">fitInterval ≥ 10 h</text>
<polyline points="203.75,433.99 203.55,435.94 203.35,437.89 203.15,439.83 202.95,441.77 202.75,443.71 202.55,445.64 202.35,447.57 202.16,449.50 201.96,451.42 201.77,453.34 201.57,455.26 201.38,457.17 201.19,459.08 201.01,460.98 200.83,462.88 200.65,464.78 200.47,466.67 200.30,468.56 200.13,470.44 199.97,472.32 199.81,474.20 199.66,476.07 199.51,477.94 199.37,479.81 199.24,481.67 199.11,483.53 198.99,485.38 198.87,487.23 198.77,489.08 198.67,490.92 " stroke="green" fill="none" marker-end="url(#sat-5)"/>
<polyline points="198.67,490.92 198.57,492.76 198.49,494.59 198.42,496.42 198.35,498.25 198.30,500.07 198.25,501.89 198.21,503.71 198.19,505.52 198.17,507.33 198.17,509.14 198.18,510.94 198.20,512.74 198.23,514.53 198.28,516.32 198.34,518.11 198.41,519.89 198.50,521.68 198.60,523.45 198.72,525.23 198.85,527.00 198.99,528.76 199.16,530.52 199.34,532.28 199.53,534.04 199.74,535.79 199.98,537.54 200.22,539.28 200.49,541.02 200.78,542.76 201.08,544.49 201.41,546.22 201.76,547.95 " stroke="green" fill="none" marker-end="url(#arrow-green)"/>
<polyline points="505.99,440.19 505.54,438.22 505.06,436.26 504.57,434.30 504.07,432.34 503.55,430.39 503.01,428.45 502.46,426.50 501.90,424.56 501.32,422.62 500.73,420.69 500.13,418.76 499.51,416.83 498.88,414.91 498.24,412.99 497.58,411.07 496.92,409.15 496.24,407.24 495.55,405.33 494.86,403.42 494.15,401.51 493.43,399.61 492.70,397.71 491.97,395.80 491.22,393.90 490.47,392.01 489.70,390.11 488.93,388.21 488.15,386.32 487.36,384.42 486.57,382.53 485.77,380.64 484.96,378.75 484.15,376.85 483.32,374.96 482.50,373.07 481.66,371.19 480.83,369.30 479.98,367.41 479.13,365.52 478.28,363.63 477.42,361.74 476.56,359.85 475.69,357.96 474.82,356.07 473.95,354.19 473.07,352.30 472.20,350.41 471.31,348.52 470.43,346.63 469.54,344.74 468.65,342.84 467.76,340.95 466.87,339.06 465.98,337.17 465.08,335.28 464.19,333.38 463.29,331.49 462.39,329.59 461.50,327.70 460.60,325.81 459.71,323.91 458.81,322.01 457.92,320.12 457.02,318.22 456.13,316.33 455.24,314.43 454.35,312.53 " stroke="green" fill="none" marker-end="url(#sat-5)"/>
<polyline points="454.35,312.53 453.47,310.64 452.58,308.74 451.70,306.84 450.82,304.94 449.95,303.05 449.08,301.15 448.21,299.25 447.34,297.35 446.48,295.46 445.62,293.56 444.77,291.67 443.92,289.77 443.08,287.88 442.24,285.98 441.41,284.09 440.59,282.20 439.77,280.31 438.95,278.42 438.14,276.53 437.34,274.64 436.55,272.75 435.76,270.87 434.98,268.98 434.20,267.10 433.44,265.22 432.68,263.34 431.93,261.46 431.19,259.59 430.46,257.72 429.73,255.85 429.02,253.98 428.31,252.11 427.61,250.25 426.93,248.39 426.25,246.53 425.58,244.67 424.93,242.82 424.28,240.97 423.64,239.13 423.02,237.28 422.41,235.45 421.80,233.61 421.21,231.78 420.63,229.95 420.06,228.12 419.51,226.30 418.97,224.49 418.43,222.67 417.92,220.87 417.41,219.06 416.92,217.26 416.44,215.47 415.97,213.68 415.52,211.89 415.08,210.11 414.65,208.33 414.24,206.56 413.84,204.80 413.46,203.04 413.09,201.28 412.73,199.53 412.39,197.79 412.07,196.05 411.76,194.31 411.46,192.59 411.18,190.87 410.92,189.15 410.67,187.44 410.43,185.74 " stroke="green" fill="none" marker-end="url(#arrow-green)"/>
<polyline points="472.11,345.18 471.17,343.31 470.23,341.45 469.29,339.59 468.35,337.73 467.41,335.87 466.46,334.00 465.52,332.14 464.57,330.28 463.63,328.42 462.68,326.56 461.73,324.70 460.79,322.83 459.84,320.97 458.90,319.11 457.96,317.25 457.02,315.39 456.08,313.53 455.14,311.67 454.20,309.81 453.27,307.95 452.34,306.09 451.41,304.23 450.49,302.37 449.57,300.51 448.65,298.65 447.73,296.79 446.82,294.93 445.92,293.08 445.02,291.22 444.12,289.36 443.23,287.51 442.34,285.65 441.46,283.80 440.58,281.95 439.71,280.09 438.85,278.24 437.99,276.39 437.14,274.54 436.30,272.70 435.46,270.85 434.63,269.01 433.81,267.16 433.00,265.32 432.19,263.48 431.39,261.65 430.60,259.81 429.82,257.98 429.05,256.14 428.28,254.31 427.53,252.49 426.78,250.66 426.05,248.84 425.32,247.02 424.61,245.20 423.90,243.38 423.21,241.57 422.52,239.76 421.85,237.96 421.19,236.15 " stroke="green" fill="none" marker-end="url(#sat-6)"/>
<polyline points="421.19,236.15 420.54,234.35 419.90,232.55 419.27,230.76 418.65,228.97 418.05,227.18 417.46,225.40 416.88,223.62 416.31,221.84 415.75,220.07 415.21,218.30 414.68,216.54 414.17,214.78 413.67,213.02 413.18,211.27 412.70,209.53 412.24,207.78 411.80,206.05 411.36,204.31 410.95,202.59 410.54,200.86 410.15,199.14 409.78,197.43 409.42,195.72 409.07,194.02 408.74,192.32 408.43,190.63 408.13,188.94 407.85,187.26 407.58,185.58 407.33,183.91 407.10,182.25 406.88,180.59 406.67,178.94 406.49,177.29 406.32,175.65 406.16,174.02 406.02,172.39 405.90,170.77 405.80,169.15 405.71,167.54 405.64,165.94 405.59,164.35 405.56,162.76 405.54,161.18 405.54,159.60 405.55,158.03 405.59,156.47 405.64,154.92 405.71,153.38 405.80,151.84 405.90,150.31 406.02,148.78 406.17,147.27 406.33,145.76 406.50,144.26 406.70,142.76 406.91,141.28 407.14,139.80 407.40,138.34 407.66,136.88 " stroke="green" fill="none" marker-end="url(#arrow-green)"/>
<polyline points="" stroke="green" fill="none" marker-end="url(#sat-6)"/>
<polyline points="" stroke="green" fill="none" marker-end="url(#arrow-green)"/>
<polyline points="474.26,299.45 475.88,299.99 477.50,300.56 479.12,301.15 480.73,301.76 482.34,302.39 483.95,303.04 485.55,303.72 487.15,304.42 488.74,305.13 490.33,305.87 491.92,306.64 493.50,307.42 495.07,308.22 496.64,309.05 498.20,309.89 499.76,310.76 501.32,311.64 " stroke="green" fill="none" marker-end="url(#sat-7)"/>
<polyline points="501.32,311.64 502.86,312.55 504.40,313.48 505.94,314.42 507.46,315.39 508.98,316.38 510.50,317.38 512.00,318.41 513.50,319.45 515.00,320.52 516.48,321.60 517.96,322.70 519.43,323.83 520.89,324.97 522.34,326.12 523.78,327.30 525.22,328.49 526.64,329.71 528.06,330.93 529.47,332.18 " stroke="green" fill="none" marker-end="url(#arrow-green)"/>
<polyline points="447.24,370.23 448.55,371.53 449.86,372.85 451.14,374.18 452.42,375.52 453.68,376.88 454.93,378.25 456.17,379.64 457.39,381.04 458.60,382.45 459.79,383.87 460.98,385.30 462.14,386.75 463.30,388.21 464.44,389.68 465.57,391.16 466.69,392.65 467.79,394.15 468.88,395.66 469.95,397.19 471.01,398.72 472.06,400.26 473.10,401.81 474.12,403.37 475.13,404.94 476.12,406.52 477.11,408.10 " stroke="green" fill="none" marker-end="url(#sat-9)"/>
<polyline points="477.11,408.10 478.08,409.69 479.03,411.30 479.98,412.90 480.91,414.52 481.82,416.14 482.73,417.77 483.62,419.40 484.50,421.04 485.37,422.69 486.23,424.34 487.07,425.99 487.90,427.66 488.72,429.32 489.53,430.99 490.32,432.67 491.11,434.34 491.88,436.03 492.64,437.71 493.39,439.40 494.13,441.09 494.86,442.78 495.57,444.48 496.28,446.17 496.98,447.87 497.66,449.57 498.34,451.27 499.01,452.97 " stroke="green" fill="none" marker-end="url(#arrow-green)"/>
<polyline points="188.04,191.16 186.75,192.67 185.45,194.19 184.14,195.71 182.82,197.22 181.50,198.74 180.17,200.26 178.83,201.78 177.48,203.30 176.13,204.82 174.77,206.34 173.40,207.87 172.03,209.39 170.65,210.91 169.27,212.44 167.88,213.96 166.48,215.49 165.08,217.01 163.67,218.54 162.26,220.07 160.85,221.60 159.43,223.12 158.00,224.65 156.57,226.18 155.14,227.71 153.70,229.25 152.26,230.78 150.82,232.31 149.37,233.85 147.92,235.38 146.47,236.92 145.02,238.46 143.56,239.99 142.10,241.53 140.64,243.07 139.18,244.61 137.71,246.16 136.25,247.70 134.78,249.25 133.31,250.79 131.84,252.34 130.38,253.89 " stroke="green" fill="none" marker-end="url(#sat-10)"/>
<polyline points="130.38,253.89 128.91,255.44 127.44,256.99 125.97,258.55 124.50,260.10 123.03,261.66 121.57,263.22 120.10,264.78 118.64,266.35 117.17,267.91 115.71,269.48 114.25,271.05 112.79,272.63 111.34,274.20 109.88,275.78 108.43,277.37 106.99,278.95 105.54,280.54 104.10,282.13 102.66,283.73 101.23,285.33 99.79,286.93 98.37,288.54 96.95,290.15 95.53,291.76 94.12,293.38 92.71,295.00 91.30,296.63 89.91,298.27 88.52,299.91 87.13,301.55 85.75,303.20 84.38,304.86 83.01,306.52 81.65,308.19 80.30,309.86 78.95,311.54 77.61,313.23 76.28,314.93 74.96,316.63 73.65,318.34 72.34,320.06 71.04,321.78 " stroke="green" fill="none" marker-end="url(#arrow-green)"/>
</svg>
