<svg xmlns="http://www.w3.org/2000/svg" width="600" height="600">
<style>text { font-family: 'Segoe UI',Arial, sans-serif; fill: #222222; }</style>
<rect width="100%" height="100%" fill="white"/>
<text x="300.0" y="30" text-anchor="middle" font-size="20">Sky Plot of GPS Satellite Trajectories from the rinex.nav</text>
<rect x="1" y="1" width="598" height="598" fill="none" stroke="gray" stroke-width="2" />
<defs>
<marker id="arrow-green" markerWidth="10" markerHeight="10" refX="10" refY="5" orient="auto" markerUnits="strokeWidth">
<path d="M0,0 L10,5 L0,10 Z" fill="green" />
</marker>
<marker id="arrow-yellow" markerWidth="10" markerHeight="10" refX="10" refY="5" orient="auto" markerUnits="strokeWidth">
<path d="M0,0 L10,5 L0,10 Z" fill="yellow" />
</marker>
<marker id="arrow-orange" markerWidth="10" markerHeight="10" refX="10" refY="5" orient="auto" markerUnits="strokeWidth">
<path d="M0,0 L10,5 L0,10 Z" fill="orange" />
</marker>
<marker id="arrow-red" markerWidth="10" markerHeight="10" refX="10" refY="5" orient="auto" markerUnits="strokeWidth">
<path d="M0,0 L10,5 L0,10 Z" fill="red" />
</marker>
</defs>
<defs>
<marker id="sat-1" markerWidth="30" markerHeight="30" refX="23" refY="15" orient="auto" markerUnits="userSpaceOnUse">
  <text x="15" y="12" font-size="14" text-anchor="middle">1</text>
</marker>
<marker id="sat-4" markerWidth="30" markerHeight="30" refX="23" refY="15" orient="auto" markerUnits="userSpaceOnUse">
  <text x="15" y="12" font-size="14" text-anchor="middle">4</text>
</marker>
<marker id="sat-5" markerWidth="30" markerHeight="30" refX="23" refY="15" orient="auto" markerUnits="userSpaceOnUse">
  <text x="15" y="12" font-size="14" text-anchor="middle">5</text>
</marker>
<marker id="sat-6" markerWidth="30" markerHeight="30" refX="23" refY="15" orient="auto" markerUnits="userSpaceOnUse">
  <text x="15" y="12" font-size="14" text-anchor="middle">6</text>
</marker>
<marker id="sat-7" markerWidth="30" markerHeight="30" refX="23" refY="15" orient="auto" markerUnits="userSpaceOnUse">
  <text x="15" y="12" font-size="14" text-anchor="middle">7</text>
</marker>
<marker id="sat-9" markerWidth="30" markerHeight="30" refX="23" refY="15" orient="auto" markerUnits="userSpaceOnUse">
  <text x="15" y="12" font-size="14" text-anchor="middle">9</text>
</marker>
<marker id="sat-10" markerWidth="30" markerHeight="30" refX="23" refY="15" orient="auto" markerUnits="userSpaceOnUse">
  <text x="15" y="12" font-size="14" text-anchor="middle">10</text>
</marker>
<marker id="sat-11" markerWidth="30" markerHeight="30" refX="23" refY="15" orient="auto" markerUnits="userSpaceOnUse">
  <text x="15" y="12" font-size="14" text-anchor="middle">11</text>
</marker>
<marker id="sat-12" markerWidth="30" markerHeight="30" refX="23" refY="15" orient="auto" markerUnits="userSpaceOnUse">
  <text x="15" y="12" font-size="14" text-anchor="middle">12</text>
</marker>
<marker id="sat-14" markerWidth="30" markerHeight="30" refX="23" refY="15" orient="auto" markerUnits="userSpaceOnUse">
  <text x="15" y="12" font-size="14" text-anchor="middle">14</text>
</marker>
<marker id="sat-15" markerWidth="30" markerHeight="30" refX="23" refY="15" orient="auto" markerUnits="userSpaceOnUse">
  <text x="15" y="12" font-size="14" text-anchor="middle">15</text>
</marker>
<marker id="sat-16" markerWidth="30" markerHeight="30" refX="23" refY="15" orient="auto" markerUnits="userSpaceOnUse">
  <text x="15" y="12" font-size="14" text-anchor="middle">16</text>
</marker>
<marker id="sat-18" markerWidth="30" markerHeight="30" refX="23" refY="15" orient="auto" markerUnits="userSpaceOnUse">
  <text x="15" y="12" font-size="14" text-anchor="middle">18</text>
</marker>
<marker id="sat-20" markerWidth="30" markerHeight="30" refX="23" refY="15" orient="auto" markerUnits="userSpaceOnUse">
  <text x="15" y="12" font-size="14" text-anchor="middle">20</text>
</marker>
<marker id="sat-21" markerWidth="30" markerHeight="30" refX="23" refY="15" orient="auto" markerUnits="userSpaceOnUse">
  <text x="15" y="12" font-size="14" text-anchor="middle">21</text>
</marker>
<marker id="sat-22" markerWidth="30" markerHeight="30" refX="23" refY="15" orient="auto" markerUnits="userSpaceOnUse">
  <text x="15" y="12" font-size="14" text-anchor="middle">22</text>
</marker>
<marker id="sat-24" markerWidth="30" markerHeight="30" refX="23" refY="15" orient="auto" markerUnits="userSpaceOnUse">
  <text x="15" y="12" font-size="14" text-anchor="middle">24</text>
</marker>
<marker id="sat-25" markerWidth="30" markerHeight="30" refX="23" refY="15" orient="auto" markerUnits="userSpaceOnUse">
  <text x="15" y="12" font-size="14" text-anchor="middle">25</text>
</marker>
<marker id="sat-26" markerWidth="30" markerHeight="30" refX="23" refY="15" orient="auto" markerUnits="userSpaceOnUse">
  <text x="15" y="12" font-size="14" text-anchor="middle">26</text>
</marker>
<marker id="sat-28" markerWidth="30" markerHeight="30" refX="23" refY="15" orient="auto" markerUnits="userSpaceOnUse">
  <text x="15" y="12" font-size="14" text-anchor="middle">28</text>
</marker>
<marker id="sat-29" markerWidth="30" markerHeight="30" refX="23" refY="15" orient="auto" markerUnits="userSpaceOnUse">
  <text x="15" y="12" font-size="14" text-anchor="middle">29</text>
</marker>
<marker id="sat-31" markerWidth="30" markerHeight="30" refX="23" refY="15" orient="auto" markerUnits="userSpaceOnUse">
  <text x="15" y="12" font-size="14" text-anchor="middle">31</text>
</marker>
<marker id="sat-32" markerWidth="30" markerHeight="30" refX="23" refY="15" orient="auto" markerUnits="userSpaceOnUse">
  <text x="15" y="12" font-size="14" text-anchor="middle">32</text>
</marker>
</defs>
<circle cx="300.0" cy="340.0" r="230.0" stroke="#cccccc" fill="none" />
<circle cx="300.0" cy="340.0" r="217.2" stroke="#cccccc" fill="none" />
<circle cx="300.0" cy="340.0" r="204.4" stroke="#cccccc" fill="none" />
<circle cx="300.0" cy="340.0" r="191.7" stroke="#cccccc" fill="none" />
<circle cx="300.0" cy="340.0" r="153.3" stroke="#cccccc" fill="none" />
<circle cx="300.0" cy="340.0" r="76.7" stroke="#cccccc" fill="none" />
<line x1="70.0" y1="340.0" x2="530.0" y2="340.0" stroke="#cccccc" />
<line x1="300.0" y1="110.0" x2="300.0" y2="570.0" stroke="#cccccc" />
<text x="300.0" y="100.0" font-size="16" text-anchor="middle">N</text>
<text x="545.0" y="340.0" font-size="16" text-anchor="middle">E</text>
<text x="300.0" y="590.0" font-size="16" text-anchor="middle">S</text>
<text x="50.0" y="340.0" font-size="16" text-anchor="middle">W</text>
<text x="302.0" y="163.33333333333334" font-size="14" style="fill:#aaaaaa">15°</text>
<text x="302.0" y="201.66666666666666" font-size="14" style="fill:#aaaaaa">30°</text>
<text x="302.0" y="278.3333333333333" font-size="14" style="fill:#aaaaaa">60°</text>
<rect x="20" y="70" width="20" height="10" fill="green" /><text x="50" y="80" font-size="14" fill="black">fitInterval =  4 h</text>
<rect x="20" y="90" width="20" height="10" fill="yellow" /><text x="50" y="100" font-size="14" fill="black">fitInterval =  6 h</text>
<rect x="20" y="110" width="20" height="10" fill="orange" /><text x="50" y="120" font-size="14" fill="black">fitInterval =  8 h</text>
<rect x="20" y="130" width="20" height="10" fill="red" /><text x="50" y="140" font-size="14" fill="black">fitInterval ≥ 10 h</text>
<polyline points="449.65,180.33 447.73,179.33 445.80,178.33 443.88,177.34 441.96,176.34 440.04,175.35 438.11,174.36 436.19,173.36 434.27,172.38 432.34,171.39 430.42,170.40 428.50,169.41 426.57,168.43 424.65,167.44 422.73,166.46 420.81,165.47 418.89,164.49 416.97,163.51 415.06,162.52 413.14,161.54 411.23,160.56 409.31,159.58 407.40,158.60 405.49,157.62 403.59,156.63 401.68,155.65 399.78,154.67 397.88,153.69 395.98,152.71 394.09,151.73 392.19,150.75 390.30,149.76 388.42,148.78 386.53,147.80 384.65,146.82 " stroke="green" fill="none" marker-end="url(#sat-1)"/>
<polyline points="384.65,146.82 382.78,145.83 380.90,144.85 379.03,143.86 377.17,142.88 375.31,141.89 373.45,140.91 371.60,139.92 369.75,138.94 367.90,137.95 366.06,136.96 364.22,135.97 362.39,134.98 360.57,133.99 358.74,133.00 356.93,132.01 355.12,131.02 353.31,130.03 351.51,129.04 349.71,128.04 347.92,127.05 346.14,126.05 344.36,125.06 342.59,124.06 340.82,123.06 339.06,122.06 337.31,121.06 335.56,120.06 333.82,119.06 332.08,118.06 330.35,117.06 328.63,116.05 326.91,115.05 325.20,114.04 323.50,113.04 321.80,112.03 320.11,111.02 " stroke="green" fill="none" marker-end="url(#arrow-green)"/>
<polyline points="276.54,111.34 274.96,112.43 273.37,113.52 271.77,114.61 270.16,115.70 268.54,116.79 266.92,117.87 265.29,118.96 263.65,120.05 262.00,121.13 260.35,122.22 258.69,123.30 257.02,124.38 255.34,125.46 253.66,126.54 251.97,127.63 250.27,128.70 248.57,129.78 246.86,130.86 245.14,131.94 243.42,133.01 241.69,134.09 239.96,135.16 238.21,136.24 236.47,137.31 234.71,138.38 232.95,139.46 231.19,140.53 229.42,141.60 227.64,142.67 225.86,143.74 224.07,144.81 222.28,145.88 220.48,146.95 218.68,148.01 216.87,149.08 215.06,150.15 213.25,151.21 211.43,152.28 209.60,153.35 207.77,154.41 205.94,155.48 204.10,156.54 202.26,157.61 200.42,158.67 198.58,159.74 " stroke="green" fill="none" marker-end="url(#sat-4)"/>
<polyline points="198.58,159.74 196.73,160.80 194.87,161.87 193.02,162.93 191.16,163.99 189.30,165.06 187.43,166.12 185.57,167.19 183.70,168.25 181.83,169.32 179.96,170.38 178.08,171.45 176.21,172.52 174.33,173.58 172.45,174.65 170.57,175.72 168.69,176.79 166.81,177.86 164.92,178.93 163.04,180.00 161.16,181.07 159.27,182.15 157.39,183.22 155.50,184.30 153.62,185.38 151.73,186.46 149.85,187.54 147.97,188.62 146.08,189.70 144.20,190.79 142.32,191.88 140.44,192.97 138.56,194.06 136.68,195.15 134.80,196.25 132.92,197.35 131.05,198.45 129.17,199.56 127.30,200.67 125.43,201.78 123.56,202.90 121.70,204.01 119.84,205.14 117.97,206.26 116.12,207.39 114.26,208.53 112.41,209.67 110.56,210.81 " stroke="green" fill="none" marker-end="url(#arrow-green)"/>
<polyline points="203.75,433.99 203.55,435.94 203.35,437.89 203.15,439.83 202.95,441.77 202.75,443.71 202.55,445.64 202.35,447.57 202.16,449.50 201.96,451.42 201.77,453.34 201.57,455.26 201.38,457.17 201.19,459.08 201.01,460.98 200.83,462.88 200.65,464.78 200.47,466.67 200.30,468.56 200.13,470.44 199.97,472.32 199.81,474.20 199.66,476.07 199.51,477.94 199.37,479.81 199.24,481.67 199.11,483.53 198.99,485.38 198.87,487.23 198.77,489.08 198.67,490.92 " stroke="green" fill="none" marker-end="url(#sat-5)"/>
<polyline points="198.67,490.92 198.57,492.76 198.49,494.59 198.42,496.42 198.35,498.25 198.30,500.07 198.25,501.89 198.21,503.71 198.19,505.52 198.17,507.33 198.17,509.14 198.18,510.94 198.20,512.74 198.23,514.53 198.28,516.32 198.34,518.11 198.41,519.89 198.50,521.68 198.60,523.45 198.72,525.23 198.85,527.00 198.99,528.76 199.16,530.52 199.34,532.28 199.53,534.04 199.74,535.79 199.98,537.54 200.22,539.28 200.49,541.02 200.78,542.76 201.08,544.49 201.41,546.22 201.76,547.95 " stroke="green" fill="none" marker-end="url(#arrow-green)"/>
<polyline points="505.99,440.19 505.54,438.22 505.06,436.26 504.57,434.30 504.07,432.34 503.55,430.39 503.01,428.45 502.46,426.50 501.90,424.56 501.32,422.62 500.73,420.69 500.13,418.76 499.51,416.83 498.88,414.91 498.24,412.99 497.58,411.07 496.92,409.15 496.24,407.24 495.55,405.33 494.86,403.42 494.15,401.51 493.43,399.61 492.70,397.71 491.97,395.80 491.22,393.90 490.47,392.01 489.70,390.11 488.93,388.21 488.15,386.32 487.36,384.42 486.57,382.53 485.77,380.64 484.96,378.75 484.15,376.85 483.32,374.96 482.50,373.07 481.66,371.19 480.83,369.30 479.98,367.41 479.13,365.52 478.28,363.63 477.42,361.74 476.56,359.85 475.69,357.96 474.82,356.07 473.95,354.19 473.07,352.30 472.20,350.41 471.31,348.52 470.43,346.63 469.54,344.74 468.65,342.84 467.76,340.95 466.87,339.06 465.98,337.17 465.08,335.28 464.19,333.38 463.29,331.49 462.39,329.59 461.50,327.70 460.60,325.81 459.71,323.91 458.81,322.01 457.92,320.12 457.02,318.22 456.13,316.33 455.24,314.43 454.35,312.53 " stroke="green" fill="none" marker-end="url(#sat-5)"/>
<polyline points="454.35,312.53 453.47,310.64 452.58,308.74 451.70,306.84 450.82,304.94 449.95,303.05 449.08,301.15 448.21,299.25 447.34,297.35 446.48,295.46 445.62,293.56 444.77,291.67 443.92,289.77 443.08,287.88 442.24,285.98 441.41,284.09 440.59,282.20 439.77,280.31 438.95,278.42 438.14,276.53 437.34,274.64 436.55,272.75 435.76,270.87 434.98,268.98 434.20,267.10 433.44,265.22 432.68,263.34 431.93,261.46 431.19,259.59 430.46,257.72 429.73,255.85 429.02,253.98 428.31,252.11 427.61,250.25 426.93,248.39 426.25,246.53 425.58,244.67 424.93,242.82 424.28,240.97 423.64,239.13 423.02,237.28 422.41,235.45 421.80,233.61 421.21,231.78 420.63,229.95 420.06,228.12 419.51,226.30 418.97,224.49 418.43,222.67 417.92,220.87 417.41,219.06 416.92,217.26 416.44,215.47 415.97,213.68 415.52,211.89 415.08,210.11 414.65,208.33 414.24,206.56 413.84,204.80 413.46,203.04 413.09,201.28 412.73,199.53 412.39,197.79 412.07,196.05 411.76,194.31 411.46,192.59 411.18,190.87 410.92,189.15 410.67,187.44 410.43,185.74 " stroke="green" fill="none" marker-end="url(#arrow-green)"/>
<polyline points="472.11,345.18 471.17,343.31 470.23,341.45 469.29,339.59 468.35,337.73 467.41,335.87 466.46,334.00 465.52,332.14 464.57,330.28 463.63,328.42 462.68,326.56 461.73,324.70 460.79,322.83 459.84,320.97 458.90,319.11 457.96,317.25 457.02,315.39 456.08,313.53 455.14,311.67 454.20,309.81 453.27,307.95 452.34,306.09 451.41,304.23 450.49,302.37 449.57,300.51 448.65,298.65 447.73,296.79 446.82,294.93 445.92,293.08 445.02,291.22 444.12,289.36 443.23,287.51 442.34,285.65 441.46,283.80 440.58,281.95 439.71,280.09 438.85,278.24 437.99,276.39 437.14,274.54 436.30,272.70 435.46,270.85 434.63,269.01 433.81,267.16 433.00,265.32 432.19,263.48 431.39,261.65 430.60,259.81 429.82,257.98 429.05,256.14 428.28,254.31 427.53,252.49 426.78,250.66 426.05,248.84 425.32,247.02 424.61,245.20 423.90,243.38 423.21,241.57 422.52,239.76 421.85,237.96 421.19,236.15 " stroke="green" fill="none" marker-end="url(#sat-6)"/>
<polyline points="421.19,236.15 420.54,234.35 419.90,232.55 419.27,230.76 418.65,228.97 418.05,227.18 417.46,225.40 416.88,223.62 416.31,221.84 415.75,220.07 415.21,218.30 414.68,216.54 414.17,214.78 413.67,213.02 413.18,211.27 412.70,209.53 412.24,207.78 411.80,206.05 411.36,204.31 410.95,202.59 410.54,200.86 410.15,199.14 409.78,197.43 409.42,195.72 409.07,194.02 408.74,192.32 408.43,190.63 408.13,188.94 407.85,187.26 407.58,185.58 407.33,183.91 407.10,182.25 406.88,180.59 406.67,178.94 406.49,177.29 406.32,175.65 406.16,174.02 406.02,172.39 405.90,170.77 405.80,169.15 405.71,167.54 405.64,165.94 405.59,164.35 405.56,162.76 405.54,161.18 405.54,159.60 405.55,158.03 405.59,156.47 405.64,154.92 405.71,153.38 405.80,151.84 405.90,150.31 406.02,148.78 406.17,147.27 406.33,145.76 406.50,144.26 406.70,142.76 406.91,141.28 407.14,139.80 407.40,138.34 407.66,136.88 " stroke="green" fill="none" marker-end="url(#arrow-green)"/>
<polyline points="" stroke="green" fill="none" marker-end="url(#sat-6)"/>
<polyline points="" stroke="green" fill="none" marker-end="url(#arrow-green)"/>
<polyline points="474.26,299.45 475.88,299.99 477.50,300.56 479.12,301.15 480.73,301.76 482.34,302.39 483.95,303.04 485.55,303.72 487.15,304.42 488.74,305.13 490.33,305.87 491.92,306.64 493.50,307.42 495.07,308.22 496.64,309.05 498.20,309.89 499.76,310.76 501.32,311.64 " stroke="green" fill="none" marker-end="url(#sat-7)"/>
<polyline points="501.32,311.64 502.86,312.55 504.40,313.48 505.94,314.42 507.46,315.39 508.98,316.38 510.50,317.38 512.00,318.41 513.50,319.45 515.00,320.52 516.48,321.60 517.96,322.70 519.43,323.83 520.89,324.97 522.34,326.12 523.78,327.30 525.22,328.49 526.64,329.71 528.06,330.93 529.47,332.18 " stroke="green" fill="none" marker-end="url(#arrow-green)"/>
<polyline points="447.24,370.23 448.55,371.53 449.86,372.85 451.14,374.18 452.42,375.52 453.68,376.88 454.93,378.25 456.17,379.64 457.39,381.04 458.60,382.45 459.79,383.87 460.98,385.30 462.14,386.75 463.30,388.21 464.44,389.68 465.57,391.16 466.69,392.65 467.79,394.15 468.88,395.66 469.95,397.19 471.01,398.72 472.06,400.26 473.10,401.81 474.12,403.37 475.13,404.94 476.12,406.52 477.11,408.10 " stroke="green" fill="none" marker-end="url(#sat-9)"/>
<polyline points="477.11,408.10 478.08,409.69 479.03,411.30 479.98,412.90 480.91,414.52 481.82,416.14 482.73,417.77 483.62,419.40 484.50,421.04 485.37,422.69 486.23,424.34 487.07,425.99 487.90,427.66 488.72,429.32 489.53,430.99 490.32,432.67 491.11,434.34 491.88,436.03 492.64,437.71 493.39,439.40 494.13,441.09 494.86,442.78 495.57,444.48 496.28,446.17 496.98,447.87 497.66,449.57 498.34,451.27 499.01,452.97 " stroke="green" fill="none" marker-end="url(#arrow-green)"/>
<polyline points="188.04,191.16 186.75,192.67 185.45,194.19 184.14,195.71 182.82,197.22 181.50,198.74 180.17,200.26 178.83,201.78 177.48,203.30 176.13,204.82 174.77,206.34 173.40,207.87 172.03,209.39 170.65,210.91 169.27,212.44 167.88,213.96 166.48,215.49 165.08,217.01 163.67,218.54 162.26,220.07 160.85,221.60 159.43,223.12 158.00,224.65 156.57,226.18 155.14,227.71 153.70,229.25 152.26,230.78 150.82,232.31 149.37,233.85 147.92,235.38 146.47,236.92 145.02,238.46 143.56,239.99 142.10,241.53 140.64,243.07 139.18,244.61 137.71,246.16 136.25,247.70 134.78,249.25 133.31,250.79 131.84,252.34 130.38,253.89 " stroke="green" fill="none" marker-end="url(#sat-10)"/>
<polyline points="130.38,253.89 128.91,255.44 127.44,256.99 125.97,258.55 124.50,260.10 123.03,261.66 121.57,263.22 120.10,264.78 118.64,266.35 117.17,267.91 115.71,269.48 114.25,271.05 112.79,272.63 111.34,274.20 109.88,275.78 108.43,277.37 106.99,278.95 105.54,280.54 104.10,282.13 102.66,283.73 101.23,285.33 99.79,286.93 98.37,288.54 96.95,290.15 95.53,291.76 94.12,293.38 92.71,295.00 91.30,296.63 89.91,298.27 88.52,299.91 87.13,301.55 85.75,303.20 84.38,304.86 83.01,306.52 81.65,308.19 80.30,309.86 78.95,311.54 77.61,313.23 76.28,314.93 74.96,316.63 73.65,318.34 72.34,320.06 71.04,321.78 " stroke="green" fill="none" marker-end="url(#arrow-green)"/>
<polyline points="463.67,461.14 463.37,459.24 463.05,457.34 462.72,455.44 462.38,453.55 462.02,451.65 461.66,449.75 461.29,447.85 460.90,445.95 460.51,444.05 460.11,442.15 459.69,440.25 459.27,438.35 458.84,436.45 458.40,434.55 457.96,432.65 457.50,430.75 457.04,428.85 456.57,426.94 456.10,425.04 455.62,423.14 455.13,421.23 454.64,419.32 454.14,417.42 453.64,415.51 453.13,413.60 452.61,411.69 452.10,409.78 451.57,407.86 451.05,405.95 450.52,404.03 449.98,402.12 449.45,400.20 448.91,398.28 448.37,396.36 447.82,394.44 447.28,392.52 446.73,390.60 446.18,388.67 445.63,386.75 445.08,384.82 444.53,382.89 443.98,380.96 443.42,379.03 442.87,377.10 442.32,375.17 441.77,373.23 441.21,371.30 440.66,369.36 440.12,367.43 439.57,365.49 439.02,363.55 438.48,361.61 437.94,359.67 437.40,357.73 436.86,355.79 436.33,353.85 435.80,351.91 435.27,349.97 434.75,348.03 " stroke="green" fill="none" marker-end="url(#sat-11)"/>
<polyline points="434.75,348.03 434.23,346.08 433.71,344.14 433.20,342.20 432.69,340.26 432.19,338.32 431.69,336.37 431.20,334.43 430.72,332.49 430.23,330.55 429.76,328.62 429.29,326.68 428.83,324.74 428.37,322.80 427.92,320.87 427.48,318.94 427.05,317.01 426.62,315.08 426.20,313.15 425.79,311.22 425.38,309.30 424.99,307.38 424.60,305.46 424.22,303.54 423.85,301.62 423.49,299.71 423.14,297.80 422.80,295.90 422.47,294.00 422.14,292.10 421.83,290.20 421.53,288.31 421.24,286.42 420.95,284.54 420.68,282.66 420.42,280.78 420.18,278.91 419.94,277.04 419.71,275.18 419.50,273.32 419.30,271.47 419.11,269.62 418.93,267.78 418.76,265.94 418.61,264.11 418.47,262.28 418.34,260.47 418.22,258.65 418.12,256.84 418.03,255.04 417.96,253.25 417.90,251.46 417.85,249.68 417.81,247.91 417.79,246.14 417.79,244.38 417.80,242.63 417.82,240.88 417.85,239.14 417.91,237.41 417.97,235.69 418.05,233.98 " stroke="green" fill="none" marker-end="url(#arrow-green)"/>
<polyline points="418.05,233.98 418.15,232.27 418.26,230.58 418.38,228.89 418.52,227.21 418.68,225.54 418.85,223.88 419.04,222.22 419.24,220.58 419.46,218.94 419.70,217.32 419.95,215.70 420.21,214.10 420.49,212.50 420.79,210.92 421.11,209.34 421.44,207.78 421.79,206.22 422.15,204.68 422.53,203.14 422.93,201.62 423.34,200.11 423.77,198.61 424.22,197.12 424.68,195.64 425.16,194.17 " stroke="green" fill="none" marker-end="url(#sat-11)"/>
<polyline points="425.16,194.17 425.66,192.71 426.17,191.27 426.70,189.84 427.25,188.42 427.82,187.01 428.40,185.61 429.00,184.23 429.62,182.86 430.25,181.50 430.90,180.16 431.57,178.82 432.25,177.50 432.96,176.20 433.68,174.90 434.42,173.62 435.17,172.36 435.94,171.11 436.73,169.87 437.54,168.64 438.36,167.43 439.20,166.23 440.06,165.05 440.94,163.88 441.83,162.73 442.74,161.59 443.67,160.47 " stroke="green" fill="none" marker-end="url(#arrow-green)"/>
<polyline points="250.08,350.31 251.71,349.37 253.35,348.46 254.99,347.57 256.65,346.69 258.32,345.84 259.99,345.01 261.68,344.20 263.38,343.41 265.08,342.64 266.79,341.89 268.52,341.17 270.25,340.46 271.98,339.78 273.73,339.12 275.48,338.49 277.24,337.87 279.01,337.28 280.78,336.71 282.56,336.17 284.35,335.65 286.14,335.15 287.94,334.67 289.74,334.22 291.55,333.79 293.36,333.39 295.18,333.01 297.00,332.65 298.83,332.32 300.66,332.01 302.49,331.73 304.32,331.47 306.16,331.23 308.00,331.02 309.84,330.83 311.68,330.67 313.53,330.53 315.37,330.42 317.22,330.33 319.07,330.26 320.92,330.22 322.76,330.21 324.61,330.21 326.46,330.25 328.30,330.30 330.14,330.39 331.99,330.49 333.83,330.62 335.67,330.78 337.50,330.96 339.33,331.16 341.16,331.39 342.99,331.64 344.81,331.92 346.63,332.21 348.44,332.54 350.25,332.89 352.06,333.26 353.86,333.65 355.65,334.07 " stroke="green" fill="none" marker-end="url(#sat-12)"/>
<polyline points="355.65,334.07 357.44,334.51 359.23,334.98 361.00,335.47 362.77,335.98 364.54,336.51 366.29,337.07 368.04,337.65 369.78,338.25 371.52,338.87 373.25,339.52 374.96,340.19 376.67,340.88 378.37,341.59 380.07,342.32 381.75,343.08 383.42,343.86 385.09,344.65 386.74,345.47 388.39,346.31 390.02,347.17 391.65,348.05 393.26,348.95 394.86,349.87 396.45,350.81 398.03,351.76 399.60,352.74 401.16,353.74 402.71,354.75 404.24,355.78 405.77,356.84 407.28,357.91 408.78,358.99 410.26,360.10 411.74,361.22 413.20,362.36 414.65,363.52 416.08,364.69 417.51,365.88 418.91,367.08 420.31,368.30 421.70,369.54 423.07,370.79 424.42,372.06 425.77,373.34 427.10,374.64 428.41,375.95 429.71,377.27 431.00,378.61 432.28,379.96 433.54,381.33 434.79,382.70 436.02,384.10 437.24,385.50 438.44,386.91 439.64,388.34 440.81,389.78 441.98,391.23 443.13,392.69 444.26,394.16 445.38,395.65 446.49,397.14 " stroke="green" fill="none" marker-end="url(#arrow-green)"/>
<polyline points="446.49,397.14 447.58,398.64 448.66,400.15 449.73,401.68 450.78,403.21 451.82,404.75 452.84,406.30 453.85,407.85 454.85,409.42 455.83,410.99 456.80,412.57 457.76,414.16 458.70,415.75 459.63,417.36 460.55,418.96 461.45,420.58 462.34,422.20 463.22,423.82 464.08,425.46 464.93,427.09 465.77,428.73 466.60,430.38 467.41,432.03 468.21,433.68 " stroke="green" fill="none" marker-end="url(#sat-12)"/>
<polyline points="468.21,433.68 469.00,435.34 469.78,437.00 470.54,438.67 471.30,440.34 472.04,442.01 472.77,443.68 473.49,445.36 474.20,447.04 474.90,448.72 475.58,450.40 476.26,452.08 476.93,453.76 477.58,455.45 478.23,457.13 478.86,458.82 479.49,460.50 480.11,462.19 480.72,463.87 481.32,465.56 481.91,467.24 482.49,468.92 483.06,470.60 483.63,472.28 484.19,473.95 484.74,475.63 " stroke="green" fill="none" marker-end="url(#arrow-green)"/>
<polyline points="423.98,272.14 425.38,271.37 426.78,270.61 428.20,269.87 429.63,269.16 431.06,268.47 432.50,267.80 433.96,267.15 435.42,266.52 436.89,265.91 438.36,265.33 439.85,264.77 441.34,264.23 442.85,263.71 444.36,263.21 445.87,262.74 447.40,262.29 448.93,261.86 450.47,261.45 452.01,261.07 453.57,260.71 455.13,260.37 456.69,260.05 458.26,259.76 459.84,259.49 461.42,259.25 463.01,259.02 464.60,258.82 466.20,258.65 467.81,258.49 " stroke="green" fill="none" marker-end="url(#sat-14)"/>
<polyline points="467.81,258.49 469.42,258.36 471.03,258.26 472.65,258.17 474.27,258.11 475.90,258.08 477.53,258.06 479.16,258.07 480.80,258.11 482.44,258.16 484.09,258.24 485.73,258.35 487.38,258.48 489.03,258.63 490.69,258.80 492.34,259.00 494.00,259.22 495.66,259.47 497.32,259.74 498.98,260.03 500.65,260.35 502.31,260.69 503.98,261.05 505.64,261.44 507.31,261.85 508.97,262.29 510.63,262.75 512.30,263.23 513.96,263.73 515.62,264.26 517.28,264.81 " stroke="green" fill="none" marker-end="url(#arrow-green)"/>
<polyline points="251.47,418.93 251.75,420.87 252.02,422.80 252.28,424.73 252.54,426.66 252.79,428.59 253.03,430.52 253.26,432.45 253.48,434.37 253.70,436.29 253.92,438.21 254.12,440.12 254.32,442.04 254.52,443.94 254.71,445.85 254.89,447.75 255.07,449.65 255.24,451.55 255.41,453.44 255.57,455.33 255.73,457.21 255.89,459.09 256.04,460.97 256.19,462.84 256.34,464.71 256.48,466.57 256.62,468.43 256.76,470.28 256.90,472.13 257.03,473.98 257.17,475.81 257.30,477.65 257.43,479.48 257.56,481.30 257.69,483.12 257.82,484.93 257.95,486.74 258.08,488.55 258.21,490.34 258.34,492.14 258.47,493.92 258.60,495.70 258.74,497.48 " stroke="green" fill="none" marker-end="url(#sat-15)"/>
<polyline points="258.74,497.48 258.88,499.25 259.02,501.01 259.16,502.77 259.31,504.52 259.46,506.27 259.62,508.01 259.77,509.74 259.94,511.47 260.10,513.20 260.28,514.91 260.45,516.62 260.64,518.33 260.82,520.03 261.02,521.72 261.22,523.40 261.43,525.08 261.65,526.76 261.87,528.43 262.11,530.09 262.35,531.74 262.60,533.39 262.85,535.03 263.12,536.67 263.40,538.29 263.69,539.92 263.99,541.53 264.30,543.14 264.62,544.74 264.95,546.34 265.29,547.93 265.65,549.51 266.02,551.08 266.40,552.65 266.80,554.21 267.21,555.76 267.63,557.31 268.07,558.84 268.53,560.38 269.00,561.90 269.48,563.41 269.99,564.92 270.50,566.42 271.04,567.91 " stroke="green" fill="none" marker-end="url(#arrow-green)"/>
<polyline points="471.90,287.00 470.72,285.17 469.54,283.34 468.36,281.52 467.18,279.69 466.00,277.87 464.82,276.05 463.64,274.23 462.47,272.41 461.29,270.59 460.12,268.77 458.94,266.95 457.77,265.14 456.60,263.32 455.43,261.51 454.27,259.70 453.11,257.89 451.95,256.08 450.79,254.27 449.64,252.46 448.49,250.65 447.35,248.85 446.21,247.05 445.07,245.25 443.94,243.45 442.82,241.65 441.70,239.85 440.58,238.06 439.47,236.27 438.37,234.48 437.27,232.69 436.18,230.90 435.09,229.12 434.02,227.34 432.95,225.56 431.88,223.78 430.83,222.00 429.78,220.23 428.74,218.46 427.70,216.69 426.68,214.92 425.66,213.16 424.66,211.40 423.66,209.64 422.67,207.89 421.69,206.13 " stroke="green" fill="none" marker-end="url(#sat-16)"/>
<polyline points="421.69,206.13 420.72,204.38 419.76,202.64 418.81,200.89 417.87,199.15 416.94,197.42 416.02,195.68 415.11,193.95 414.22,192.22 413.33,190.50 412.45,188.77 411.59,187.06 410.74,185.34 409.90,183.63 409.07,181.92 408.25,180.22 407.45,178.52 406.66,176.82 405.88,175.13 405.11,173.44 404.36,171.75 403.62,170.07 402.89,168.39 402.18,166.72 401.48,165.05 400.79,163.39 400.12,161.72 399.46,160.07 398.82,158.41 398.19,156.76 397.57,155.12 396.97,153.48 396.38,151.84 395.81,150.21 395.25,148.58 394.71,146.95 394.18,145.34 393.67,143.72 393.17,142.11 392.69,140.50 392.22,138.90 391.77,137.30 391.33,135.71 390.91,134.12 390.50,132.54 390.11,130.96 389.74,129.39 " stroke="green" fill="none" marker-end="url(#arrow-green)"/>
<polyline points="252.05,121.97 250.68,123.25 249.30,124.53 247.91,125.81 246.51,127.09 245.10,128.37 243.68,129.65 242.25,130.92 240.81,132.20 239.36,133.48 237.91,134.76 236.44,136.03 234.97,137.31 233.48,138.59 231.99,139.86 230.49,141.14 228.98,142.41 227.47,143.69 225.94,144.96 224.41,146.24 222.87,147.51 221.32,148.79 219.76,150.06 218.20,151.34 216.63,152.61 215.05,153.88 213.46,155.16 211.87,156.43 210.27,157.70 208.67,158.98 207.06,160.25 205.44,161.52 203.81,162.80 202.18,164.07 200.54,165.34 198.90,166.61 197.25,167.89 195.60,169.16 193.94,170.43 192.28,171.71 190.61,172.98 188.93,174.25 187.25,175.53 185.57,176.80 183.88,178.07 182.19,179.35 180.50,180.62 178.80,181.90 177.10,183.17 175.39,184.45 " stroke="green" fill="none" marker-end="url(#sat-18)"/>
<polyline points="175.39,184.45 173.68,185.73 171.97,187.00 170.25,188.28 168.53,189.56 166.81,190.84 165.09,192.11 163.36,193.39 161.64,194.67 159.91,195.96 158.17,197.24 156.44,198.52 154.71,199.80 152.97,201.09 151.23,202.38 149.50,203.66 147.76,204.95 146.02,206.24 144.28,207.53 142.54,208.83 140.80,210.12 139.06,211.42 137.32,212.71 135.58,214.01 133.84,215.32 132.10,216.62 130.37,217.92 128.63,219.23 126.89,220.54 125.16,221.86 123.43,223.17 121.70,224.49 119.97,225.81 118.24,227.14 116.52,228.46 114.79,229.80 113.07,231.13 111.36,232.47 109.64,233.81 107.93,235.16 106.22,236.51 104.52,237.86 102.81,239.22 101.12,240.58 99.42,241.95 97.73,243.32 96.04,244.70 94.36,246.09 92.68,247.48 91.01,248.87 89.34,250.27 87.67,251.68 " stroke="green" fill="none" marker-end="url(#arrow-green)"/>
<polyline points="267.46,566.76 267.90,565.27 268.31,563.77 268.72,562.26 269.11,560.75 269.49,559.22 269.86,557.69 270.22,556.15 270.56,554.60 270.90,553.04 271.23,551.47 271.54,549.90 271.85,548.32 272.15,546.73 272.44,545.13 272.73,543.53 273.00,541.92 273.27,540.30 273.53,538.68 273.79,537.05 274.04,535.41 274.28,533.77 274.52,532.11 274.76,530.46 274.99,528.79 275.21,527.12 275.44,525.45 275.65,523.76 275.87,522.07 276.08,520.38 276.30,518.68 276.51,516.97 276.71,515.26 276.92,513.54 277.13,511.82 277.33,510.09 277.54,508.36 277.74,506.62 277.95,504.87 278.16,503.12 278.36,501.37 278.57,499.61 278.78,497.85 279.00,496.08 279.21,494.31 279.43,492.53 279.65,490.75 279.88,488.96 280.10,487.17 280.33,485.38 280.57,483.58 280.81,481.78 281.05,479.98 281.30,478.17 281.56,476.36 281.82,474.55 282.08,472.73 282.35,470.91 282.63,469.09 282.92,467.26 283.21,465.43 283.50,463.60 283.81,461.77 284.12,459.94 284.44,458.10 284.77,456.26 285.10,454.43 285.45,452.59 285.80,450.74 286.16,448.90 " stroke="green" fill="none" marker-end="url(#sat-18)"/>
<polyline points="286.16,448.90 286.53,447.06 286.91,445.22 287.30,443.37 287.70,441.53 288.11,439.68 288.53,437.84 288.96,436.00 289.40,434.15 289.85,432.31 290.31,430.47 290.78,428.63 291.26,426.79 291.75,424.96 292.26,423.12 292.78,421.29 293.30,419.46 293.84,417.63 294.40,415.81 294.96,413.99 295.54,412.17 296.13,410.36 296.73,408.55 297.34,406.74 297.97,404.94 298.61,403.14 299.26,401.35 299.93,399.56 300.60,397.78 301.30,396.00 302.00,394.23 302.72,392.47 303.45,390.71 304.20,388.96 304.96,387.21 305.73,385.48 306.52,383.75 307.32,382.02 308.13,380.31 308.96,378.60 309.80,376.91 310.66,375.22 311.53,373.54 312.41,371.87 313.31,370.21 314.22,368.56 315.15,366.92 316.09,365.29 317.04,363.68 318.01,362.07 318.99,360.47 319.99,358.89 321.00,357.32 322.02,355.76 323.06,354.21 324.11,352.68 325.17,351.16 326.25,349.65 327.35,348.15 328.45,346.67 329.57,345.21 330.71,343.76 331.85,342.32 333.01,340.90 334.19,339.49 335.37,338.10 336.57,336.72 337.79,335.36 339.01,334.02 340.25,332.69 341.50,331.38 " stroke="green" fill="none" marker-end="url(#arrow-green)"/>
<polyline points="223.59,515.33 223.70,517.11 223.82,518.89 223.95,520.66 224.10,522.43 224.25,524.19 224.42,525.95 224.60,527.71 224.79,529.46 224.99,531.20 225.21,532.94 225.45,534.68 225.70,536.41 " stroke="green" fill="none" marker-end="url(#sat-20)"/>
<polyline points="225.70,536.41 225.96,538.14 226.24,539.86 226.53,541.58 226.84,543.29 227.17,544.99 227.52,546.70 227.88,548.39 228.26,550.08 228.66,551.77 229.08,553.45 229.51,555.12 229.97,556.79 230.45,558.45 " stroke="green" fill="none" marker-end="url(#arrow-green)"/>
<polyline points="514.32,384.76 513.51,382.89 512.68,381.02 511.84,379.16 511.00,377.30 510.14,375.44 509.28,373.59 508.40,371.74 507.51,369.90 506.62,368.06 505.72,366.23 504.81,364.40 503.89,362.57 502.96,360.74 502.03,358.92 501.09,357.10 500.14,355.28 499.18,353.47 498.22,351.66 497.25,349.85 496.28,348.04 495.30,346.24 494.31,344.44 493.32,342.64 492.32,340.84 491.32,339.04 490.32,337.25 489.31,335.45 488.30,333.66 487.28,331.87 486.26,330.08 485.23,328.30 484.21,326.51 483.18,324.73 482.14,322.94 481.11,321.16 480.07,319.38 479.03,317.60 477.99,315.82 476.94,314.04 475.90,312.26 474.85,310.48 473.81,308.70 472.76,306.93 471.71,305.15 470.67,303.38 469.62,301.60 468.57,299.83 467.52,298.05 466.48,296.28 465.43,294.51 464.39,292.74 463.34,290.97 462.30,289.19 461.26,287.42 460.22,285.65 459.19,283.88 458.15,282.11 457.12,280.35 456.10,278.58 455.07,276.81 454.05,275.04 453.03,273.28 452.02,271.51 451.01,269.75 450.00,267.98 449.00,266.22 448.00,264.46 447.01,262.69 446.02,260.93 445.04,259.17 444.06,257.41 443.09,255.65 " stroke="green" fill="none" marker-end="url(#sat-20)"/>
<polyline points="443.09,255.65 442.12,253.90 441.16,252.14 440.21,250.39 439.26,248.63 438.32,246.88 437.39,245.13 436.46,243.38 435.54,241.63 434.63,239.88 433.73,238.13 432.83,236.39 431.94,234.64 431.06,232.90 430.19,231.16 429.33,229.43 428.48,227.69 427.63,225.96 426.80,224.22 425.97,222.49 425.15,220.76 424.35,219.04 423.55,217.31 422.76,215.59 421.99,213.87 421.22,212.16 420.46,210.44 419.72,208.73 418.99,207.02 418.26,205.31 417.55,203.61 416.85,201.91 416.17,200.21 415.49,198.52 414.83,196.82 414.17,195.13 413.54,193.45 412.91,191.76 412.29,190.08 411.69,188.41 411.10,186.73 410.53,185.06 409.97,183.40 409.42,181.73 408.88,180.07 408.36,178.42 407.85,176.77 407.35,175.12 406.87,173.47 406.41,171.83 405.95,170.20 405.52,168.56 405.09,166.93 404.68,165.31 404.29,163.69 403.91,162.07 403.54,160.46 403.19,158.85 402.86,157.25 402.54,155.65 402.24,154.05 401.95,152.46 401.67,150.88 401.41,149.30 401.17,147.72 400.95,146.15 400.74,144.58 400.54,143.02 400.36,141.47 400.20,139.91 400.05,138.37 399.92,136.83 399.81,135.29 399.71,133.76 " stroke="green" fill="none" marker-end="url(#arrow-green)"/>
<polyline points="261.22,515.43 261.37,517.18 261.52,518.92 261.68,520.66 261.84,522.39 262.01,524.12 262.19,525.84 262.38,527.55 262.58,529.26 262.78,530.96 263.00,532.66 263.22,534.35 263.46,536.04 263.70,537.72 263.96,539.39 264.22,541.06 " stroke="green" fill="none" marker-end="url(#sat-21)"/>
<polyline points="264.22,541.06 264.50,542.72 264.79,544.38 265.10,546.02 265.41,547.67 265.74,549.30 266.08,550.93 266.44,552.55 266.81,554.17 267.20,555.78 267.60,557.38 268.02,558.98 268.46,560.57 268.91,562.15 269.37,563.72 269.86,565.29 270.36,566.84 " stroke="green" fill="none" marker-end="url(#arrow-green)"/>
<polyline points="529.54,346.17 528.47,344.36 527.38,342.56 526.28,340.76 525.18,338.97 524.06,337.18 522.93,335.40 521.80,333.63 520.66,331.86 519.50,330.10 518.34,328.35 517.18,326.60 516.00,324.85 514.82,323.11 513.63,321.38 512.43,319.64 511.22,317.92 510.01,316.19 508.79,314.48 507.57,312.76 506.34,311.05 505.11,309.34 503.87,307.64 502.62,305.94 501.37,304.24 500.11,302.55 498.85,300.85 497.59,299.16 496.32,297.48 495.05,295.79 493.77,294.11 492.49,292.43 491.21,290.76 489.92,289.08 488.63,287.41 487.34,285.74 486.04,284.07 484.75,282.40 483.45,280.74 482.15,279.07 480.85,277.41 479.54,275.75 478.24,274.09 476.93,272.43 475.62,270.78 474.32,269.12 473.01,267.46 471.70,265.81 470.39,264.16 469.08,262.51 467.78,260.86 466.47,259.21 465.16,257.56 463.86,255.91 462.55,254.26 461.25,252.62 459.95,250.97 458.65,249.33 457.35,247.68 456.06,246.04 454.77,244.40 453.48,242.75 452.19,241.11 450.90,239.47 449.62,237.83 448.35,236.19 447.07,234.55 445.80,232.92 " stroke="green" fill="none" marker-end="url(#sat-21)"/>
<polyline points="445.80,232.92 444.54,231.28 443.28,229.64 442.02,228.01 440.77,226.37 439.52,224.74 438.28,223.11 437.04,221.47 435.81,219.84 434.58,218.21 433.36,216.58 432.15,214.95 430.94,213.33 429.74,211.70 428.54,210.07 427.36,208.45 426.18,206.82 425.00,205.20 423.84,203.58 422.68,201.96 421.53,200.34 420.38,198.72 419.25,197.10 418.12,195.48 417.01,193.87 415.90,192.25 414.80,190.64 413.70,189.03 412.62,187.42 411.55,185.81 410.49,184.20 409.43,182.60 408.39,180.99 407.36,179.39 406.33,177.79 405.32,176.19 404.32,174.59 403.33,172.99 402.35,171.40 401.38,169.80 400.42,168.21 399.47,166.62 398.53,165.03 397.61,163.44 396.70,161.86 395.79,160.28 394.91,158.69 394.03,157.11 393.16,155.54 392.31,153.96 391.47,152.39 390.64,150.82 389.83,149.25 389.02,147.68 388.24,146.11 387.46,144.55 386.70,142.99 385.95,141.43 385.21,139.87 384.48,138.31 383.77,136.76 383.08,135.21 382.40,133.66 381.73,132.11 381.07,130.57 380.43,129.03 379.80,127.49 379.19,125.95 378.59,124.42 " stroke="green" fill="none" marker-end="url(#arrow-green)"/>
<polyline points="509.23,277.05 510.83,277.72 512.43,278.41 514.03,279.13 " stroke="green" fill="none" marker-end="url(#sat-22)"/>
<polyline points="514.03,279.13 515.62,279.87 517.21,280.62 518.80,281.41 520.38,282.21 521.96,283.03 " stroke="green" fill="none" marker-end="url(#arrow-green)"/>
<polyline points="328.35,401.60 329.28,403.23 330.21,404.88 331.12,406.53 332.01,408.18 332.90,409.84 333.77,411.51 334.62,413.18 335.46,414.86 336.29,416.54 337.11,418.23 337.91,419.92 338.69,421.61 339.47,423.31 340.23,425.01 340.98,426.72 341.72,428.43 342.44,430.14 343.15,431.85 343.85,433.57 344.54,435.28 345.21,437.00 345.88,438.72 346.53,440.45 347.17,442.17 347.79,443.89 348.41,445.62 349.02,447.34 349.61,449.07 350.20,450.79 350.77,452.52 351.34,454.25 351.89,455.97 352.43,457.69 352.97,459.42 353.49,461.14 354.01,462.86 354.51,464.58 355.01,466.30 355.50,468.01 355.98,469.73 356.45,471.44 356.92,473.15 357.37,474.86 357.82,476.56 358.26,478.27 358.70,479.96 " stroke="green" fill="none" marker-end="url(#sat-24)"/>
<polyline points="358.70,479.96 359.13,481.66 359.55,483.35 359.96,485.04 360.37,486.73 360.78,488.41 361.17,490.09 361.57,491.76 361.96,493.44 362.34,495.10 362.72,496.76 363.09,498.42 363.47,500.07 363.83,501.72 364.20,503.37 364.56,505.00 364.92,506.64 365.28,508.26 365.63,509.89 365.99,511.50 366.34,513.12 366.69,514.72 367.04,516.32 367.39,517.91 367.74,519.50 368.09,521.08 368.44,522.66 368.79,524.23 369.14,525.79 369.49,527.34 369.85,528.89 370.21,530.43 370.57,531.97 370.93,533.50 371.29,535.02 371.66,536.53 372.04,538.03 372.41,539.53 372.80,541.02 373.18,542.50 373.58,543.97 373.97,545.44 374.38,546.90 374.79,548.34 375.21,549.78 375.63,551.21 376.06,552.64 376.50,554.05 376.95,555.45 " stroke="green" fill="none" marker-end="url(#arrow-green)"/>
<polyline points="" stroke="green" fill="none" marker-end="url(#sat-24)"/>
<polyline points="" stroke="green" fill="none" marker-end="url(#arrow-green)"/>
<polyline points="300.78,337.34 302.53,337.94 304.28,338.56 306.03,339.21 307.76,339.87 309.49,340.56 311.21,341.28 312.92,342.01 314.62,342.76 316.31,343.54 318.00,344.34 319.67,345.15 321.34,345.99 322.99,346.85 324.64,347.73 326.27,348.63 327.90,349.55 329.51,350.49 331.11,351.45 332.71,352.42 334.29,353.42 335.86,354.43 337.41,355.47 338.96,356.52 340.49,357.59 342.01,358.68 343.52,359.78 345.02,360.90 346.51,362.04 347.98,363.20 349.44,364.37 350.88,365.56 352.32,366.77 353.73,367.99 355.14,369.22 356.53,370.48 357.91,371.74 359.28,373.02 360.63,374.32 361.97,375.63 363.29,376.95 364.60,378.29 365.89,379.64 367.18,381.01 368.44,382.38 369.69,383.77 370.93,385.17 372.16,386.59 373.37,388.01 374.56,389.45 375.74,390.90 376.91,392.35 378.06,393.82 379.20,395.30 380.32,396.79 381.43,398.29 382.52,399.80 383.60,401.32 384.67,402.85 385.72,404.38 386.75,405.93 387.77,407.48 388.78,409.04 389.77,410.61 390.75,412.18 391.72,413.76 392.67,415.35 " stroke="green" fill="none" marker-end="url(#sat-25)"/>
<polyline points="392.67,415.35 393.60,416.95 394.53,418.55 395.44,420.16 396.33,421.77 397.21,423.39 398.08,425.01 398.94,426.64 399.78,428.28 400.61,429.91 401.42,431.56 402.22,433.20 403.01,434.85 403.79,436.51 404.56,438.17 405.31,439.83 406.05,441.49 406.77,443.16 407.49,444.82 408.19,446.49 408.89,448.17 409.57,449.84 410.24,451.51 410.89,453.19 411.54,454.87 412.18,456.55 412.81,458.22 413.42,459.90 414.03,461.58 414.62,463.26 415.21,464.94 415.79,466.62 416.35,468.29 416.91,469.97 417.46,471.65 418.00,473.32 418.54,474.99 419.06,476.66 419.58,478.33 420.09,480.00 420.59,481.66 421.08,483.32 421.57,484.98 422.05,486.64 422.52,488.29 422.99,489.94 423.45,491.59 423.91,493.23 424.36,494.87 424.81,496.50 425.25,498.13 425.69,499.76 426.12,501.38 426.55,503.00 426.98,504.61 427.40,506.22 427.82,507.82 428.24,509.41 428.65,511.00 429.07,512.59 429.48,514.17 429.89,515.74 430.30,517.31 430.70,518.86 431.11,520.42 431.52,521.96 431.93,523.50 432.34,525.03 432.75,526.56 " stroke="green" fill="none" marker-end="url(#arrow-green)"/>
<polyline points="418.69,185.43 417.53,183.82 416.38,182.22 415.24,180.62 414.11,179.02 412.99,177.42 411.87,175.83 410.77,174.23 409.68,172.64 408.59,171.06 407.51,169.47 406.45,167.89 405.39,166.31 404.35,164.73 403.31,163.15 402.29,161.58 401.27,160.00 400.27,158.44 399.28,156.87 " stroke="green" fill="none" marker-end="url(#sat-26)"/>
<polyline points="399.28,156.87 398.29,155.30 397.32,153.74 396.36,152.18 395.41,150.63 394.48,149.07 393.55,147.52 392.64,145.97 391.74,144.42 390.85,142.88 389.97,141.33 389.10,139.79 388.25,138.26 387.41,136.72 386.58,135.19 385.76,133.66 384.96,132.13 384.17,130.61 383.39,129.09 382.62,127.57 381.87,126.05 " stroke="green" fill="none" marker-end="url(#arrow-green)"/>
<polyline points="82.97,267.99 84.62,267.47 86.28,266.97 87.95,266.49 89.61,266.04 91.27,265.62 92.94,265.21 94.60,264.83 96.27,264.47 97.93,264.14 99.60,263.82 101.26,263.54 102.93,263.27 104.59,263.03 106.25,262.81 107.91,262.62 109.57,262.45 111.23,262.30 112.89,262.18 114.54,262.08 116.19,262.00 117.84,261.95 119.49,261.92 121.13,261.91 122.77,261.93 124.41,261.97 126.04,262.04 127.68,262.12 129.30,262.24 130.92,262.37 132.54,262.53 134.16,262.71 135.77,262.92 137.37,263.14 138.97,263.40 140.56,263.67 " stroke="green" fill="none" marker-end="url(#sat-26)"/>
<polyline points="140.56,263.67 142.15,263.97 143.74,264.29 145.31,264.63 146.89,265.00 148.45,265.39 150.01,265.80 151.56,266.24 153.11,266.69 154.65,267.17 156.18,267.68 157.71,268.20 159.22,268.75 160.73,269.32 162.24,269.91 163.73,270.53 165.22,271.16 166.70,271.82 168.17,272.50 169.63,273.20 171.08,273.92 172.53,274.67 173.96,275.43 175.39,276.22 176.81,277.03 178.22,277.86 179.61,278.70 181.00,279.57 182.38,280.46 183.75,281.38 185.11,282.31 186.46,283.26 187.80,284.23 189.13,285.22 190.44,286.23 191.75,287.26 193.05,288.31 193.16,288.40 " stroke="green" fill="none" marker-end="url(#arrow-green)"/>
<polyline points="193.16,288.40 194.45,289.47 195.72,290.56 196.98,291.66 198.23,292.79 199.47,293.93 200.70,295.10 201.92,296.28 203.13,297.47 204.32,298.69 205.50,299.92 206.67,301.17 207.83,302.44 208.98,303.72 210.11,305.02 211.23,306.34 212.34,307.67 213.44,309.02 214.53,310.38 215.60,311.76 216.66,313.16 217.71,314.57 218.74,315.99 219.77,317.43 220.78,318.89 221.77,320.36 222.76,321.84 223.73,323.33 224.69,324.84 225.64,326.36 226.57,327.90 227.49,329.45 228.40,331.01 229.29,332.58 230.18,334.16 231.05,335.76 231.90,337.37 232.75,338.98 233.58,340.61 234.39,342.25 235.20,343.90 " stroke="green" fill="none" marker-end="url(#sat-26)"/>
<polyline points="235.20,343.90 235.99,345.56 236.77,347.23 237.54,348.91 238.29,350.60 239.03,352.30 239.76,354.01 240.48,355.72 241.18,357.45 241.87,359.18 242.55,360.92 243.21,362.66 243.87,364.42 244.51,366.18 245.14,367.95 245.76,369.72 246.36,371.50 246.95,373.29 247.53,375.08 248.10,376.88 248.66,378.68 249.21,380.49 249.74,382.30 250.26,384.12 250.78,385.94 251.28,387.76 251.77,389.59 252.24,391.42 252.71,393.26 253.17,395.10 253.62,396.94 254.05,398.78 254.48,400.63 254.89,402.47 255.30,404.32 255.69,406.18 256.08,408.03 256.46,409.88 256.82,411.74 257.18,413.60 257.53,415.45 257.56,415.62 " stroke="green" fill="none" marker-end="url(#arrow-green)"/>
<polyline points="198.02,286.91 198.56,288.59 199.08,290.28 199.59,291.98 200.08,293.69 200.56,295.41 201.03,297.14 201.49,298.88 201.93,300.64 202.35,302.40 202.76,304.17 203.16,305.95 203.55,307.74 203.92,309.54 204.28,311.34 204.63,313.16 204.96,314.98 205.29,316.82 205.59,318.65 205.89,320.50 206.17,322.36 206.45,324.22 206.70,326.08 206.95,327.96 207.19,329.84 207.41,331.73 207.62,333.62 207.82,335.52 208.01,337.42 208.19,339.33 208.35,341.25 208.51,343.17 208.65,345.09 208.78,347.02 208.91,348.95 209.02,350.89 209.12,352.83 209.21,354.77 209.30,356.72 209.37,358.67 209.43,360.62 209.49,362.58 209.53,364.53 209.57,366.49 209.59,368.46 209.61,370.42 209.62,372.39 209.62,374.36 209.62,376.32 209.60,378.29 209.58,380.26 209.55,382.24 209.51,384.21 209.47,386.18 209.42,388.15 209.36,390.13 209.29,392.10 209.22,394.07 209.15,396.04 209.07,398.02 208.98,399.99 208.88,401.96 208.79,403.93 208.68,405.89 208.58,407.86 208.46,409.83 208.35,411.79 208.23,413.75 208.10,415.71 207.97,417.67 207.84,419.63 " stroke="green" fill="none" marker-end="url(#sat-28)"/>
<polyline points="207.84,419.63 207.71,421.58 207.57,423.54 207.43,425.49 207.29,427.43 207.15,429.38 207.00,431.32 206.86,433.26 206.71,435.20 206.56,437.13 206.41,439.06 206.26,440.99 206.11,442.92 205.96,444.84 205.81,446.76 205.66,448.68 205.51,450.59 205.37,452.50 205.22,454.41 205.08,456.31 204.94,458.21 204.80,460.11 204.66,462.00 204.53,463.89 204.39,465.78 204.27,467.66 204.14,469.54 204.02,471.42 203.91,473.29 203.80,475.16 203.69,477.02 203.59,478.89 203.50,480.74 203.41,482.60 203.33,484.45 203.26,486.30 203.19,488.14 203.13,489.98 203.07,491.82 203.03,493.65 202.99,495.48 202.96,497.31 202.94,499.13 202.93,500.95 202.93,502.76 202.94,504.57 202.96,506.38 202.99,508.19 203.04,509.99 203.09,511.78 203.15,513.58 203.23,515.37 203.32,517.15 203.43,518.94 203.54,520.72 203.67,522.49 203.82,524.26 203.98,526.03 204.15,527.79 204.34,529.56 204.55,531.31 204.77,533.07 205.01,534.81 205.27,536.56 205.54,538.30 205.83,540.04 206.14,541.77 206.47,543.50 206.82,545.23 207.18,546.95 207.57,548.66 207.98,550.38 " stroke="green" fill="none" marker-end="url(#arrow-green)"/>
<polyline points="232.93,420.92 233.75,419.23 234.57,417.54 235.41,415.86 236.26,414.18 237.13,412.51 238.01,410.85 238.90,409.19 239.81,407.54 240.73,405.90 241.67,404.27 242.62,402.64 243.58,401.02 244.56,399.41 245.55,397.81 246.56,396.21 247.58,394.63 248.61,393.05 249.66,391.49 250.73,389.93 251.80,388.39 252.90,386.86 254.00,385.33 255.12,383.82 256.26,382.32 257.41,380.83 258.57,379.35 259.75,377.89 260.94,376.44 262.14,375.00 263.36,373.57 264.59,372.16 265.84,370.76 267.10,369.37 268.38,368.00 269.66,366.64 270.97,365.30 272.28,363.97 273.61,362.66 274.95,361.36 276.30,360.08 277.67,358.82 279.05,357.57 280.44,356.34 281.85,355.12 283.26,353.92 284.69,352.74 286.14,351.58 287.59,350.43 289.05,349.30 290.53,348.19 292.02,347.10 293.52,346.03 295.03,344.97 296.55,343.94 298.09,342.92 299.63,341.93 301.18,340.95 302.75,340.00 304.32,339.06 305.91,338.14 307.50,337.25 309.10,336.38 310.71,335.52 312.33,334.69 313.96,333.88 315.60,333.09 317.25,332.32 318.90,331.58 320.56,330.85 322.23,330.15 323.91,329.47 325.59,328.81 327.28,328.18 328.98,327.57 330.69,326.98 332.40,326.41 334.11,325.87 335.83,325.35 337.56,324.85 " stroke="green" fill="none" marker-end="url(#sat-29)"/>
<polyline points="337.56,324.85 339.29,324.38 341.03,323.93 342.77,323.50 344.51,323.10 346.26,322.72 348.02,322.36 349.77,322.03 351.53,321.72 353.30,321.44 355.06,321.18 356.83,320.95 358.60,320.73 360.37,320.55 362.15,320.38 363.92,320.25 365.70,320.13 367.47,320.04 369.25,319.98 371.03,319.93 372.81,319.92 374.59,319.92 376.36,319.96 378.14,320.01 379.91,320.09 381.69,320.20 383.46,320.32 385.23,320.48 387.00,320.65 388.77,320.85 390.53,321.08 392.29,321.33 394.05,321.60 395.80,321.90 397.55,322.22 399.30,322.56 401.04,322.93 402.78,323.32 404.51,323.73 406.24,324.17 407.97,324.63 409.68,325.11 411.40,325.62 413.10,326.15 414.81,326.70 416.50,327.28 418.19,327.88 419.87,328.49 421.54,329.14 423.21,329.80 424.87,330.49 426.52,331.20 428.17,331.92 429.81,332.68 431.44,333.45 433.06,334.24 434.67,335.06 436.27,335.89 437.86,336.75 439.45,337.62 441.03,338.52 442.59,339.44 444.15,340.37 445.70,341.33 447.23,342.31 448.76,343.30 450.28,344.32 451.78,345.35 453.28,346.40 454.76,347.47 456.24,348.56 457.70,349.67 459.15,350.79 460.59,351.93 462.02,353.09 463.44,354.27 464.84,355.46 466.24,356.68 467.62,357.90 468.99,359.15 470.35,360.40 471.69,361.68 " stroke="green" fill="none" marker-end="url(#arrow-green)"/>
<polyline points="168.71,215.94 169.49,217.32 170.25,218.72 171.00,220.13 171.73,221.55 172.44,222.99 173.14,224.44 173.83,225.91 174.49,227.39 175.15,228.88 175.78,230.39 176.40,231.91 177.01,233.44 177.60,234.98 178.17,236.54 178.73,238.11 179.27,239.70 179.80,241.29 180.31,242.90 180.81,244.52 181.29,246.15 181.75,247.79 182.21,249.45 182.64,251.11 183.06,252.79 183.47,254.47 183.86,256.17 184.24,257.88 184.60,259.59 184.94,261.32 185.28,263.06 185.60,264.80 185.90,266.56 186.19,268.33 186.47,270.10 186.73,271.88 186.98,273.67 187.21,275.48 187.43,277.28 187.64,279.10 187.83,280.92 188.01,282.76 188.18,284.59 188.33,286.44 188.47,288.29 188.60,290.16 188.72,292.02 188.82,293.90 188.91,295.77 188.99,297.66 189.05,299.55 189.11,301.45 189.15,303.35 189.18,305.26 189.20,307.17 189.21,309.09 189.20,311.01 189.19,312.93 189.16,314.86 189.13,316.80 189.08,318.74 189.02,320.68 188.96,322.62 188.88,324.57 188.79,326.52 188.70,328.47 188.59,330.43 188.48,332.39 188.35,334.35 188.22,336.31 188.08,338.28 187.93,340.24 187.77,342.21 187.60,344.18 187.43,346.15 187.24,348.12 187.05,350.09 186.86,352.07 186.65,354.04 186.44,356.01 " stroke="green" fill="none" marker-end="url(#sat-31)"/>
<polyline points="186.44,356.01 186.22,357.99 186.00,359.96 185.77,361.93 185.53,363.91 185.29,365.88 185.04,367.85 184.78,369.82 184.52,371.79 184.26,373.76 183.99,375.73 183.72,377.70 183.44,379.66 183.15,381.63 182.87,383.59 182.58,385.55 182.28,387.51 181.99,389.47 181.69,391.42 181.39,393.38 181.08,395.33 180.77,397.28 180.46,399.22 180.15,401.17 179.84,403.11 179.53,405.05 179.21,406.99 178.89,408.92 178.58,410.85 178.26,412.78 177.94,414.71 177.63,416.63 177.31,418.55 176.99,420.47 176.68,422.39 176.36,424.30 176.05,426.21 175.74,428.12 175.43,430.02 175.12,431.92 174.82,433.82 174.52,435.71 174.22,437.61 173.92,439.49 173.63,441.38 173.34,443.26 173.06,445.14 172.78,447.02 172.50,448.90 172.23,450.77 171.97,452.64 171.71,454.50 171.45,456.36 171.20,458.22 170.96,460.08 170.72,461.94 170.50,463.79 170.27,465.64 170.06,467.48 169.85,469.33 169.66,471.17 169.47,473.01 169.29,474.85 169.11,476.68 168.95,478.51 168.80,480.34 168.66,482.17 168.53,484.00 168.40,485.82 168.29,487.64 168.19,489.46 168.11,491.27 168.03,493.09 167.97,494.90 167.92,496.71 167.88,498.52 167.86,500.33 167.85,502.13 167.85,503.93 167.87,505.73 167.91,507.53 167.96,509.33 " stroke="green" fill="none" marker-end="url(#arrow-green)"/>
<polyline points="178.13,249.01 177.77,250.80 177.40,252.60 177.02,254.40 176.62,256.21 176.22,258.02 175.80,259.83 175.38,261.65 174.94,263.48 174.49,265.30 174.03,267.14 173.56,268.97 173.08,270.81 172.59,272.65 172.09,274.50 171.58,276.35 171.07,278.20 170.54,280.06 170.00,281.92 169.46,283.78 168.90,285.64 168.34,287.51 167.77,289.38 167.19,291.25 166.60,293.13 166.01,295.00 165.41,296.88 164.80,298.76 164.18,300.65 163.56,302.53 162.93,304.42 162.30,306.31 161.66,308.20 161.01,310.09 160.36,311.99 159.70,313.88 159.04,315.78 158.37,317.67 157.70,319.57 157.02,321.47 156.34,323.37 155.65,325.27 154.96,327.18 154.27,329.08 153.58,330.98 152.88,332.89 152.18,334.79 151.47,336.70 150.77,338.60 150.06,340.51 149.35,342.42 148.64,344.33 147.92,346.23 147.21,348.14 146.49,350.05 145.78,351.96 145.06,353.87 144.35,355.77 143.63,357.68 " stroke="green" fill="none" marker-end="url(#sat-32)"/>
<polyline points="143.63,357.68 142.91,359.59 142.20,361.50 141.49,363.41 140.77,365.32 140.06,367.23 139.35,369.14 138.65,371.05 137.94,372.96 137.24,374.87 136.54,376.78 135.84,378.69 135.15,380.60 134.46,382.51 133.77,384.42 133.09,386.34 132.41,388.25 131.74,390.16 131.07,392.07 130.40,393.99 129.75,395.90 129.09,397.81 128.45,399.73 127.81,401.65 127.17,403.56 126.55,405.48 125.93,407.40 125.32,409.32 124.71,411.24 124.12,413.16 123.53,415.08 122.95,417.01 122.38,418.93 121.83,420.86 121.28,422.79 120.74,424.72 120.21,426.65 119.69,428.58 119.18,430.52 118.68,432.45 118.20,434.39 117.72,436.33 117.26,438.28 116.82,440.22 116.38,442.17 115.96,444.12 115.56,446.08 115.16,448.03 114.79,449.99 114.42,451.95 114.08,453.92 113.74,455.89 113.43,457.86 113.13,459.83 112.85,461.81 112.58,463.79 112.34,465.77 112.11,467.76 111.90,469.75 111.71,471.75 " stroke="green" fill="none" marker-end="url(#arrow-green)"/>
<polyline points="" stroke="green" fill="none" marker-end="url(#sat-32)"/>
<polyline points="" stroke="green" fill="none" marker-end="url(#arrow-green)"/>
</svg>
