<svg xmlns="http://www.w3.org/2000/svg" width="600" height="600">
<style>text { font-family: 'Segoe UI',Arial, sans-serif; fill: #222222; }</style>
<rect width="100%" height="100%" fill="white"/>
<text x="300.0" y="30" text-anchor="middle" font-size="20">Sky Plot of GPS Satellite Trajectories from the rinex.nav</text>
<rect x="1" y="1" width="598" height="598" fill="none" stroke="gray" stroke-width="2" />
<defs>
<marker id="arrow-green" markerWidth="10" markerHeight="10" refX="10" refY="5" orient="auto" markerUnits="strokeWidth">
<path d="M0,0 L10,5 L0,10 Z" fill="green" />
</marker>
<marker id="arrow-yellow" markerWidth="10" markerHeight="10" refX="10" refY="5" orient="auto" markerUnits="strokeWidth">
<path d="M0,0 L10,5 L0,10 Z" fill="yellow" />
</marker>
<marker id="arrow-orange" markerWidth="10" markerHeight="10" refX="10" refY="5" orient="auto" markerUnits="strokeWidth">
<path d="M0,0 L10,5 L0,10 Z" fill="orange" />
</marker>
<marker id="arrow-red" markerWidth="10" markerHeight="10" refX="10" refY="5" orient="auto" markerUnits="strokeWidth">
<path d="M0,0 L10,5 L0,10 Z" fill="red" />
</marker>
</defs>
<defs>
<marker id="sat-3" markerWidth="30" markerHeight="30" refX="23" refY="15" orient="auto" markerUnits="userSpaceOnUse">
  <text x="15" y="12" font-size="14" text-anchor="middle">3</text>
</marker>
<marker id="sat-4" markerWidth="30" markerHeight="30" refX="23" refY="15" orient="auto" markerUnits="userSpaceOnUse">
  <text x="15" y="12" font-size="14" text-anchor="middle">4</text>
</marker>
<marker id="sat-6" markerWidth="30" markerHeight="30" refX="23" refY="15" orient="auto" markerUnits="userSpaceOnUse">
  <text x="15" y="12" font-size="14" text-anchor="middle">6</text>
</marker>
<marker id="sat-7" markerWidth="30" markerHeight="30" refX="23" refY="15" orient="auto" markerUnits="userSpaceOnUse">
  <text x="15" y="12" font-size="14" text-anchor="middle">7</text>
</marker>
<marker id="sat-9" markerWidth="30" markerHeight="30" refX="23" refY="15" orient="auto" markerUnits="userSpaceOnUse">
  <text x="15" y="12" font-size="14" text-anchor="middle">9</text>
</marker>
<marker id="sat-11" markerWidth="30" markerHeight="30" refX="23" refY="15" orient="auto" markerUnits="userSpaceOnUse">
  <text x="15" y="12" font-size="14" text-anchor="middle">11</text>
</marker>
<marker id="sat-16" markerWidth="30" markerHeight="30" refX="23" refY="15" orient="auto" markerUnits="userSpaceOnUse">
  <text x="15" y="12" font-size="14" text-anchor="middle">16</text>
</marker>
<marker id="sat-20" markerWidth="30" markerHeight="30" refX="23" refY="15" orient="auto" markerUnits="userSpaceOnUse">
  <text x="15" y="12" font-size="14" text-anchor="middle">20</text>
</marker>
<marker id="sat-26" markerWidth="30" markerHeight="30" refX="23" refY="15" orient="auto" markerUnits="userSpaceOnUse">
  <text x="15" y="12" font-size="14" text-anchor="middle">26</text>
</marker>
<marker id="sat-29" markerWidth="30" markerHeight="30" refX="23" refY="15" orient="auto" markerUnits="userSpaceOnUse">
  <text x="15" y="12" font-size="14" text-anchor="middle">29</text>
</marker>
<marker id="sat-30" markerWidth="30" markerHeight="30" refX="23" refY="15" orient="auto" markerUnits="userSpaceOnUse">
  <text x="15" y="12" font-size="14" text-anchor="middle">30</text>
</marker>
</defs>
<circle cx="300.0" cy="340.0" r="230.0" stroke="#cccccc" fill="none" />
<circle cx="300.0" cy="340.0" r="217.2" stroke="#cccccc" fill="none" />
<circle cx="300.0" cy="340.0" r="204.4" stroke="#cccccc" fill="none" />
<circle cx="300.0" cy="340.0" r="191.7" stroke="#cccccc" fill="none" />
<circle cx="300.0" cy="340.0" r="153.3" stroke="#cccccc" fill="none" />
<circle cx="300.0" cy="340.0" r="76.7" stroke="#cccccc" fill="none" />
<line x1="70.0" y1="340.0" x2="530.0" y2="340.0" stroke="#cccccc" />
<line x1="300.0" y1="110.0" x2="300.0" y2="570.0" stroke="#cccccc" />
<text x="300.0" y="100.0" font-size="16" text-anchor="middle">N</text>
<text x="545.0" y="340.0" font-size="16" text-anchor="middle">E</text>
<text x="300.0" y="590.0" font-size="16" text-anchor="middle">S</text>
<text x="50.0" y="340.0" font-size="16" text-anchor="middle">W</text>
<text x="302.0" y="163.33333333333334" font-size="14" style="fill:#aaaaaa">15°</text>
<text x="302.0" y="201.66666666666666" font-size="14" style="fill:#aaaaaa">30°</text>
<text x="302.0" y="278.3333333333333" font-size="14" style="fill:#aaaaaa">60°</text>
<rect x="20" y="70" width="20" height="10" fill="green" /><text x="50" y="80" font-size="14" fill="black">fitInterval =  4 h</text>
<rect x="20" y="90" width="20" height="10" fill="yellow" /><text x="50" y="100" font-size="14" fill="black">fitInterval =  6 h</text>
<rect x="20" y="110" width="20" height="10" fill="orange" /><text x="50" y="120" font-size="14" fill="black">fitInterval =  8 h</text>
<rect x="20" y="130" width="20" height="10" fill="red" /><text x="50" y="140" font-size="14" fill="black">fitInterval ≥ 10 h</text>
<polyline points="426.36,394.30 427.45,395.84 428.53,397.39 429.59,398.95 430.64,400.52 431.67,402.09 432.69,403.68 433.70,405.28 434.69,406.88 435.66,408.49 436.62,410.11 437.57,411.74 438.50,413.38 439.42,415.02 440.33,416.67 441.22,418.33 442.09,419.99 442.96,421.66 443.80,423.34 444.64,425.02 445.46,426.71 446.27,428.40 447.07,430.10 447.85,431.80 448.62,433.51 449.37,435.22 450.12,436.93 450.85,438.65 451.57,440.37 452.27,442.09 " stroke="green" fill="none" marker-end="url(#sat-3)"/>
<polyline points="452.27,442.09 452.97,443.82 453.65,445.55 454.32,447.28 454.98,449.01 455.62,450.75 456.26,452.49 456.88,454.22 457.50,455.96 458.10,457.70 458.69,459.44 459.28,461.19 459.85,462.93 460.41,464.67 460.96,466.41 461.51,468.15 462.04,469.89 462.57,471.63 463.08,473.36 463.59,475.10 464.09,476.83 464.58,478.56 465.07,480.29 465.54,482.02 466.01,483.74 466.48,485.47 466.93,487.18 467.38,488.90 467.82,490.61 468.26,492.32 468.69,494.02 469.12,495.72 " stroke="green" fill="none" marker-end="url(#arrow-green)"/>
<polyline points="354.37,319.03 355.92,318.20 357.49,317.40 359.06,316.61 360.65,315.85 362.24,315.11 363.83,314.40 365.44,313.70 367.05,313.03 368.67,312.38 370.30,311.75 371.93,311.15 373.57,310.57 375.21,310.01 376.86,309.48 378.52,308.97 380.18,308.48 381.85,308.01 383.52,307.57 385.19,307.16 386.87,306.76 388.56,306.39 390.25,306.05 391.94,305.72 393.63,305.43 395.33,305.15 397.04,304.90 398.74,304.67 400.45,304.47 402.16,304.29 403.87,304.14 405.58,304.01 407.30,303.91 409.01,303.83 410.73,303.77 412.45,303.74 414.17,303.73 415.89,303.74 417.61,303.78 419.33,303.85 421.05,303.94 422.77,304.05 424.49,304.19 426.20,304.35 427.92,304.53 429.63,304.74 431.35,304.97 433.06,305.23 434.77,305.51 436.47,305.82 438.18,306.14 439.88,306.50 441.57,306.87 443.27,307.27 444.96,307.69 " stroke="green" fill="none" marker-end="url(#sat-4)"/>
<polyline points="444.96,307.69 446.65,308.14 448.33,308.61 450.01,309.10 451.68,309.62 453.35,310.15 455.02,310.72 456.68,311.30 458.33,311.91 459.98,312.54 461.62,313.19 463.26,313.86 464.89,314.56 466.52,315.28 468.13,316.02 469.75,316.78 471.35,317.56 472.95,318.37 474.54,319.19 476.12,320.04 477.70,320.91 479.26,321.80 480.82,322.71 482.37,323.64 483.92,324.59 485.45,325.56 486.98,326.55 488.49,327.56 490.00,328.59 491.50,329.64 492.99,330.71 494.47,331.80 495.94,332.90 497.40,334.03 498.84,335.17 500.28,336.34 501.71,337.52 503.13,338.71 504.54,339.93 505.94,341.16 507.33,342.41 508.70,343.68 510.07,344.96 511.42,346.26 512.77,347.58 514.10,348.91 515.42,350.26 516.73,351.62 518.03,353.00 519.31,354.40 520.58,355.80 521.85,357.23 523.10,358.67 524.34,360.12 525.56,361.58 526.78,363.06 527.98,364.55 " stroke="green" fill="none" marker-end="url(#arrow-green)"/>
<polyline points="208.05,327.61 208.17,329.52 208.28,331.45 208.37,333.38 208.46,335.31 208.53,337.24 208.59,339.19 208.64,341.13 208.68,343.08 208.70,345.03 208.72,346.99 208.73,348.95 208.72,350.91 208.71,352.88 208.68,354.85 208.65,356.82 208.60,358.79 208.55,360.77 208.48,362.74 208.41,364.72 208.33,366.70 208.24,368.68 208.14,370.66 208.03,372.65 207.92,374.63 207.80,376.61 207.66,378.60 207.53,380.58 207.38,382.57 207.23,384.55 207.07,386.54 206.90,388.52 206.73,390.50 206.55,392.49 206.37,394.47 206.18,396.45 205.98,398.43 205.78,400.41 205.58,402.38 205.37,404.36 205.15,406.33 " stroke="green" fill="none" marker-end="url(#sat-6)"/>
<polyline points="205.15,406.33 204.93,408.31 204.71,410.28 204.48,412.24 204.25,414.21 204.02,416.17 203.78,418.14 203.54,420.10 203.30,422.05 203.06,424.01 202.81,425.96 202.57,427.91 202.32,429.86 202.07,431.80 201.81,433.74 201.56,435.68 201.31,437.61 201.06,439.55 200.81,441.48 200.56,443.40 200.30,445.33 200.05,447.25 199.81,449.16 199.56,451.08 199.31,452.99 199.07,454.90 198.83,456.80 198.59,458.70 198.36,460.60 198.13,462.49 197.90,464.38 197.68,466.27 197.46,468.16 197.25,470.04 197.04,471.92 196.83,473.79 196.63,475.66 196.44,477.53 196.25,479.40 196.08,481.26 195.90,483.12 195.89,483.28 " stroke="green" fill="none" marker-end="url(#arrow-green)"/>
<polyline points="195.89,483.28 195.72,485.14 195.57,486.99 195.42,488.84 195.28,490.68 195.14,492.53 195.02,494.37 194.91,496.20 194.80,498.04 194.71,499.87 194.62,501.70 194.55,503.52 194.49,505.34 194.44,507.16 194.40,508.98 194.38,510.79 194.37,512.60 " stroke="green" fill="none" marker-end="url(#sat-6)"/>
<polyline points="194.37,512.60 194.37,514.41 194.38,516.22 194.41,518.02 194.45,519.82 194.51,521.61 194.58,523.41 194.67,525.20 194.78,526.99 194.90,528.77 195.04,530.55 195.19,532.33 195.36,534.11 195.56,535.89 195.77,537.66 196.00,539.42 196.25,541.19 196.52,542.95 196.81,544.71 " stroke="green" fill="none" marker-end="url(#arrow-green)"/>
<polyline points="280.79,529.70 281.06,528.06 281.32,526.41 281.58,524.76 281.83,523.10 282.08,521.44 282.33,519.77 282.57,518.09 282.81,516.42 283.05,514.73 283.28,513.04 283.52,511.35 283.75,509.65 283.98,507.95 284.21,506.24 284.44,504.53 284.67,502.82 284.89,501.10 285.12,499.38 285.35,497.65 285.58,495.92 285.81,494.19 286.04,492.45 286.28,490.71 286.51,488.97 286.75,487.22 286.99,485.47 287.24,483.72 287.48,481.96 287.73,480.21 287.99,478.44 288.24,476.68 288.50,474.92 288.77,473.15 289.04,471.38 289.32,469.61 289.60,467.84 289.88,466.06 290.17,464.28 290.47,462.51 290.78,460.73 291.09,458.95 291.40,457.17 291.72,455.39 292.05,453.61 292.39,451.82 292.74,450.04 293.09,448.26 293.45,446.48 293.81,444.70 294.19,442.92 294.57,441.13 294.97,439.36 295.37,437.58 295.78,435.80 296.20,434.02 296.63,432.25 297.06,430.47 297.51,428.70 297.97,426.93 298.44,425.17 298.91,423.40 299.40,421.64 299.90,419.88 300.40,418.13 300.92,416.38 301.45,414.63 301.99,412.88 302.54,411.14 303.11,409.41 303.68,407.67 304.26,405.95 304.86,404.22 305.47,402.51 306.09,400.79 306.72,399.09 307.36,397.39 308.01,395.69 308.68,394.00 309.36,392.32 " stroke="green" fill="none" marker-end="url(#sat-7)"/>
<polyline points="309.36,392.32 310.05,390.64 310.75,388.97 311.47,387.31 312.20,385.66 312.94,384.01 313.69,382.37 314.45,380.74 315.23,379.12 316.02,377.50 316.82,375.90 317.64,374.30 318.47,372.71 319.31,371.13 320.16,369.57 321.03,368.01 321.91,366.46 322.80,364.92 323.70,363.39 324.62,361.88 325.55,360.37 326.49,358.88 327.45,357.40 328.42,355.93 329.40,354.47 330.39,353.02 331.40,351.59 332.42,350.17 333.45,348.76 334.50,347.37 335.55,345.99 336.62,344.62 337.70,343.27 338.80,341.93 339.90,340.60 341.02,339.29 342.15,338.00 343.30,336.72 344.45,335.45 345.62,334.20 346.80,332.97 347.99,331.75 349.19,330.55 350.41,329.36 351.63,328.19 352.87,327.04 354.12,325.90 355.38,324.78 356.65,323.68 357.93,322.59 359.22,321.53 360.53,320.48 361.84,319.45 363.17,318.43 364.50,317.44 365.85,316.46 367.20,315.50 368.57,314.57 369.95,313.65 371.33,312.74 372.73,311.86 374.13,311.00 375.55,310.16 376.97,309.34 378.40,308.53 379.84,307.75 381.29,306.99 382.75,306.25 384.22,305.52 385.70,304.82 387.18,304.14 388.67,303.48 390.17,302.84 391.68,302.23 393.19,301.63 394.71,301.06 396.24,300.50 397.78,299.97 399.32,299.46 400.87,298.97 402.42,298.50 403.98,298.06 " stroke="green" fill="none" marker-end="url(#arrow-green)"/>
<polyline points="244.08,369.04 245.45,367.78 246.84,366.53 248.23,365.30 249.64,364.09 251.06,362.89 252.49,361.70 253.94,360.54 255.40,359.39 256.87,358.26 258.35,357.14 259.84,356.05 261.35,354.97 262.87,353.91 264.40,352.87 265.94,351.84 267.49,350.84 269.05,349.85 270.62,348.89 272.20,347.94 273.79,347.02 275.40,346.11 277.01,345.22 278.63,344.36 280.26,343.51 281.90,342.69 283.55,341.88 285.21,341.10 286.87,340.34 288.55,339.60 290.23,338.88 291.92,338.18 293.62,337.51 295.32,336.85 297.03,336.22 298.75,335.61 300.48,335.03 302.21,334.47 303.94,333.92 305.69,333.41 307.44,332.91 309.19,332.44 310.95,331.99 312.71,331.56 314.48,331.16 316.25,330.78 318.03,330.43 319.80,330.10 321.59,329.79 323.37,329.50 325.16,329.24 326.95,329.01 328.74,328.79 330.54,328.60 332.33,328.44 334.13,328.30 335.93,328.18 337.73,328.09 339.53,328.02 341.33,327.97 343.13,327.95 344.93,327.96 346.73,327.98 348.53,328.03 350.32,328.11 352.12,328.21 353.91,328.33 355.70,328.48 357.49,328.65 359.28,328.84 361.06,329.06 362.85,329.30 364.62,329.57 366.40,329.86 368.17,330.17 369.93,330.51 371.69,330.87 373.45,331.25 375.20,331.66 376.95,332.09 " stroke="green" fill="none" marker-end="url(#sat-9)"/>
<polyline points="376.95,332.09 378.69,332.54 380.43,333.01 382.16,333.51 383.88,334.03 385.60,334.57 387.31,335.14 389.01,335.72 390.71,336.33 392.40,336.96 394.08,337.62 395.75,338.29 397.42,338.99 399.08,339.70 400.73,340.44 402.37,341.20 404.00,341.98 405.62,342.78 407.24,343.60 408.84,344.45 410.44,345.31 412.02,346.19 413.60,347.09 415.16,348.01 416.72,348.95 418.26,349.91 419.80,350.89 421.32,351.89 422.83,352.90 424.34,353.94 425.83,354.99 427.31,356.06 428.77,357.14 430.23,358.25 431.67,359.37 433.11,360.51 434.53,361.67 435.93,362.84 437.33,364.03 438.71,365.23 440.09,366.45 441.45,367.69 442.79,368.94 444.13,370.20 445.45,371.48 446.76,372.78 448.05,374.09 449.33,375.41 450.60,376.75 451.86,378.10 453.10,379.46 454.34,380.84 455.55,382.23 456.76,383.63 457.95,385.05 459.13,386.47 460.29,387.91 461.44,389.36 462.58,390.82 463.71,392.30 464.82,393.78 465.92,395.27 467.00,396.77 468.07,398.29 469.13,399.81 470.18,401.34 471.21,402.88 472.23,404.43 473.24,405.99 474.23,407.56 475.21,409.13 476.18,410.71 477.14,412.30 478.08,413.90 479.01,415.50 479.92,417.11 480.83,418.73 481.72,420.35 482.60,421.98 483.47,423.62 484.32,425.26 485.17,426.90 " stroke="green" fill="none" marker-end="url(#arrow-green)"/>
<polyline points="181.39,230.94 181.69,232.57 181.98,234.22 182.25,235.87 182.51,237.54 182.75,239.21 182.98,240.89 183.19,242.59 183.39,244.29 183.57,246.00 183.73,247.72 183.89,249.45 184.02,251.19 184.15,252.94 184.26,254.69 184.35,256.46 184.43,258.23 184.50,260.01 184.55,261.80 184.59,263.59 184.61,265.39 184.63,267.20 184.63,269.02 184.61,270.84 184.58,272.67 184.54,274.51 184.49,276.36 184.42,278.21 184.34,280.06 184.25,281.92 184.15,283.79 184.04,285.66 183.91,287.54 183.77,289.43 183.62,291.32 183.46,293.21 183.29,295.11 183.11,297.01 182.91,298.92 182.71,300.84 182.49,302.75 182.27,304.67 182.03,306.60 181.79,308.52 181.53,310.46 181.27,312.39 181.00,314.33 180.71,316.27 180.42,318.21 180.12,320.16 179.81,322.11 179.50,324.06 179.17,326.01 178.84,327.97 178.50,329.92 178.15,331.88 177.80,333.84 177.43,335.81 177.07,337.77 176.69,339.73 176.31,341.70 175.92,343.66 175.53,345.63 175.13,347.60 174.72,349.57 174.31,351.54 173.90,353.50 173.48,355.47 173.05,357.44 172.62,359.41 172.19,361.38 171.76,363.35 171.31,365.32 170.87,367.28 " stroke="green" fill="none" marker-end="url(#sat-11)"/>
<polyline points="170.87,367.28 170.42,369.25 169.98,371.22 169.52,373.18 169.07,375.15 168.61,377.11 168.15,379.07 167.69,381.04 167.23,383.00 166.77,384.96 166.30,386.91 165.84,388.87 165.37,390.83 164.91,392.78 164.44,394.73 163.98,396.68 163.51,398.63 163.05,400.58 162.59,402.53 162.13,404.47 161.67,406.42 161.21,408.36 160.76,410.30 160.30,412.24 159.85,414.18 159.41,416.11 158.96,418.04 158.52,419.98 158.09,421.91 157.65,423.83 157.23,425.76 156.80,427.69 156.39,429.61 155.97,431.53 155.56,433.45 155.16,435.37 154.77,437.29 154.38,439.21 154.00,441.12 153.62,443.03 153.25,444.95 152.89,446.86 152.54,448.77 152.20,450.67 151.86,452.58 151.53,454.49 151.22,456.39 150.91,458.30 150.61,460.20 150.32,462.10 150.05,464.00 149.78,465.90 149.52,467.80 149.28,469.70 149.05,471.60 148.83,473.50 148.62,475.39 148.43,477.29 148.25,479.19 148.09,481.08 147.93,482.98 147.80,484.87 147.67,486.77 147.57,488.66 147.48,490.56 147.40,492.45 147.34,494.34 147.30,496.24 147.28,498.13 147.27,500.03 147.28,501.92 147.31,503.81 147.36,505.71 147.43,507.60 147.52,509.50 147.63,511.39 " stroke="green" fill="none" marker-end="url(#arrow-green)"/>
<polyline points="516.37,354.97 515.36,353.08 514.34,351.19 513.31,349.30 512.27,347.41 511.22,345.53 510.16,343.66 509.10,341.78 508.02,339.92 506.94,338.05 505.85,336.19 504.75,334.33 503.64,332.47 502.53,330.62 501.41,328.77 500.28,326.92 499.15,325.07 498.01,323.23 496.87,321.39 495.72,319.55 494.56,317.71 493.40,315.87 492.23,314.04 491.06,312.21 489.88,310.38 488.70,308.55 487.52,306.73 486.33,304.90 485.14,303.08 483.95,301.26 482.75,299.44 481.55,297.62 480.35,295.80 479.14,293.99 477.94,292.17 476.73,290.36 475.52,288.54 474.30,286.73 473.09,284.92 471.88,283.11 470.66,281.31 469.45,279.50 468.23,277.69 467.01,275.89 465.80,274.09 464.58,272.28 463.37,270.48 462.16,268.68 460.94,266.88 459.73,265.09 458.52,263.29 457.32,261.49 456.11,259.70 454.91,257.91 453.71,256.11 452.51,254.32 451.32,252.53 450.13,250.75 448.94,248.96 447.76,247.18 446.58,245.39 445.40,243.61 444.23,241.83 443.07,240.05 441.91,238.27 " stroke="green" fill="none" marker-end="url(#sat-16)"/>
<polyline points="441.91,238.27 440.75,236.50 439.60,234.72 438.46,232.95 437.32,231.18 436.18,229.41 435.06,227.65 433.94,225.88 432.83,224.12 431.72,222.36 430.62,220.60 429.53,218.85 428.45,217.09 427.37,215.34 426.31,213.59 425.25,211.84 424.20,210.10 423.15,208.36 422.12,206.62 421.10,204.88 420.08,203.15 419.08,201.42 418.08,199.69 417.10,197.96 416.12,196.24 415.16,194.52 414.21,192.80 413.26,191.09 412.33,189.38 411.41,187.67 410.50,185.97 409.60,184.27 408.72,182.57 407.84,180.87 406.98,179.18 406.13,177.49 405.29,175.81 404.46,174.13 403.65,172.45 402.85,170.78 402.06,169.10 401.28,167.44 400.52,165.77 399.77,164.11 399.04,162.46 398.32,160.81 397.61,159.16 396.92,157.51 396.24,155.87 395.57,154.23 394.92,152.60 394.28,150.97 393.66,149.35 393.05,147.72 392.46,146.11 391.88,144.49 391.32,142.88 390.77,141.28 390.23,139.68 389.72,138.08 389.21,136.49 388.72,134.90 388.25,133.32 387.80,131.74 387.35,130.16 386.93,128.59 386.52,127.02 " stroke="green" fill="none" marker-end="url(#arrow-green)"/>
<polyline points="105.18,228.51 106.80,228.52 108.41,228.55 110.02,228.61 111.62,228.69 113.22,228.79 114.81,228.91 116.39,229.06 117.96,229.23 119.53,229.43 121.09,229.65 122.64,229.89 124.19,230.15 125.73,230.44 127.26,230.75 128.78,231.08 130.29,231.44 131.80,231.82 133.30,232.22 134.78,232.64 136.26,233.08 137.73,233.55 139.19,234.04 140.65,234.55 142.09,235.09 143.52,235.64 144.95,236.22 146.36,236.82 147.76,237.44 149.16,238.08 150.54,238.74 151.91,239.43 153.27,240.14 154.62,240.86 155.96,241.61 157.29,242.38 158.61,243.17 159.92,243.98 161.22,244.81 162.50,245.66 163.78,246.53 165.04,247.42 166.29,248.33 167.53,249.26 168.75,250.21 169.97,251.18 171.17,252.17 172.36,253.18 173.54,254.21 174.70,255.25 175.86,256.32 177.00,257.40 178.13,258.50 179.24,259.62 180.35,260.76 181.44,261.92 182.51,263.10 183.58,264.29 184.63,265.50 185.67,266.73 186.70,267.97 187.71,269.24 188.71,270.52 189.69,271.81 190.67,273.13 191.63,274.46 192.57,275.80 193.51,277.16 194.43,278.54 195.33,279.93 196.23,281.34 197.11,282.77 197.97,284.21 198.83,285.66 199.67,287.13 200.49,288.62 201.31,290.12 202.10,291.63 202.89,293.16 203.66,294.70 " stroke="green" fill="none" marker-end="url(#sat-20)"/>
<polyline points="203.66,294.70 204.42,296.25 205.17,297.82 205.90,299.40 206.62,300.99 207.32,302.60 208.01,304.22 208.69,305.85 209.36,307.50 210.01,309.15 210.65,310.82 211.27,312.50 211.88,314.19 212.48,315.89 213.07,317.60 213.64,319.32 214.20,321.06 214.75,322.80 215.28,324.55 215.80,326.31 216.31,328.09 216.81,329.87 217.29,331.66 217.76,333.46 218.22,335.26 218.67,337.08 219.10,338.90 219.53,340.73 219.94,342.57 220.33,344.42 220.72,346.27 221.10,348.13 221.46,350.00 221.81,351.87 222.15,353.75 222.48,355.63 222.80,357.52 223.11,359.42 223.40,361.32 223.69,363.23 223.96,365.14 224.23,367.05 224.48,368.97 224.73,370.89 224.96,372.82 225.19,374.75 225.40,376.68 225.61,378.62 225.80,380.56 225.99,382.50 226.17,384.45 226.34,386.39 226.50,388.34 226.65,390.29 226.79,392.24 226.93,394.20 227.06,396.15 227.18,398.11 227.29,400.06 227.39,402.02 227.49,403.98 227.58,405.94 227.67,407.89 227.74,409.85 227.82,411.81 227.88,413.77 227.94,415.72 227.99,417.68 228.04,419.63 228.09,421.59 228.12,423.54 228.16,425.49 228.19,427.44 228.21,429.39 228.23,431.34 228.25,433.28 228.26,435.22 228.27,437.16 228.27,439.10 228.28,441.04 228.28,442.97 228.28,444.90 " stroke="green" fill="none" marker-end="url(#arrow-green)"/>
<polyline points="473.43,255.70 472.09,254.03 470.75,252.36 469.40,250.69 468.06,249.02 466.72,247.36 465.38,245.69 464.04,244.03 462.71,242.37 461.37,240.71 460.04,239.06 458.70,237.40 457.37,235.75 456.04,234.10 454.71,232.45 453.39,230.80 452.07,229.16 450.75,227.51 449.43,225.87 448.12,224.23 446.81,222.59 445.51,220.95 444.21,219.32 442.91,217.68 441.62,216.05 440.33,214.42 439.05,212.79 437.77,211.16 436.50,209.54 435.23,207.92 433.97,206.29 432.71,204.67 431.46,203.06 430.22,201.44 428.98,199.83 427.75,198.21 426.53,196.60 425.31,194.99 424.10,193.39 422.90,191.78 421.71,190.18 " stroke="green" fill="none" marker-end="url(#sat-26)"/>
<polyline points="421.71,190.18 420.52,188.58 419.34,186.98 418.17,185.38 417.01,183.78 415.85,182.19 414.71,180.60 413.57,179.01 412.44,177.42 411.32,175.84 410.21,174.25 409.11,172.67 408.02,171.09 406.94,169.52 405.86,167.94 404.80,166.37 403.75,164.80 402.71,163.23 401.68,161.67 400.66,160.10 399.65,158.54 398.65,156.98 397.66,155.42 396.68,153.87 395.72,152.32 394.76,150.77 393.82,149.22 392.89,147.67 391.97,146.13 391.06,144.59 390.16,143.05 389.28,141.51 388.41,139.98 387.55,138.45 386.70,136.92 385.86,135.39 385.04,133.87 384.23,132.35 383.43,130.83 382.65,129.31 381.88,127.80 381.12,126.28 380.37,124.77 " stroke="green" fill="none" marker-end="url(#arrow-green)"/>
<polyline points="306.26,110.19 304.36,110.92 302.44,111.66 300.53,112.39 298.61,113.13 296.68,113.86 294.75,114.59 292.81,115.32 290.87,116.05 288.92,116.78 286.97,117.51 285.02,118.24 283.06,118.96 281.09,119.69 279.12,120.41 277.15,121.13 275.17,121.85 273.18,122.57 271.20,123.29 269.21,124.01 267.21,124.73 265.21,125.45 263.21,126.16 261.20,126.88 259.19,127.59 257.17,128.31 255.16,129.02 253.14,129.73 251.11,130.44 249.08,131.15 247.05,131.86 245.02,132.57 242.98,133.27 240.94,133.98 238.90,134.69 236.86,135.39 234.81,136.10 232.76,136.80 " stroke="green" fill="none" marker-end="url(#sat-29)"/>
<polyline points="232.76,136.80 230.71,137.50 228.66,138.21 226.60,138.91 224.55,139.61 222.49,140.31 220.43,141.02 218.37,141.72 216.30,142.42 214.24,143.12 212.17,143.82 210.11,144.52 208.04,145.22 205.97,145.92 203.90,146.62 201.83,147.32 199.76,148.02 197.69,148.72 195.62,149.42 193.55,150.12 191.48,150.82 189.41,151.53 187.34,152.23 185.27,152.93 183.20,153.64 181.13,154.34 179.06,155.05 176.99,155.75 174.92,156.46 172.86,157.17 170.79,157.88 168.73,158.59 166.66,159.31 164.60,160.02 162.54,160.74 160.48,161.46 158.42,162.18 156.36,162.90 154.30,163.63 152.25,164.36 " stroke="green" fill="none" marker-end="url(#arrow-green)"/>
<polyline points="216.85,553.96 217.33,552.52 217.81,551.08 218.27,549.62 218.73,548.15 219.18,546.68 219.62,545.20 220.06,543.71 220.49,542.21 220.91,540.70 221.33,539.19 221.74,537.66 222.15,536.13 222.55,534.60 222.95,533.05 223.35,531.50 223.74,529.94 224.13,528.37 224.51,526.80 224.90,525.22 225.28,523.64 225.66,522.05 226.04,520.45 226.41,518.85 226.79,517.24 227.17,515.62 227.54,514.00 227.92,512.38 228.30,510.75 228.68,509.11 229.05,507.47 229.44,505.83 229.82,504.18 230.20,502.52 230.59,500.87 230.98,499.20 231.37,497.54 231.77,495.87 232.17,494.19 232.57,492.52 232.98,490.84 233.39,489.15 233.81,487.46 234.23,485.77 234.65,484.08 235.09,482.39 235.52,480.69 235.97,478.99 236.42,477.29 236.87,475.58 237.34,473.88 237.80,472.17 238.28,470.46 238.76,468.75 239.26,467.04 239.75,465.33 240.26,463.62 240.78,461.90 241.30,460.19 241.83,458.48 242.37,456.76 242.92,455.05 243.48,453.34 244.05,451.63 244.63,449.91 245.21,448.20 245.81,446.50 246.42,444.79 247.04,443.08 247.66,441.38 248.30,439.68 " stroke="green" fill="none" marker-end="url(#sat-30)"/>
<polyline points="248.30,439.68 248.95,437.98 249.61,436.28 250.28,434.59 250.96,432.90 251.66,431.21 252.36,429.53 253.08,427.84 253.80,426.17 254.54,424.49 255.29,422.83 256.05,421.16 256.83,419.50 257.62,417.85 258.42,416.20 259.23,414.56 260.05,412.92 260.89,411.29 261.74,409.66 262.60,408.05 263.47,406.43 264.36,404.83 265.26,403.23 266.17,401.64 267.09,400.06 268.03,398.49 268.98,396.92 269.95,395.36 270.92,393.81 271.91,392.27 272.92,390.74 273.93,389.22 274.96,387.71 276.00,386.21 277.06,384.72 278.12,383.24 279.21,381.77 280.30,380.31 281.41,378.87 282.53,377.43 283.66,376.01 284.80,374.60 285.96,373.20 287.13,371.81 288.32,370.44 289.51,369.08 290.72,367.73 291.94,366.40 293.17,365.08 294.42,363.77 295.68,362.48 296.95,361.21 298.23,359.95 299.52,358.70 300.83,357.47 302.15,356.25 303.48,355.05 304.82,353.87 306.17,352.70 307.53,351.55 308.91,350.41 310.29,349.30 311.69,348.19 313.10,347.11 314.52,346.05 315.95,345.00 317.38,343.97 318.83,342.95 320.29,341.96 321.76,340.99 323.24,340.03 324.73,339.09 326.22,338.17 " stroke="green" fill="none" marker-end="url(#arrow-green)"/>
</svg>
