<svg xmlns="http://www.w3.org/2000/svg" width="600" height="600">
<style>text { font-family: 'Segoe UI',Arial, sans-serif; fill: #222222; }</style>
<rect width="100%" height="100%" fill="white"/>
<text x="300.0" y="30" text-anchor="middle" font-size="20">Sky Plot of GPS Satellite Trajectories from the rinex.nav</text>
<rect x="1" y="1" width="598" height="598" fill="none" stroke="gray" stroke-width="2" />
<defs>
<marker id="arrow-green" markerWidth="10" markerHeight="10" refX="10" refY="5" orient="auto" markerUnits="strokeWidth">
<path d="M0,0 L10,5 L0,10 Z" fill="green" />
</marker>
<marker id="arrow-yellow" markerWidth="10" markerHeight="10" refX="10" refY="5" orient="auto" markerUnits="strokeWidth">
<path d="M0,0 L10,5 L0,10 Z" fill="yellow" />
</marker>
<marker id="arrow-orange" markerWidth="10" markerHeight="10" refX="10" refY="5" orient="auto" markerUnits="strokeWidth">
<path d="M0,0 L10,5 L0,10 Z" fill="orange" />
</marker>
<marker id="arrow-red" markerWidth="10" markerHeight="10" refX="10" refY="5" orient="auto" markerUnits="strokeWidth">
<path d="M0,0 L10,5 L0,10 Z" fill="red" />
</marker>
</defs>
<defs>
<marker id="sat-1" markerWidth="30" markerHeight="30" refX="23" refY="15" orient="auto" markerUnits="userSpaceOnUse">
  <text x="15" y="13" font-size="14" text-anchor="middle">1</text>
</marker>
<marker id="sat-4" markerWidth="30" markerHeight="30" refX="23" refY="15" orient="auto" markerUnits="userSpaceOnUse">
  <text x="15" y="13" font-size="14" text-anchor="middle">4</text>
</marker>
<marker id="sat-5" markerWidth="30" markerHeight="30" refX="23" refY="15" orient="auto" markerUnits="userSpaceOnUse">
  <text x="15" y="13" font-size="14" text-anchor="middle">5</text>
</marker>
<marker id="sat-6" markerWidth="30" markerHeight="30" refX="23" refY="15" orient="auto" markerUnits="userSpaceOnUse">
  <text x="15" y="13" font-size="14" text-anchor="middle">6</text>
</marker>
<marker id="sat-7" markerWidth="30" markerHeight="30" refX="23" refY="15" orient="auto" markerUnits="userSpaceOnUse">
  <text x="15" y="13" font-size="14" text-anchor="middle">7</text>
</marker>
<marker id="sat-9" markerWidth="30" markerHeight="30" refX="23" refY="15" orient="auto" markerUnits="userSpaceOnUse">
  <text x="15" y="13" font-size="14" text-anchor="middle">9</text>
</marker>
<marker id="sat-10" markerWidth="30" markerHeight="30" refX="23" refY="15" orient="auto" markerUnits="userSpaceOnUse">
  <text x="15" y="13" font-size="14" text-anchor="middle">10</text>
</marker>
<marker id="sat-11" markerWidth="30" markerHeight="30" refX="23" refY="15" orient="auto" markerUnits="userSpaceOnUse">
  <text x="15" y="13" font-size="14" text-anchor="middle">11</text>
</marker>
<marker id="sat-12" markerWidth="30" markerHeight="30" refX="23" refY="15" orient="auto" markerUnits="userSpaceOnUse">
  <text x="15" y="13" font-size="14" text-anchor="middle">12</text>
</marker>
<marker id="sat-14" markerWidth="30" markerHeight="30" refX="23" refY="15" orient="auto" markerUnits="userSpaceOnUse">
  <text x="15" y="13" font-size="14" text-anchor="middle">14</text>
</marker>
<marker id="sat-15" markerWidth="30" markerHeight="30" refX="23" refY="15" orient="auto" markerUnits="userSpaceOnUse">
  <text x="15" y="13" font-size="14" text-anchor="middle">15</text>
</marker>
<marker id="sat-16" markerWidth="30" markerHeight="30" refX="23" refY="15" orient="auto" markerUnits="userSpaceOnUse">
  <text x="15" y="13" font-size="14" text-anchor="middle">16</text>
</marker>
<marker id="sat-18" markerWidth="30" markerHeight="30" refX="23" refY="15" orient="auto" markerUnits="userSpaceOnUse">
  <text x="15" y="13" font-size="14" text-anchor="middle">18</text>
</marker>
<marker id="sat-20" markerWidth="30" markerHeight="30" refX="23" refY="15" orient="auto" markerUnits="userSpaceOnUse">
  <text x="15" y="13" font-size="14" text-anchor="middle">20</text>
</marker>
<marker id="sat-21" markerWidth="30" markerHeight="30" refX="23" refY="15" orient="auto" markerUnits="userSpaceOnUse">
  <text x="15" y="13" font-size="14" text-anchor="middle">21</text>
</marker>
<marker id="sat-22" markerWidth="30" markerHeight="30" refX="23" refY="15" orient="auto" markerUnits="userSpaceOnUse">
  <text x="15" y="13" font-size="14" text-anchor="middle">22</text>
</marker>
<marker id="sat-24" markerWidth="30" markerHeight="30" refX="23" refY="15" orient="auto" markerUnits="userSpaceOnUse">
  <text x="15" y="13" font-size="14" text-anchor="middle">24</text>
</marker>
<marker id="sat-25" markerWidth="30" markerHeight="30" refX="23" refY="15" orient="auto" markerUnits="userSpaceOnUse">
  <text x="15" y="13" font-size="14" text-anchor="middle">25</text>
</marker>
<marker id="sat-26" markerWidth="30" markerHeight="30" refX="23" refY="15" orient="auto" markerUnits="userSpaceOnUse">
  <text x="15" y="13" font-size="14" text-anchor="middle">26</text>
</marker>
<marker id="sat-28" markerWidth="30" markerHeight="30" refX="23" refY="15" orient="auto" markerUnits="userSpaceOnUse">
  <text x="15" y="13" font-size="14" text-anchor="middle">28</text>
</marker>
<marker id="sat-29" markerWidth="30" markerHeight="30" refX="23" refY="15" orient="auto" markerUnits="userSpaceOnUse">
  <text x="15" y="13" font-size="14" text-anchor="middle">29</text>
</marker>
<marker id="sat-31" markerWidth="30" markerHeight="30" refX="23" refY="15" orient="auto" markerUnits="userSpaceOnUse">
  <text x="15" y="13" font-size="14" text-anchor="middle">31</text>
</marker>
<marker id="sat-32" markerWidth="30" markerHeight="30" refX="23" refY="15" orient="auto" markerUnits="userSpaceOnUse">
  <text x="15" y="13" font-size="14" text-anchor="middle">32</text>
</marker>
</defs>
<circle cx="300.0" cy="330.0" r="240.0" stroke="#cccccc" fill="none" />
<circle cx="300.0" cy="330.0" r="226.7" stroke="#cccccc" fill="none" />
<circle cx="300.0" cy="330.0" r="213.3" stroke="#cccccc" fill="none" />
<circle cx="300.0" cy="330.0" r="200.0" stroke="#cccccc" fill="none" />
<circle cx="300.0" cy="330.0" r="160.0" stroke="#cccccc" fill="none" />
<circle cx="300.0" cy="330.0" r="80.0" stroke="#cccccc" fill="none" />
<line x1="60.0" y1="330.0" x2="540.0" y2="330.0" stroke="#cccccc" />
<line x1="300.0" y1="90.0" x2="300.0" y2="570.0" stroke="#cccccc" />
<text x="300.0" y="80.0" font-size="16" text-anchor="middle">N</text>
<text x="555.0" y="330.0" font-size="16" text-anchor="middle">E</text>
<text x="300.0" y="590.0" font-size="16" text-anchor="middle">S</text>
<text x="40.0" y="330.0" font-size="16" text-anchor="middle">W</text>
<text x="302.0" y="145.0" font-size="14" fill="#666666">15°</text>
<text x="302.0" y="185.0" font-size="14" fill="#666666">30°</text>
<text x="302.0" y="265.0" font-size="14" fill="#666666">60°</text>
<rect x="20" y="50" width="20" height="10" fill="green" /><text x="50" y="60" font-size="14" fill="black">fitInterval = 4 h</text>
<rect x="20" y="75" width="20" height="10" fill="yellow" /><text x="50" y="85" font-size="14" fill="black">fitInterval = 6 h</text>
<rect x="20" y="100" width="20" height="10" fill="orange" /><text x="50" y="110" font-size="14" fill="black">fitInterval = 8 h</text>
<rect x="20" y="125" width="20" height="10" fill="red" /><text x="50" y="135" font-size="14" fill="black">fitInterval ≥ 10 h</text>
<polyline points="456.15,163.39 454.15,162.34 452.14,161.30 450.14,160.26 448.13,159.22 446.13,158.19 444.12,157.15 442.11,156.12 440.10,155.09 438.10,154.06 436.09,153.03 434.08,152.00 432.08,150.97 430.07,149.94 428.07,148.91 426.06,147.89 424.06,146.86 422.06,145.83 420.06,144.81 418.06,143.78 416.06,142.76 414.07,141.73 412.07,140.71 410.08,139.69 408.09,138.66 406.10,137.64 404.12,136.61 402.13,135.59 400.15,134.57 398.18,133.54 396.20,132.52 394.23,131.49 392.26,130.47 390.30,129.44 388.33,128.42 " stroke="green" fill="none" marker-end="url(#sat-1)"/>
<polyline points="388.33,128.42 386.38,127.39 384.42,126.36 382.47,125.34 380.52,124.31 378.58,123.28 376.64,122.25 374.71,121.22 372.78,120.19 370.85,119.16 368.93,118.13 367.02,117.10 365.11,116.07 363.20,115.04 361.30,114.00 359.40,112.97 357.51,111.94 355.63,110.90 353.75,109.86 351.88,108.83 350.01,107.79 348.15,106.75 346.29,105.71 344.44,104.67 342.60,103.63 340.76,102.59 338.93,101.54 337.10,100.50 335.29,99.46 333.48,98.41 331.67,97.36 329.87,96.32 328.08,95.27 326.30,94.22 324.52,93.17 322.75,92.12 320.98,91.07 " stroke="green" fill="none" marker-end="url(#arrow-green)"/>
<polyline points="275.52,91.39 273.87,92.53 272.21,93.67 270.54,94.81 268.86,95.95 267.17,97.08 265.48,98.22 263.78,99.35 262.07,100.48 260.35,101.62 258.62,102.75 256.89,103.88 255.15,105.01 253.40,106.14 251.64,107.26 249.88,108.39 248.11,109.52 246.33,110.64 244.55,111.77 242.76,112.89 240.96,114.01 239.16,115.14 237.35,116.26 235.53,117.38 233.70,118.50 231.87,119.62 230.04,120.74 228.20,121.86 226.35,122.97 224.49,124.09 222.64,125.21 220.77,126.32 218.90,127.44 217.02,128.55 215.14,129.67 213.26,130.78 211.37,131.89 209.47,133.01 207.57,134.12 205.67,135.23 203.76,136.34 201.85,137.45 199.94,138.57 198.02,139.68 196.09,140.79 194.17,141.90 " stroke="green" fill="none" marker-end="url(#sat-4)"/>
<polyline points="194.17,141.90 192.24,143.01 190.30,144.12 188.37,145.23 186.43,146.34 184.48,147.45 182.54,148.56 180.59,149.67 178.64,150.79 176.69,151.90 174.74,153.01 172.78,154.12 170.82,155.24 168.86,156.35 166.90,157.46 164.94,158.58 162.98,159.69 161.02,160.81 159.05,161.93 157.09,163.05 155.12,164.16 153.15,165.28 151.19,166.41 149.22,167.53 147.25,168.65 145.29,169.78 143.32,170.91 141.36,172.04 139.39,173.17 137.42,174.30 135.46,175.44 133.50,176.57 131.54,177.71 129.58,178.86 127.62,180.00 125.66,181.15 123.70,182.30 121.75,183.45 119.79,184.61 117.84,185.77 115.89,186.93 113.95,188.10 112.00,189.27 110.06,190.45 108.12,191.63 106.18,192.81 104.25,194.00 102.32,195.20 " stroke="green" fill="none" marker-end="url(#arrow-green)"/>
<polyline points="199.56,428.07 199.35,430.11 199.15,432.14 198.94,434.17 198.73,436.20 198.52,438.22 198.31,440.24 198.11,442.25 197.90,444.26 197.70,446.27 197.49,448.27 197.29,450.27 197.09,452.26 196.90,454.25 196.71,456.24 196.52,458.22 196.33,460.20 196.15,462.18 195.97,464.15 195.79,466.11 195.62,468.08 195.46,470.03 195.30,471.99 195.15,473.94 195.00,475.89 194.86,477.83 194.72,479.77 194.60,481.70 194.48,483.63 194.36,485.56 194.26,487.48 " stroke="green" fill="none" marker-end="url(#sat-5)"/>
<polyline points="194.26,487.48 194.16,489.40 194.08,491.31 194.00,493.22 193.93,495.13 193.87,497.03 193.83,498.93 193.79,500.83 193.76,502.72 193.75,504.61 193.74,506.49 193.75,508.37 193.78,510.25 193.81,512.12 193.86,513.99 193.92,515.85 194.00,517.72 194.09,519.57 194.19,521.43 194.31,523.28 194.45,525.13 194.60,526.97 194.77,528.81 194.96,530.64 195.16,532.48 195.39,534.30 195.63,536.13 195.89,537.95 196.17,539.76 196.46,541.58 196.78,543.39 197.12,545.19 197.49,546.99 " stroke="green" fill="none" marker-end="url(#arrow-green)"/>
<polyline points="514.95,434.55 514.47,432.49 513.98,430.44 513.47,428.40 512.94,426.36 512.40,424.32 511.84,422.29 511.27,420.26 510.68,418.24 510.08,416.22 509.46,414.20 508.83,412.19 508.18,410.18 507.53,408.17 506.86,406.16 506.17,404.16 505.48,402.16 504.77,400.16 504.06,398.17 503.33,396.18 502.59,394.19 501.84,392.20 501.08,390.21 500.31,388.23 499.53,386.25 498.75,384.27 497.95,382.29 497.15,380.31 496.33,378.33 495.51,376.35 494.68,374.38 493.85,372.40 493.00,370.43 492.15,368.46 491.30,366.48 490.43,364.51 489.56,362.54 488.69,360.57 487.81,358.60 486.92,356.63 486.03,354.66 485.14,352.69 484.24,350.72 483.33,348.74 482.43,346.77 481.51,344.80 480.60,342.83 479.68,340.86 478.76,338.89 477.84,336.91 476.91,334.94 475.99,332.97 475.06,330.99 474.12,329.02 473.19,327.05 472.26,325.07 471.32,323.09 470.39,321.12 469.45,319.14 468.52,317.17 467.58,315.19 466.65,313.21 465.72,311.23 464.78,309.25 463.85,307.28 462.92,305.30 461.99,303.32 461.06,301.34 " stroke="green" fill="none" marker-end="url(#sat-5)"/>
<polyline points="461.06,301.34 460.14,299.36 459.22,297.38 458.30,295.40 457.38,293.42 456.47,291.44 455.56,289.46 454.65,287.48 453.75,285.50 452.85,283.52 451.96,281.54 451.07,279.56 450.18,277.59 449.30,275.61 448.43,273.63 447.56,271.66 446.70,269.68 445.84,267.71 444.99,265.74 444.15,263.77 443.31,261.80 442.48,259.83 441.66,257.86 440.84,255.89 440.04,253.93 439.24,251.97 438.45,250.01 437.67,248.05 436.89,246.09 436.13,244.14 435.37,242.19 434.63,240.24 433.89,238.29 433.16,236.35 432.45,234.40 431.74,232.47 431.04,230.53 430.36,228.60 429.68,226.67 429.02,224.74 428.37,222.82 427.73,220.90 427.10,218.98 426.48,217.07 425.88,215.16 425.28,213.26 424.70,211.36 424.14,209.46 423.58,207.57 423.04,205.69 422.51,203.80 422.00,201.92 421.50,200.05 421.01,198.18 420.54,196.32 420.08,194.46 419.64,192.61 419.21,190.76 418.79,188.92 418.39,187.08 418.00,185.25 417.63,183.42 417.28,181.60 416.94,179.79 416.62,177.98 416.31,176.18 416.01,174.38 415.74,172.59 415.48,170.81 415.23,169.03 " stroke="green" fill="none" marker-end="url(#arrow-green)"/>
<polyline points="479.59,335.40 478.61,333.46 477.63,331.51 476.65,329.57 475.67,327.63 474.68,325.69 473.70,323.74 472.71,321.80 471.73,319.86 470.74,317.92 469.75,315.97 468.77,314.03 467.78,312.09 466.79,310.15 465.81,308.20 464.83,306.26 463.84,304.32 462.86,302.38 461.88,300.44 460.91,298.49 459.93,296.55 458.96,294.61 458.00,292.67 457.03,290.73 456.07,288.79 455.11,286.85 454.16,284.91 453.21,282.97 452.26,281.04 451.32,279.10 450.39,277.16 449.45,275.22 448.53,273.29 447.61,271.35 446.70,269.42 445.79,267.49 444.89,265.56 443.99,263.63 443.11,261.70 442.23,259.77 441.35,257.84 440.49,255.92 439.63,254.00 438.78,252.08 437.94,250.16 437.10,248.24 436.28,246.32 435.46,244.41 434.66,242.50 433.86,240.59 433.07,238.68 432.30,236.78 431.53,234.87 430.77,232.97 430.02,231.08 429.29,229.18 428.56,227.29 427.85,225.40 427.15,223.52 426.46,221.64 " stroke="green" fill="none" marker-end="url(#sat-6)"/>
<polyline points="426.46,221.64 425.78,219.76 425.11,217.88 424.45,216.01 423.81,214.14 423.18,212.28 422.56,210.42 421.96,208.56 421.37,206.71 420.79,204.86 420.22,203.01 419.67,201.17 419.13,199.34 418.61,197.50 418.10,195.68 417.60,193.85 417.12,192.04 416.66,190.22 416.21,188.41 415.77,186.61 415.35,184.81 414.94,183.02 414.55,181.23 414.18,179.45 413.82,177.67 413.47,175.90 413.15,174.13 412.83,172.37 412.54,170.62 412.26,168.87 412.00,167.13 411.75,165.39 411.52,163.66 411.31,161.94 411.12,160.22 410.94,158.51 410.78,156.80 410.63,155.10 410.51,153.41 410.40,151.72 410.31,150.05 410.24,148.37 410.18,146.71 410.14,145.05 410.13,143.40 410.12,141.76 410.14,140.12 410.18,138.49 410.23,136.87 410.30,135.26 410.40,133.66 410.51,132.06 410.63,130.47 410.78,128.89 410.95,127.31 411.13,125.75 411.34,124.19 411.56,122.64 411.80,121.10 412.07,119.57 412.35,118.04 " stroke="green" fill="none" marker-end="url(#arrow-green)"/>
<polyline points="" stroke="green" fill="none" marker-end="url(#sat-6)"/>
<polyline points="" stroke="green" fill="none" marker-end="url(#arrow-green)"/>
<polyline points="481.83,287.68 483.53,288.25 485.22,288.84 486.90,289.46 488.59,290.09 490.27,290.75 491.94,291.44 493.62,292.14 495.28,292.87 496.95,293.62 498.61,294.39 500.26,295.18 501.91,296.00 503.55,296.84 505.19,297.70 506.82,298.58 508.45,299.48 510.07,300.41 " stroke="green" fill="none" marker-end="url(#sat-7)"/>
<polyline points="510.07,300.41 511.68,301.36 513.29,302.32 514.89,303.31 516.48,304.32 518.07,305.35 519.65,306.40 521.22,307.47 522.79,308.56 524.34,309.67 525.89,310.80 527.43,311.95 528.97,313.12 530.49,314.31 532.01,315.52 533.51,316.75 535.01,317.99 536.50,319.26 537.98,320.54 539.45,321.84 " stroke="green" fill="none" marker-end="url(#arrow-green)"/>
<polyline points="453.64,361.55 455.01,362.90 456.37,364.28 457.72,365.67 459.05,367.07 460.36,368.48 461.67,369.92 462.96,371.36 464.23,372.82 465.49,374.29 466.74,375.78 467.97,377.27 469.19,378.78 470.40,380.30 471.59,381.84 472.77,383.38 473.93,384.94 475.08,386.51 476.22,388.08 477.34,389.67 478.45,391.27 479.54,392.88 480.62,394.50 481.69,396.13 482.74,397.76 483.78,399.41 484.81,401.06 " stroke="green" fill="none" marker-end="url(#sat-9)"/>
<polyline points="484.81,401.06 485.82,402.72 486.82,404.39 487.80,406.07 488.77,407.76 489.73,409.45 490.67,411.15 491.61,412.85 492.52,414.56 493.43,416.28 494.32,418.01 495.20,419.73 496.07,421.47 496.92,423.21 497.77,424.95 498.60,426.69 499.41,428.45 500.22,430.20 501.02,431.96 501.80,433.72 502.57,435.48 503.33,437.25 504.08,439.02 504.82,440.79 505.54,442.56 506.26,444.33 506.97,446.11 507.66,447.88 " stroke="green" fill="none" marker-end="url(#arrow-green)"/>
<polyline points="183.17,174.69 181.82,176.27 180.47,177.85 179.10,179.43 177.73,181.02 176.35,182.60 174.96,184.19 173.56,185.77 172.15,187.36 170.74,188.95 169.32,190.53 167.90,192.12 166.47,193.71 165.03,195.30 163.58,196.89 162.13,198.48 160.68,200.07 159.21,201.67 157.75,203.26 156.27,204.85 154.80,206.45 153.31,208.04 151.83,209.64 150.34,211.24 148.84,212.83 147.34,214.43 145.84,216.03 144.33,217.63 142.82,219.23 141.31,220.83 139.80,222.44 138.28,224.04 136.76,225.65 135.23,227.25 133.71,228.86 132.18,230.47 130.66,232.08 129.13,233.69 127.60,235.30 126.07,236.91 124.53,238.53 123.00,240.15 " stroke="green" fill="none" marker-end="url(#sat-10)"/>
<polyline points="123.00,240.15 121.47,241.76 119.94,243.38 118.40,245.01 116.87,246.63 115.34,248.26 113.81,249.88 112.28,251.51 110.75,253.15 109.22,254.78 107.70,256.42 106.18,258.06 104.65,259.70 103.13,261.34 101.62,262.99 100.10,264.64 98.59,266.30 97.09,267.95 95.58,269.62 94.08,271.28 92.58,272.95 91.09,274.62 89.60,276.30 88.12,277.98 86.64,279.66 85.16,281.35 83.69,283.05 82.23,284.75 80.77,286.45 79.32,288.16 77.87,289.88 76.43,291.60 75.00,293.33 73.58,295.06 72.16,296.80 70.74,298.55 69.34,300.31 67.94,302.07 66.56,303.84 65.18,305.61 63.81,307.40 62.44,309.19 61.09,310.99 " stroke="green" fill="none" marker-end="url(#arrow-green)"/>
<polyline points="470.79,456.41 470.47,454.43 470.14,452.45 469.79,450.46 469.44,448.48 469.07,446.50 468.69,444.52 468.30,442.54 467.90,440.56 467.49,438.58 467.07,436.59 466.64,434.61 466.20,432.63 465.75,430.65 465.29,428.66 464.83,426.68 464.35,424.70 463.87,422.71 463.38,420.72 462.89,418.74 462.38,416.75 461.88,414.76 461.36,412.77 460.84,410.78 460.32,408.79 459.78,406.80 459.25,404.80 458.71,402.81 458.16,400.81 457.61,398.82 457.06,396.82 456.51,394.82 455.95,392.82 455.38,390.82 454.82,388.81 454.25,386.81 453.68,384.80 453.11,382.80 452.54,380.79 451.96,378.78 451.39,376.77 450.81,374.75 450.24,372.74 449.66,370.73 449.08,368.71 448.51,366.70 447.93,364.68 447.35,362.66 446.78,360.64 446.21,358.62 445.64,356.60 445.07,354.57 444.50,352.55 443.93,350.53 443.37,348.50 442.81,346.48 442.25,344.45 441.70,342.43 441.15,340.40 440.60,338.37 " stroke="green" fill="none" marker-end="url(#sat-11)"/>
<polyline points="440.60,338.37 440.06,336.35 439.52,334.32 438.99,332.29 438.46,330.27 437.94,328.24 437.42,326.22 436.91,324.19 436.40,322.17 435.90,320.14 435.40,318.12 434.91,316.10 434.43,314.08 433.95,312.06 433.49,310.04 433.02,308.02 432.57,306.01 432.12,303.99 431.69,301.98 431.26,299.97 430.84,297.96 430.42,295.96 430.02,293.95 429.62,291.95 429.24,289.96 428.86,287.96 428.49,285.97 428.14,283.98 427.79,282.00 427.45,280.01 427.13,278.04 426.81,276.06 426.51,274.09 426.21,272.12 425.93,270.16 425.66,268.20 425.40,266.25 425.15,264.30 424.92,262.36 424.69,260.42 424.48,258.49 424.28,256.56 424.10,254.64 423.93,252.72 423.77,250.81 423.62,248.91 423.49,247.01 423.37,245.11 423.26,243.23 423.17,241.35 423.09,239.48 423.02,237.61 422.97,235.75 422.94,233.90 422.92,232.06 422.91,230.22 422.92,228.39 422.94,226.57 422.98,224.76 423.03,222.95 423.10,221.16 423.18,219.37 " stroke="green" fill="none" marker-end="url(#arrow-green)"/>
<polyline points="423.18,219.37 423.28,217.59 423.40,215.82 423.53,214.06 423.68,212.31 423.84,210.56 424.02,208.83 424.22,207.10 424.43,205.39 424.66,203.68 424.90,201.99 425.16,200.30 425.44,198.62 425.73,196.96 426.05,195.30 426.37,193.66 426.72,192.03 427.08,190.40 427.46,188.79 427.86,187.19 428.27,185.60 428.70,184.02 429.15,182.46 429.62,180.90 430.10,179.36 430.60,177.83 " stroke="green" fill="none" marker-end="url(#sat-11)"/>
<polyline points="430.60,177.83 431.12,176.31 431.66,174.80 432.21,173.31 432.79,171.83 433.38,170.36 433.98,168.90 434.61,167.46 435.25,166.03 435.91,164.61 436.59,163.21 437.29,161.82 438.01,160.44 438.74,159.08 439.49,157.73 440.26,156.39 441.05,155.07 441.85,153.76 442.68,152.47 443.52,151.19 444.38,149.93 445.25,148.68 446.15,147.45 447.06,146.23 448.00,145.02 448.95,143.84 449.92,142.66 " stroke="green" fill="none" marker-end="url(#arrow-green)"/>
<polyline points="247.91,340.76 249.61,339.78 251.32,338.83 253.04,337.89 254.77,336.98 256.51,336.09 258.26,335.22 260.01,334.38 261.78,333.55 263.56,332.75 265.35,331.97 267.15,331.22 268.95,330.48 270.77,329.77 272.59,329.08 274.42,328.42 276.25,327.78 278.10,327.16 279.95,326.57 281.81,326.00 283.67,325.46 285.54,324.94 287.42,324.44 289.30,323.97 291.18,323.52 293.08,323.10 294.97,322.71 296.87,322.33 298.78,321.99 300.68,321.67 302.60,321.37 304.51,321.10 306.43,320.85 308.35,320.63 310.27,320.43 312.19,320.26 314.12,320.12 316.04,320.00 317.97,319.91 319.90,319.84 321.83,319.80 323.75,319.78 325.68,319.79 327.61,319.82 329.53,319.88 331.46,319.97 333.38,320.08 335.30,320.22 337.22,320.38 339.13,320.56 341.04,320.78 342.95,321.01 344.86,321.28 346.76,321.56 348.66,321.88 350.55,322.21 352.44,322.58 354.32,322.96 356.20,323.38 358.07,323.81 " stroke="green" fill="none" marker-end="url(#sat-12)"/>
<polyline points="358.07,323.81 359.94,324.27 361.80,324.76 363.65,325.27 365.50,325.80 367.34,326.36 369.18,326.94 371.00,327.54 372.82,328.17 374.63,328.82 376.43,329.50 378.22,330.20 380.01,330.92 381.78,331.66 383.55,332.43 385.30,333.21 387.05,334.02 388.79,334.86 390.51,335.71 392.23,336.58 393.94,337.48 395.63,338.40 397.31,339.34 398.99,340.30 400.65,341.27 402.30,342.27 403.93,343.29 405.56,344.33 407.17,345.39 408.78,346.47 410.36,347.57 411.94,348.68 413.51,349.82 415.06,350.97 416.59,352.14 418.12,353.33 419.63,354.54 421.13,355.76 422.61,357.00 424.09,358.26 425.54,359.53 426.99,360.82 428.42,362.13 429.83,363.45 431.23,364.79 432.62,366.14 433.99,367.51 435.35,368.89 436.70,370.29 438.03,371.70 439.35,373.12 440.65,374.56 441.93,376.01 443.21,377.48 444.46,378.95 445.71,380.44 446.94,381.94 448.15,383.46 449.35,384.98 450.53,386.52 451.70,388.06 452.86,389.62 " stroke="green" fill="none" marker-end="url(#arrow-green)"/>
<polyline points="452.86,389.62 454.00,391.19 455.13,392.77 456.24,394.36 457.34,395.95 458.42,397.56 459.49,399.18 460.54,400.80 461.58,402.44 462.61,404.08 463.62,405.73 464.62,407.38 465.60,409.05 466.57,410.72 467.53,412.40 468.47,414.08 469.40,415.77 470.31,417.47 471.22,419.17 472.10,420.88 472.98,422.59 473.84,424.31 474.69,426.03 475.53,427.76 " stroke="green" fill="none" marker-end="url(#sat-12)"/>
<polyline points="475.53,427.76 476.35,429.49 477.16,431.22 477.96,432.96 478.75,434.70 479.52,436.44 480.28,438.19 481.03,439.94 481.77,441.69 482.50,443.44 483.22,445.20 483.92,446.95 484.62,448.71 485.30,450.47 485.98,452.23 486.64,453.98 487.29,455.74 487.94,457.50 488.57,459.26 489.20,461.01 489.82,462.77 490.42,464.52 491.02,466.28 491.61,468.03 492.20,469.78 492.77,471.52 " stroke="green" fill="none" marker-end="url(#arrow-green)"/>
<polyline points="429.37,259.19 430.83,258.38 432.30,257.59 433.77,256.83 435.26,256.08 436.76,255.36 438.26,254.66 439.78,253.98 441.30,253.33 442.84,252.69 444.38,252.08 445.93,251.50 447.49,250.93 449.06,250.39 450.63,249.87 452.22,249.38 453.81,248.91 455.40,248.46 457.01,248.04 458.62,247.64 460.24,247.26 461.87,246.91 463.50,246.58 465.14,246.27 466.79,245.99 468.44,245.74 470.10,245.50 471.76,245.29 473.43,245.11 475.10,244.95 " stroke="green" fill="none" marker-end="url(#sat-14)"/>
<polyline points="475.10,244.95 476.78,244.81 478.47,244.70 480.16,244.61 481.85,244.55 483.55,244.51 485.25,244.50 486.95,244.51 488.66,244.55 490.37,244.61 492.09,244.69 493.81,244.80 495.53,244.93 497.25,245.09 498.98,245.27 500.71,245.48 502.44,245.71 504.17,245.97 505.90,246.25 507.64,246.56 509.37,246.89 511.11,247.24 512.84,247.62 514.58,248.03 516.32,248.46 518.06,248.91 519.79,249.39 521.53,249.89 523.26,250.41 525.00,250.96 526.73,251.54 " stroke="green" fill="none" marker-end="url(#arrow-green)"/>
<polyline points="249.36,412.36 249.65,414.38 249.94,416.40 250.21,418.42 250.48,420.43 250.73,422.45 250.98,424.46 251.23,426.47 251.46,428.47 251.69,430.48 251.91,432.48 252.13,434.48 252.34,436.47 252.54,438.46 252.74,440.45 252.93,442.44 253.11,444.42 253.30,446.40 253.47,448.37 253.64,450.34 253.81,452.31 253.97,454.27 254.13,456.23 254.29,458.18 254.44,460.13 254.59,462.07 254.74,464.01 254.88,465.95 255.02,467.88 255.16,469.80 255.30,471.72 255.44,473.63 255.58,475.54 255.71,477.45 255.85,479.34 255.98,481.24 256.12,483.12 256.25,485.00 256.39,486.88 256.53,488.75 256.66,490.61 256.80,492.47 256.95,494.32 " stroke="green" fill="none" marker-end="url(#sat-15)"/>
<polyline points="256.95,494.32 257.09,496.17 257.24,498.01 257.39,499.85 257.54,501.67 257.70,503.50 257.86,505.31 258.02,507.12 258.19,508.93 258.37,510.73 258.55,512.52 258.73,514.30 258.92,516.08 259.12,517.85 259.33,519.62 259.54,521.38 259.76,523.13 259.98,524.88 260.22,526.62 260.46,528.35 260.71,530.08 260.97,531.80 261.24,533.51 261.52,535.22 261.81,536.92 262.11,538.61 262.42,540.29 262.74,541.97 263.08,543.64 263.42,545.31 263.78,546.97 264.16,548.62 264.54,550.26 264.94,551.89 265.36,553.52 265.78,555.14 266.23,556.75 266.69,558.36 267.16,559.96 267.65,561.55 268.16,563.13 268.68,564.70 269.22,566.26 269.78,567.82 " stroke="green" fill="none" marker-end="url(#arrow-green)"/>
<polyline points="479.37,274.69 478.14,272.79 476.91,270.88 475.68,268.98 474.45,267.07 473.22,265.17 471.99,263.27 470.76,261.37 469.53,259.47 468.30,257.57 467.08,255.67 465.85,253.78 464.63,251.88 463.41,249.99 462.19,248.10 460.98,246.20 459.76,244.31 458.55,242.43 457.35,240.54 456.15,238.65 454.95,236.77 453.76,234.89 452.57,233.01 451.38,231.13 450.20,229.25 449.03,227.37 447.86,225.50 446.69,223.63 445.54,221.76 444.38,219.89 443.24,218.02 442.10,216.16 440.97,214.30 439.84,212.44 438.73,210.58 437.62,208.72 436.51,206.87 435.42,205.02 434.33,203.17 433.26,201.33 432.19,199.49 431.13,197.65 430.08,195.81 429.04,193.97 428.00,192.14 426.98,190.31 " stroke="green" fill="none" marker-end="url(#sat-16)"/>
<polyline points="426.98,190.31 425.97,188.49 424.97,186.66 423.98,184.85 422.99,183.03 422.02,181.22 421.07,179.41 420.12,177.60 419.18,175.80 418.26,174.00 417.34,172.20 416.44,170.41 415.55,168.62 414.68,166.83 413.81,165.05 412.96,163.27 412.12,161.50 411.30,159.73 410.48,157.96 409.68,156.20 408.90,154.44 408.13,152.68 407.37,150.93 406.62,149.19 405.89,147.44 405.18,145.71 404.47,143.97 403.79,142.24 403.11,140.52 402.46,138.80 401.81,137.08 401.19,135.37 400.57,133.66 399.97,131.95 399.39,130.26 398.83,128.56 398.27,126.87 397.74,125.19 397.22,123.51 396.72,121.83 396.23,120.16 395.76,118.49 395.30,116.83 394.86,115.17 394.44,113.52 394.03,111.87 393.64,110.23 " stroke="green" fill="none" marker-end="url(#arrow-green)"/>
<polyline points="249.97,102.49 248.54,103.83 247.10,105.16 245.64,106.50 244.18,107.83 242.71,109.17 241.23,110.50 239.74,111.83 238.24,113.17 236.73,114.50 235.21,115.83 233.68,117.17 232.14,118.50 230.59,119.83 229.04,121.16 227.47,122.49 225.90,123.82 224.31,125.15 222.72,126.48 221.12,127.81 219.51,129.14 217.90,130.47 216.27,131.80 214.64,133.13 213.00,134.46 211.36,135.79 209.70,137.12 208.04,138.45 206.37,139.78 204.70,141.11 203.01,142.43 201.32,143.76 199.63,145.09 197.93,146.42 196.22,147.75 194.51,149.08 192.79,150.40 191.06,151.73 189.33,153.06 187.59,154.39 185.85,155.72 184.10,157.05 182.35,158.38 180.60,159.71 178.84,161.03 177.07,162.36 175.30,163.69 173.53,165.02 171.75,166.36 169.97,167.69 " stroke="green" fill="none" marker-end="url(#sat-18)"/>
<polyline points="169.97,167.69 168.19,169.02 166.40,170.35 164.61,171.68 162.82,173.02 161.02,174.35 159.22,175.68 157.42,177.02 155.62,178.36 153.82,179.69 152.01,181.03 150.20,182.37 148.39,183.71 146.58,185.05 144.77,186.39 142.95,187.74 141.14,189.08 139.32,190.43 137.51,191.77 135.69,193.12 133.88,194.47 132.06,195.83 130.25,197.18 128.43,198.54 126.62,199.89 124.80,201.25 122.99,202.62 121.18,203.98 119.37,205.35 117.56,206.72 115.75,208.09 113.95,209.47 112.14,210.85 110.34,212.23 108.54,213.62 106.74,215.00 104.95,216.40 103.16,217.79 101.37,219.19 99.58,220.60 97.80,222.01 96.02,223.42 94.24,224.84 92.47,226.26 90.70,227.69 88.94,229.12 87.18,230.56 85.42,232.00 83.67,233.45 81.92,234.91 80.18,236.37 78.44,237.84 " stroke="green" fill="none" marker-end="url(#arrow-green)"/>
<polyline points="266.05,566.62 266.50,565.07 266.94,563.50 267.36,561.93 267.77,560.34 268.16,558.75 268.55,557.15 268.92,555.54 269.28,553.93 269.64,552.30 269.98,550.67 270.31,549.03 270.63,547.38 270.94,545.72 271.24,544.05 271.54,542.38 271.83,540.70 272.11,539.01 272.38,537.32 272.65,535.62 272.91,533.91 273.16,532.19 273.41,530.47 273.66,528.74 273.90,527.00 274.13,525.26 274.37,523.51 274.60,521.75 274.82,519.99 275.05,518.22 275.27,516.45 275.48,514.67 275.70,512.88 275.92,511.09 276.13,509.29 276.35,507.49 276.56,505.68 276.78,503.86 276.99,502.04 277.21,500.22 277.42,498.39 277.64,496.55 277.86,494.71 278.08,492.87 278.31,491.02 278.54,489.16 278.77,487.30 279.00,485.44 279.24,483.57 279.48,481.70 279.72,479.83 279.98,477.95 280.23,476.06 280.49,474.18 280.76,472.29 281.03,470.40 281.30,468.50 281.59,466.60 281.88,464.70 282.17,462.79 282.48,460.89 282.79,458.98 283.10,457.07 283.43,455.15 283.76,453.24 284.11,451.32 284.46,449.40 284.82,447.48 285.18,445.56 285.56,443.64 " stroke="green" fill="none" marker-end="url(#sat-18)"/>
<polyline points="285.56,443.64 285.95,441.71 286.34,439.79 286.75,437.87 287.17,435.94 287.59,434.02 288.03,432.09 288.48,430.17 288.94,428.25 289.41,426.33 289.89,424.41 290.38,422.49 290.88,420.57 291.40,418.65 291.92,416.74 292.46,414.83 293.01,412.92 293.58,411.01 294.15,409.11 294.74,407.21 295.34,405.31 295.96,403.42 296.59,401.53 297.23,399.64 297.88,397.76 298.55,395.89 299.23,394.02 299.92,392.15 300.63,390.29 301.35,388.44 302.09,386.59 302.84,384.75 303.60,382.91 304.38,381.09 305.17,379.27 305.98,377.45 306.80,375.65 307.64,373.85 308.49,372.06 309.35,370.28 310.23,368.51 311.12,366.75 312.03,365.00 312.95,363.26 313.89,361.52 314.84,359.80 315.81,358.09 316.79,356.39 317.78,354.71 318.79,353.03 319.82,351.36 320.86,349.71 321.91,348.07 322.98,346.44 324.06,344.83 325.16,343.23 326.27,341.64 327.40,340.07 328.54,338.51 329.69,336.96 330.86,335.43 332.04,333.92 333.24,332.42 334.45,330.94 335.67,329.47 336.91,328.02 338.16,326.58 339.43,325.16 340.71,323.76 342.00,322.37 343.31,321.01 " stroke="green" fill="none" marker-end="url(#arrow-green)"/>
<polyline points="220.27,512.95 220.38,514.81 220.51,516.66 220.65,518.51 220.79,520.36 220.96,522.20 221.13,524.04 221.32,525.87 221.52,527.69 221.73,529.52 221.96,531.33 222.21,533.14 222.47,534.95 " stroke="green" fill="none" marker-end="url(#sat-20)"/>
<polyline points="222.47,534.95 222.74,536.75 223.03,538.55 223.34,540.34 223.66,542.13 224.01,543.91 224.36,545.68 224.74,547.45 225.14,549.22 225.56,550.98 225.99,552.73 226.45,554.48 226.92,556.22 227.42,557.95 " stroke="green" fill="none" marker-end="url(#arrow-green)"/>
<polyline points="523.64,376.71 522.79,374.76 521.93,372.81 521.06,370.86 520.17,368.92 519.28,366.98 518.37,365.05 517.46,363.12 516.54,361.20 515.60,359.28 514.66,357.37 513.71,355.46 512.75,353.55 511.79,351.64 510.81,349.74 509.83,347.84 508.84,345.95 507.84,344.05 506.84,342.16 505.83,340.28 504.81,338.39 503.79,336.51 502.76,334.63 501.73,332.75 500.69,330.87 499.64,329.00 498.59,327.13 497.54,325.26 496.48,323.39 495.42,321.52 494.36,319.65 493.29,317.79 492.21,315.92 491.14,314.06 490.06,312.20 488.98,310.34 487.90,308.48 486.81,306.62 485.73,304.77 484.64,302.91 483.55,301.05 482.46,299.20 481.36,297.34 480.27,295.49 479.18,293.64 478.09,291.78 476.99,289.93 475.90,288.08 474.81,286.23 473.71,284.38 472.62,282.53 471.53,280.68 470.44,278.83 469.36,276.99 468.27,275.14 467.19,273.29 466.11,271.44 465.03,269.60 463.95,267.75 462.88,265.91 461.81,264.06 460.75,262.22 459.68,260.38 458.63,258.53 457.57,256.69 456.52,254.85 455.48,253.01 454.44,251.17 453.40,249.33 452.37,247.49 451.34,245.66 450.32,243.82 449.31,241.99 " stroke="green" fill="none" marker-end="url(#sat-20)"/>
<polyline points="449.31,241.99 448.30,240.15 447.30,238.32 446.31,236.49 445.32,234.66 444.34,232.83 443.36,231.00 442.40,229.17 441.44,227.35 440.49,225.53 439.54,223.70 438.61,221.88 437.68,220.06 436.76,218.25 435.85,216.43 434.95,214.62 434.06,212.81 433.18,211.00 432.31,209.19 431.45,207.38 430.59,205.58 429.75,203.78 428.92,201.98 428.10,200.18 427.29,198.39 426.49,196.60 425.70,194.81 424.93,193.02 424.16,191.24 423.41,189.46 422.66,187.68 421.93,185.91 421.22,184.13 420.51,182.36 419.82,180.60 419.14,178.84 418.47,177.08 417.82,175.32 417.18,173.57 416.55,171.82 415.93,170.07 415.33,168.33 414.75,166.59 414.17,164.85 413.61,163.12 413.07,161.39 412.54,159.67 412.02,157.95 411.52,156.23 411.03,154.52 410.56,152.81 410.10,151.11 409.66,149.41 409.23,147.71 408.82,146.02 408.43,144.34 408.05,142.65 407.68,140.98 407.33,139.30 407.00,137.63 406.68,135.97 406.38,134.31 406.09,132.66 405.82,131.01 405.57,129.36 405.34,127.72 405.12,126.09 404.91,124.46 404.73,122.83 404.56,121.22 404.40,119.60 404.27,117.99 404.15,116.39 404.05,114.79 " stroke="green" fill="none" marker-end="url(#arrow-green)"/>
<polyline points="259.54,513.06 259.69,514.88 259.85,516.70 260.01,518.51 260.18,520.32 260.36,522.12 260.55,523.92 260.74,525.70 260.95,527.49 261.16,529.27 261.39,531.04 261.62,532.80 261.87,534.56 262.12,536.31 262.39,538.06 262.67,539.80 " stroke="green" fill="none" marker-end="url(#sat-21)"/>
<polyline points="262.67,539.80 262.96,541.53 263.26,543.26 263.58,544.98 263.91,546.70 264.25,548.40 264.61,550.10 264.98,551.80 265.37,553.48 265.77,555.16 266.19,556.83 266.63,558.50 267.08,560.16 267.55,561.81 268.04,563.45 268.55,565.08 269.08,566.71 " stroke="green" fill="none" marker-end="url(#arrow-green)"/>
<polyline points="539.52,336.44 538.40,334.55 537.26,332.67 536.12,330.79 534.97,328.92 533.80,327.06 532.63,325.20 531.44,323.35 530.25,321.51 529.05,319.67 527.84,317.84 526.62,316.01 525.39,314.19 524.16,312.38 522.91,310.57 521.66,308.76 520.41,306.96 519.14,305.16 517.87,303.37 516.60,301.58 515.31,299.79 514.02,298.01 512.73,296.23 511.43,294.46 510.12,292.68 508.81,290.92 507.50,289.15 506.18,287.39 504.85,285.63 503.53,283.87 502.19,282.12 500.86,280.37 499.52,278.62 498.18,276.87 496.83,275.12 495.48,273.38 494.13,271.64 492.78,269.90 491.42,268.16 490.07,266.42 488.71,264.69 487.35,262.96 485.99,261.22 484.62,259.49 483.26,257.77 481.89,256.04 480.53,254.31 479.16,252.59 477.80,250.86 476.43,249.14 475.07,247.41 473.71,245.69 472.34,243.97 470.98,242.25 469.62,240.53 468.26,238.82 466.90,237.10 465.55,235.38 464.19,233.67 462.84,231.95 461.49,230.24 460.15,228.53 458.81,226.81 457.47,225.10 456.13,223.39 454.80,221.68 453.47,219.97 452.14,218.26 " stroke="green" fill="none" marker-end="url(#sat-21)"/>
<polyline points="452.14,218.26 450.82,216.55 449.50,214.85 448.19,213.14 446.89,211.43 445.58,209.73 444.29,208.02 443.00,206.32 441.71,204.62 440.43,202.92 439.16,201.22 437.89,199.52 436.63,197.82 435.38,196.12 434.13,194.42 432.89,192.73 431.66,191.03 430.44,189.34 429.22,187.65 428.01,185.95 426.81,184.26 425.62,182.57 424.43,180.89 423.26,179.20 422.09,177.51 420.93,175.83 419.79,174.15 418.65,172.46 417.52,170.78 416.40,169.11 415.29,167.43 414.19,165.75 413.10,164.08 412.02,162.40 410.96,160.73 409.90,159.06 408.85,157.40 407.82,155.73 406.80,154.06 405.78,152.40 404.78,150.74 403.79,149.08 402.82,147.42 401.85,145.77 400.90,144.11 399.96,142.46 399.03,140.81 398.12,139.16 397.21,137.52 396.32,135.87 395.45,134.23 394.58,132.59 393.73,130.95 392.90,129.32 392.07,127.68 391.26,126.05 390.46,124.42 389.68,122.79 388.91,121.17 388.16,119.54 387.42,117.92 386.69,116.31 385.98,114.69 385.28,113.08 384.60,111.46 383.93,109.86 383.27,108.25 382.63,106.65 382.01,105.04 " stroke="green" fill="none" marker-end="url(#arrow-green)"/>
<polyline points="518.33,264.31 520.00,265.01 521.67,265.74 523.33,266.48 " stroke="green" fill="none" marker-end="url(#sat-22)"/>
<polyline points="523.33,266.48 525.00,267.25 526.66,268.04 528.31,268.86 529.96,269.70 531.61,270.56 " stroke="green" fill="none" marker-end="url(#arrow-green)"/>
<polyline points="329.58,394.27 330.56,395.98 331.52,397.70 332.47,399.42 333.41,401.15 334.33,402.88 335.23,404.62 336.13,406.37 337.00,408.12 337.87,409.87 338.72,411.63 339.55,413.39 340.38,415.16 341.19,416.93 341.98,418.71 342.76,420.49 343.53,422.27 344.29,424.06 345.03,425.84 345.76,427.63 346.47,429.43 347.18,431.22 347.87,433.02 348.55,434.81 349.22,436.61 349.87,438.41 350.52,440.21 351.15,442.01 351.77,443.81 352.38,445.61 352.98,447.41 353.57,449.21 354.14,451.01 354.71,452.81 355.27,454.61 355.82,456.41 356.35,458.20 356.88,460.00 357.40,461.79 357.91,463.58 358.41,465.37 358.91,467.16 359.39,468.94 359.87,470.72 360.33,472.50 360.80,474.28 361.25,476.05 " stroke="green" fill="none" marker-end="url(#sat-24)"/>
<polyline points="361.25,476.05 361.70,477.82 362.14,479.59 362.57,481.35 363.00,483.11 363.42,484.86 363.83,486.62 364.24,488.36 364.65,490.11 365.05,491.85 365.45,493.58 365.84,495.31 366.23,497.03 366.61,498.75 366.99,500.47 367.37,502.18 367.74,503.88 368.12,505.58 368.49,507.27 368.85,508.96 369.22,510.64 369.59,512.32 369.95,513.99 370.32,515.65 370.68,517.31 371.05,518.96 371.41,520.60 371.78,522.24 372.15,523.87 372.51,525.49 372.89,527.11 373.26,528.71 373.63,530.32 374.01,531.91 374.39,533.49 374.78,535.07 375.17,536.64 375.56,538.21 375.96,539.76 376.37,541.31 376.77,542.84 377.19,544.37 377.61,545.89 378.04,547.40 378.48,548.90 378.92,550.40 379.37,551.88 379.83,553.36 380.30,554.82 " stroke="green" fill="none" marker-end="url(#arrow-green)"/>
<polyline points="" stroke="green" fill="none" marker-end="url(#sat-24)"/>
<polyline points="" stroke="green" fill="none" marker-end="url(#arrow-green)"/>
<polyline points="300.81,327.22 302.64,327.85 304.47,328.50 306.29,329.17 308.10,329.87 309.90,330.59 311.69,331.33 313.48,332.10 315.26,332.88 317.02,333.69 318.78,334.53 320.53,335.38 322.26,336.25 323.99,337.15 325.71,338.07 327.41,339.00 329.11,339.96 330.79,340.94 332.47,341.94 334.13,342.96 335.78,344.00 337.41,345.06 339.04,346.14 340.65,347.24 342.25,348.35 343.84,349.49 345.42,350.64 346.98,351.81 348.53,353.00 350.06,354.21 351.59,355.43 353.09,356.67 354.59,357.93 356.07,359.20 357.54,360.50 358.99,361.80 360.43,363.12 361.85,364.46 363.26,365.81 364.66,367.18 366.04,368.56 367.41,369.96 368.76,371.37 370.10,372.79 371.42,374.23 372.73,375.67 374.02,377.14 375.29,378.61 376.56,380.10 377.80,381.60 379.04,383.11 380.25,384.63 381.45,386.16 382.64,387.71 383.81,389.26 384.97,390.83 386.11,392.40 387.24,393.98 388.35,395.58 389.44,397.18 390.52,398.79 391.59,400.41 392.64,402.04 393.68,403.68 394.70,405.32 395.70,406.97 396.70,408.63 " stroke="green" fill="none" marker-end="url(#sat-25)"/>
<polyline points="396.70,408.63 397.67,410.29 398.64,411.96 399.59,413.64 400.52,415.33 401.44,417.01 402.35,418.71 403.24,420.41 404.12,422.11 404.98,423.82 405.83,425.54 406.67,427.26 407.49,428.98 408.30,430.70 409.10,432.43 409.89,434.17 410.66,435.90 411.42,437.64 412.16,439.38 412.90,441.12 413.62,442.87 414.33,444.61 415.03,446.36 415.72,448.11 416.39,449.86 417.06,451.61 417.71,453.36 418.35,455.12 418.99,456.87 419.61,458.62 420.22,460.37 420.82,462.12 421.41,463.87 422.00,465.62 422.57,467.37 423.13,469.12 423.69,470.86 424.24,472.60 424.78,474.35 425.31,476.09 425.83,477.82 426.35,479.56 426.85,481.29 427.36,483.01 427.85,484.74 428.34,486.46 428.82,488.18 429.30,489.89 429.77,491.60 430.24,493.31 430.70,495.01 431.15,496.71 431.61,498.40 432.05,500.09 432.50,501.77 432.94,503.44 433.38,505.11 433.81,506.78 434.25,508.44 434.68,510.09 435.11,511.74 435.53,513.38 435.96,515.01 436.39,516.64 436.81,518.26 437.24,519.87 437.66,521.48 438.09,523.08 438.52,524.67 " stroke="green" fill="none" marker-end="url(#arrow-green)"/>
<polyline points="423.85,168.71 422.64,167.03 421.44,165.36 420.25,163.69 419.07,162.02 417.90,160.35 416.74,158.69 415.59,157.03 414.44,155.37 413.31,153.71 412.19,152.06 411.08,150.40 409.97,148.75 408.88,147.11 407.80,145.46 406.73,143.82 405.68,142.18 404.63,140.54 403.59,138.91 " stroke="green" fill="none" marker-end="url(#sat-26)"/>
<polyline points="403.59,138.91 402.57,137.27 401.55,135.64 400.55,134.02 399.56,132.39 398.58,130.77 397.62,129.15 396.67,127.53 395.72,125.92 394.80,124.31 393.88,122.70 392.98,121.09 392.09,119.49 391.21,117.88 390.34,116.28 389.49,114.69 388.65,113.10 387.82,111.50 387.01,109.92 386.21,108.33 385.43,106.75 " stroke="green" fill="none" marker-end="url(#arrow-green)"/>
<polyline points="73.53,254.86 75.26,254.31 76.99,253.79 78.73,253.30 80.46,252.83 82.20,252.38 83.93,251.96 85.67,251.56 87.41,251.19 89.15,250.84 90.88,250.51 92.62,250.21 94.36,249.94 96.09,249.68 97.83,249.46 99.56,249.25 101.29,249.08 103.02,248.92 104.75,248.79 106.48,248.69 108.20,248.61 109.92,248.55 111.64,248.52 113.35,248.52 115.07,248.54 116.78,248.58 118.48,248.65 120.18,248.74 121.88,248.85 123.57,249.00 125.26,249.16 126.95,249.35 128.63,249.56 130.30,249.80 131.97,250.06 133.63,250.35 " stroke="green" fill="none" marker-end="url(#sat-26)"/>
<polyline points="133.63,250.35 135.29,250.66 136.94,251.00 138.59,251.36 140.23,251.74 141.86,252.14 143.49,252.58 145.11,253.03 146.72,253.51 148.33,254.01 149.93,254.53 151.52,255.08 153.10,255.65 154.68,256.25 156.25,256.87 157.81,257.51 159.36,258.17 160.90,258.86 162.44,259.57 163.96,260.30 165.48,261.05 166.99,261.83 168.48,262.63 169.97,263.45 171.45,264.29 172.92,265.15 174.38,266.04 175.83,266.95 177.27,267.88 178.70,268.83 180.12,269.80 181.52,270.79 182.92,271.80 184.31,272.84 185.68,273.89 187.05,274.96 188.40,276.06 188.52,276.16 " stroke="green" fill="none" marker-end="url(#arrow-green)"/>
<polyline points="188.52,276.16 189.86,277.27 191.19,278.41 192.50,279.56 193.81,280.74 195.10,281.93 196.39,283.14 197.66,284.37 198.91,285.62 200.16,286.89 201.39,288.18 202.61,289.48 203.82,290.80 205.02,292.14 206.20,293.50 207.37,294.87 208.53,296.27 209.68,297.67 210.81,299.10 211.93,300.54 213.04,301.99 214.13,303.46 215.21,304.95 216.28,306.45 217.33,307.97 218.37,309.50 219.40,311.05 220.41,312.61 221.42,314.18 222.40,315.77 223.38,317.37 224.34,318.99 225.29,320.62 226.22,322.26 227.14,323.91 228.05,325.57 228.94,327.25 229.82,328.94 230.69,330.64 231.54,332.35 232.38,334.07 " stroke="green" fill="none" marker-end="url(#sat-26)"/>
<polyline points="232.38,334.07 233.21,335.81 234.02,337.55 234.82,339.30 235.61,341.06 236.38,342.83 237.14,344.62 237.89,346.41 238.62,348.20 239.34,350.01 240.05,351.83 240.75,353.65 241.43,355.48 242.10,357.32 242.75,359.16 243.40,361.01 244.03,362.87 244.65,364.73 245.25,366.60 245.85,368.48 246.43,370.36 247.00,372.25 247.56,374.14 248.10,376.03 248.64,377.93 249.16,379.84 249.67,381.75 250.17,383.66 250.66,385.57 251.13,387.49 251.60,389.41 252.05,391.34 252.50,393.26 252.93,395.19 253.35,397.12 253.77,399.05 254.17,400.99 254.56,402.92 254.95,404.86 255.32,406.80 255.68,408.73 255.71,408.90 " stroke="green" fill="none" marker-end="url(#arrow-green)"/>
<polyline points="193.59,274.60 194.15,276.35 194.69,278.12 195.22,279.89 195.74,281.68 196.24,283.47 196.73,285.28 197.20,287.10 197.66,288.93 198.11,290.76 198.54,292.61 198.95,294.47 199.36,296.34 199.75,298.21 200.12,300.10 200.48,301.99 200.83,303.90 201.17,305.81 201.49,307.73 201.80,309.65 202.09,311.59 202.38,313.53 202.65,315.48 202.91,317.44 203.15,319.40 203.38,321.37 203.60,323.34 203.81,325.32 204.01,327.31 204.19,329.30 204.37,331.30 204.53,333.30 204.68,335.31 204.82,337.32 204.95,339.34 205.06,341.36 205.17,343.38 205.27,345.41 205.35,347.44 205.43,349.48 205.49,351.52 205.55,353.56 205.60,355.60 205.63,357.65 205.66,359.69 205.68,361.74 205.69,363.80 205.69,365.85 205.69,367.90 205.67,369.96 205.65,372.02 205.62,374.07 205.58,376.13 205.53,378.19 205.48,380.25 205.42,382.31 205.35,384.37 205.28,386.42 205.20,388.48 205.11,390.54 205.02,392.60 204.92,394.65 204.82,396.71 204.71,398.76 204.60,400.81 204.48,402.86 204.36,404.91 204.24,406.96 204.11,409.01 203.97,411.05 203.84,413.09 " stroke="green" fill="none" marker-end="url(#sat-28)"/>
<polyline points="203.84,413.09 203.70,415.13 203.55,417.17 203.41,419.20 203.26,421.23 203.11,423.26 202.96,425.29 202.81,427.32 202.65,429.34 202.50,431.36 202.34,433.37 202.19,435.38 202.03,437.39 201.87,439.40 201.72,441.40 201.56,443.40 201.41,445.40 201.25,447.39 201.10,449.38 200.95,451.37 200.80,453.35 200.66,455.33 200.51,457.31 200.37,459.28 200.24,461.25 200.10,463.21 199.98,465.17 199.85,467.13 199.73,469.09 199.62,471.04 199.51,472.98 199.40,474.92 199.30,476.86 199.21,478.80 199.13,480.73 199.05,482.66 198.98,484.58 198.91,486.50 198.86,488.42 198.81,490.33 198.77,492.24 198.74,494.15 198.72,496.05 198.71,497.94 198.71,499.84 198.72,501.73 198.74,503.62 198.78,505.50 198.82,507.38 198.88,509.25 198.94,511.12 199.03,512.99 199.12,514.86 199.23,516.72 199.35,518.57 199.49,520.42 199.64,522.27 199.80,524.12 199.99,525.96 200.18,527.80 200.40,529.63 200.63,531.46 200.88,533.28 201.15,535.11 201.43,536.92 201.74,538.74 202.06,540.54 202.40,542.35 202.76,544.15 203.15,545.94 203.55,547.74 203.98,549.52 " stroke="green" fill="none" marker-end="url(#arrow-green)"/>
<polyline points="230.02,414.44 230.87,412.68 231.73,410.91 232.60,409.16 233.49,407.41 234.39,405.67 235.31,403.93 236.25,402.20 237.19,400.48 238.15,398.77 239.13,397.06 240.12,395.36 241.13,393.67 242.15,391.99 243.18,390.32 244.23,388.66 245.30,387.00 246.38,385.36 247.47,383.73 248.58,382.11 249.71,380.49 250.85,378.89 252.00,377.30 253.17,375.73 254.36,374.16 255.55,372.61 256.77,371.06 258.00,369.54 259.24,368.02 260.50,366.52 261.77,365.03 263.06,363.55 264.36,362.09 265.67,360.65 267.00,359.22 268.34,357.80 269.70,356.40 271.07,355.01 272.46,353.65 273.86,352.29 275.27,350.96 276.70,349.64 278.14,348.33 279.59,347.05 281.06,345.78 282.54,344.53 284.03,343.29 285.53,342.08 287.05,340.88 288.58,339.71 290.12,338.55 291.67,337.41 293.24,336.29 294.82,335.19 296.40,334.11 298.00,333.05 299.61,332.01 301.23,330.99 302.87,330.00 304.51,329.02 306.16,328.06 307.82,327.13 309.50,326.22 311.18,325.33 312.87,324.46 314.57,323.61 316.28,322.79 318.00,321.99 319.72,321.21 321.46,320.45 323.20,319.72 324.95,319.01 326.71,318.33 328.47,317.66 330.24,317.03 332.02,316.41 333.80,315.82 335.59,315.25 337.39,314.71 339.19,314.19 " stroke="green" fill="none" marker-end="url(#sat-29)"/>
<polyline points="339.19,314.19 341.00,313.70 342.81,313.23 344.63,312.78 346.45,312.36 348.28,311.97 350.10,311.60 351.94,311.25 353.77,310.93 355.61,310.63 357.46,310.36 359.30,310.12 361.15,309.90 363.00,309.70 364.85,309.53 366.70,309.39 368.55,309.27 370.41,309.17 372.26,309.11 374.12,309.06 375.97,309.04 377.83,309.05 379.68,309.08 381.54,309.14 383.39,309.23 385.24,309.34 387.09,309.47 388.94,309.63 390.78,309.81 392.63,310.02 394.47,310.26 396.30,310.52 398.14,310.80 399.97,311.11 401.79,311.44 403.62,311.80 405.44,312.18 407.25,312.59 409.06,313.02 410.86,313.48 412.66,313.96 414.45,314.47 416.24,315.00 418.02,315.55 419.80,316.12 421.57,316.72 423.33,317.35 425.08,317.99 426.83,318.66 428.57,319.36 430.30,320.07 432.03,320.81 433.74,321.57 435.45,322.36 437.15,323.16 438.84,323.99 440.52,324.84 442.20,325.71 443.86,326.61 445.51,327.52 447.16,328.46 448.79,329.41 450.42,330.39 452.03,331.39 453.63,332.41 455.23,333.45 456.81,334.50 458.38,335.58 459.94,336.68 461.49,337.80 463.03,338.93 464.55,340.09 466.07,341.26 467.57,342.45 469.06,343.66 470.54,344.89 472.01,346.14 473.46,347.40 474.91,348.68 476.34,349.98 477.75,351.29 479.16,352.62 " stroke="green" fill="none" marker-end="url(#arrow-green)"/>
<polyline points="163.00,200.55 163.82,201.99 164.61,203.44 165.39,204.91 166.15,206.40 166.90,207.90 167.63,209.42 168.34,210.95 169.04,212.49 169.72,214.05 170.38,215.62 171.03,217.21 171.66,218.81 172.27,220.42 172.87,222.04 173.46,223.68 174.02,225.34 174.57,227.00 175.11,228.68 175.62,230.37 176.13,232.07 176.61,233.78 177.08,235.51 177.54,237.25 177.98,238.99 178.40,240.75 178.81,242.52 179.20,244.31 179.58,246.10 179.94,247.90 180.29,249.71 180.62,251.54 180.94,253.37 181.24,255.21 181.53,257.06 181.80,258.92 182.06,260.79 182.31,262.67 182.54,264.56 182.75,266.45 182.95,268.36 183.14,270.27 183.31,272.19 183.48,274.11 183.62,276.05 183.76,277.99 183.88,279.94 183.98,281.89 184.08,283.85 184.16,285.82 184.23,287.79 184.29,289.77 184.33,291.76 184.36,293.75 184.38,295.74 184.39,297.74 184.39,299.75 184.37,301.76 184.35,303.77 184.31,305.79 184.26,307.81 184.20,309.84 184.13,311.87 184.05,313.90 183.96,315.93 183.86,317.97 183.75,320.01 183.63,322.06 183.50,324.10 183.36,326.15 183.21,328.20 183.05,330.25 182.89,332.31 182.71,334.36 182.53,336.42 182.34,338.47 182.14,340.53 181.94,342.59 181.72,344.65 181.50,346.71 " stroke="green" fill="none" marker-end="url(#sat-31)"/>
<polyline points="181.50,346.71 181.27,348.77 181.04,350.83 180.80,352.89 180.55,354.95 180.30,357.00 180.04,359.06 179.77,361.12 179.50,363.17 179.23,365.23 178.94,367.28 178.66,369.34 178.37,371.39 178.07,373.44 177.78,375.49 177.47,377.53 177.17,379.58 176.86,381.62 176.54,383.66 176.23,385.70 175.91,387.73 175.59,389.77 175.27,391.80 174.94,393.83 174.62,395.85 174.29,397.88 173.96,399.90 173.63,401.92 173.30,403.93 172.97,405.95 172.64,407.96 172.31,409.97 171.98,411.97 171.65,413.97 171.32,415.97 170.99,417.97 170.66,419.96 170.34,421.95 170.02,423.93 169.70,425.92 169.38,427.90 169.06,429.88 168.75,431.85 168.44,433.82 168.14,435.79 167.84,437.75 167.54,439.71 167.25,441.67 166.96,443.63 166.68,445.58 166.40,447.53 166.13,449.48 165.86,451.42 165.60,453.36 165.35,455.30 165.10,457.24 164.87,459.17 164.63,461.10 164.41,463.03 164.20,464.95 163.99,466.87 163.79,468.79 163.60,470.71 163.42,472.62 163.25,474.54 163.10,476.44 162.95,478.35 162.81,480.26 162.68,482.16 162.57,484.06 162.46,485.96 162.37,487.85 162.29,489.74 162.23,491.64 162.18,493.52 162.14,495.41 162.11,497.30 162.10,499.18 162.11,501.06 162.13,502.94 162.16,504.82 162.22,506.69 " stroke="green" fill="none" marker-end="url(#arrow-green)"/>
<polyline points="172.83,235.05 172.45,236.92 172.07,238.80 171.67,240.68 171.26,242.56 170.84,244.45 170.40,246.35 169.96,248.25 169.50,250.15 169.03,252.06 168.55,253.97 168.06,255.88 167.56,257.80 167.05,259.72 166.53,261.65 166.00,263.58 165.46,265.51 164.91,267.45 164.35,269.39 163.78,271.33 163.20,273.28 162.61,275.23 162.02,277.18 161.41,279.13 160.80,281.09 160.18,283.05 159.55,285.01 158.92,286.97 158.28,288.94 157.63,290.90 156.97,292.87 156.31,294.84 155.64,296.82 154.97,298.79 154.28,300.77 153.60,302.74 152.91,304.72 152.21,306.70 151.51,308.68 150.80,310.67 150.09,312.65 149.38,314.63 148.66,316.62 147.94,318.60 147.21,320.59 146.48,322.58 145.75,324.57 145.01,326.55 144.28,328.54 143.54,330.53 142.80,332.52 142.05,334.51 141.31,336.50 140.57,338.49 139.82,340.49 139.07,342.48 138.33,344.47 137.58,346.46 136.83,348.45 " stroke="green" fill="none" marker-end="url(#sat-32)"/>
<polyline points="136.83,348.45 136.09,350.44 135.34,352.44 134.59,354.43 133.85,356.42 133.11,358.41 132.37,360.41 131.63,362.40 130.89,364.39 130.16,366.39 129.43,368.38 128.70,370.37 127.98,372.37 127.26,374.36 126.54,376.36 125.83,378.35 125.12,380.34 124.42,382.34 123.72,384.34 123.03,386.33 122.34,388.33 121.66,390.33 120.99,392.33 120.32,394.33 119.66,396.33 119.01,398.33 118.36,400.33 117.72,402.33 117.09,404.33 116.47,406.34 115.86,408.35 115.26,410.35 114.66,412.36 114.08,414.37 113.50,416.39 112.94,418.40 112.39,420.41 111.85,422.43 111.32,424.45 110.80,426.47 110.29,428.50 109.80,430.52 109.32,432.55 108.85,434.58 108.40,436.61 107.96,438.65 107.54,440.69 107.13,442.73 106.73,444.77 106.35,446.82 105.99,448.87 105.65,450.92 105.32,452.98 105.01,455.04 104.71,457.10 104.44,459.17 104.18,461.24 103.94,463.32 103.72,465.39 103.53,467.47 " stroke="green" fill="none" marker-end="url(#arrow-green)"/>
<polyline points="" stroke="green" fill="none" marker-end="url(#sat-32)"/>
<polyline points="" stroke="green" fill="none" marker-end="url(#arrow-green)"/>
</svg>
