<svg xmlns="http://www.w3.org/2000/svg" width="800" height="800">
<style>text { font-family: 'Segoe UI',Arial, sans-serif; fill: #222222; }</style>
<rect width="100%" height="100%" fill="white"/>
<text x="400" y="30" text-anchor="middle" font-size="20">Sky Plot of Filtered GPS Satellite Trajectories from the rinex.nav</text>
<rect x="1" y="1" width="798" height="798" fill="none" stroke="gray" stroke-width="2" />
<defs>
<marker id="arrow-green" markerWidth="10" markerHeight="10" refX="10" refY="5" orient="auto" markerUnits="strokeWidth">
<path d="M0,0 L10,5 L0,10 Z" fill="green" />
</marker>
<marker id="arrow-yellow" markerWidth="10" markerHeight="10" refX="10" refY="5" orient="auto" markerUnits="strokeWidth">
<path d="M0,0 L10,5 L0,10 Z" fill="yellow" />
</marker>
<marker id="arrow-orange" markerWidth="10" markerHeight="10" refX="10" refY="5" orient="auto" markerUnits="strokeWidth">
<path d="M0,0 L10,5 L0,10 Z" fill="orange" />
</marker>
<marker id="arrow-red" markerWidth="10" markerHeight="10" refX="10" refY="5" orient="auto" markerUnits="strokeWidth">
<path d="M0,0 L10,5 L0,10 Z" fill="red" />
</marker>
</defs>
<defs>
<marker id="sat-1" markerWidth="30" markerHeight="30" refX="23" refY="15" orient="auto" markerUnits="userSpaceOnUse">
  <circle cx="15" cy="15" r="10" fill="white" stroke="black" />
  <text x="15" y="20" font-size="14" text-anchor="middle">1</text>
</marker>
<marker id="sat-4" markerWidth="30" markerHeight="30" refX="23" refY="15" orient="auto" markerUnits="userSpaceOnUse">
  <circle cx="15" cy="15" r="10" fill="white" stroke="black" />
  <text x="15" y="20" font-size="14" text-anchor="middle">4</text>
</marker>
<marker id="sat-5" markerWidth="30" markerHeight="30" refX="23" refY="15" orient="auto" markerUnits="userSpaceOnUse">
  <circle cx="15" cy="15" r="10" fill="white" stroke="black" />
  <text x="15" y="20" font-size="14" text-anchor="middle">5</text>
</marker>
</defs>
<circle cx="400.0" cy="400.0" r="330.0" stroke="#cccccc" fill="none" />
<circle cx="400.0" cy="400.0" r="311.7" stroke="#cccccc" fill="none" />
<circle cx="400.0" cy="400.0" r="293.3" stroke="#cccccc" fill="none" />
<circle cx="400.0" cy="400.0" r="275.0" stroke="#cccccc" fill="none" />
<circle cx="400.0" cy="400.0" r="220.0" stroke="#cccccc" fill="none" />
<circle cx="400.0" cy="400.0" r="110.0" stroke="#cccccc" fill="none" />
<line x1="70.0" y1="400.0" x2="730.0" y2="400.0" stroke="#cccccc" />
<line x1="400.0" y1="70.0" x2="400.0" y2="730.0" stroke="#cccccc" />
<text x="400.0" y="60.0" font-size="16" text-anchor="middle">N</text>
<text x="750.0" y="400.0" font-size="16" text-anchor="middle">E</text>
<text x="400.0" y="760.0" font-size="16" text-anchor="middle">S</text>
<text x="50.0" y="400.0" font-size="16" text-anchor="middle">W</text>
<text x="402.0" y="140.0" font-size="14" fill="#666666">15°</text>
<text x="402.0" y="195.0" font-size="14" fill="#666666">30°</text>
<text x="402.0" y="305.0" font-size="14" fill="#666666">60°</text>
<rect x="20" y="60" width="20" height="10" fill="green" /><text x="50" y="70" font-size="14" fill="black">fitInterval = 4 h</text>
<rect x="20" y="85" width="20" height="10" fill="yellow" /><text x="50" y="95" font-size="14" fill="black">fitInterval = 6 h</text>
<rect x="20" y="110" width="20" height="10" fill="orange" /><text x="50" y="120" font-size="14" fill="black">fitInterval = 8 h</text>
<rect x="20" y="135" width="20" height="10" fill="red" /><text x="50" y="145" font-size="14" fill="black">fitInterval ≥ 10 h</text>
<polyline points="614.71,170.91 611.96,169.47 609.20,168.04 606.44,166.61 603.68,165.18 600.92,163.76 598.16,162.34 595.40,160.91 592.64,159.49 589.88,158.08 587.12,156.66 584.36,155.24 581.61,153.83 578.85,152.42 576.09,151.00 573.34,149.59 570.58,148.18 567.83,146.77 565.08,145.36 562.33,143.95 559.59,142.54 556.84,141.13 554.10,139.73 551.36,138.32 548.62,136.91 545.89,135.50 543.16,134.09 540.44,132.69 537.71,131.28 534.99,129.87 532.28,128.46 529.57,127.05 526.86,125.64 524.16,124.23 521.46,122.82 " stroke="green" fill="none" marker-end="url(#sat-1)"/>
<polyline points="518.77,121.41 516.08,120.00 513.40,118.59 510.72,117.17 508.05,115.76 505.38,114.35 502.72,112.93 500.07,111.52 497.42,110.10 494.78,108.68 492.15,107.27 489.52,105.85 486.90,104.43 484.29,103.01 481.68,101.58 479.08,100.16 476.49,98.74 473.91,97.31 471.33,95.89 468.76,94.46 466.20,93.03 463.65,91.60 461.11,90.17 458.57,88.74 456.05,87.31 453.53,85.87 451.02,84.44 448.52,83.00 446.03,81.56 443.55,80.13 441.07,78.69 438.61,77.25 436.16,75.80 433.71,74.36 431.28,72.91 428.85,71.47 " stroke="green" fill="none" marker-end="url(#arrow-green)"/>
<polyline points="366.35,71.92 364.07,73.48 361.79,75.05 359.49,76.61 357.18,78.18 354.86,79.74 352.53,81.30 350.19,82.86 347.84,84.42 345.48,85.97 343.11,87.53 340.72,89.08 338.33,90.64 335.93,92.19 333.51,93.74 331.09,95.29 328.65,96.84 326.21,98.38 323.76,99.93 321.29,101.48 318.82,103.02 316.34,104.56 313.85,106.10 311.35,107.65 308.84,109.19 306.33,110.73 303.80,112.26 301.27,113.80 298.73,115.34 296.18,116.87 293.62,118.41 291.06,119.94 288.49,121.48 285.91,123.01 283.32,124.54 280.73,126.07 278.13,127.60 275.53,129.13 272.92,130.66 270.30,132.19 267.67,133.72 265.05,135.25 262.41,136.78 259.77,138.31 257.13,139.83 254.48,141.36 " stroke="green" fill="none" marker-end="url(#sat-4)"/>
<polyline points="251.82,142.89 249.16,144.42 246.50,145.94 243.84,147.47 241.16,149.00 238.49,150.53 235.81,152.05 233.13,153.58 230.45,155.11 227.76,156.64 225.07,158.17 222.38,159.70 219.69,161.23 216.99,162.76 214.30,164.29 211.60,165.83 208.90,167.36 206.20,168.90 203.49,170.44 200.79,171.98 198.09,173.52 195.38,175.06 192.68,176.60 189.97,178.15 187.27,179.70 184.57,181.25 181.86,182.80 179.16,184.36 176.46,185.91 173.76,187.48 171.06,189.04 168.36,190.61 165.67,192.18 162.97,193.75 160.28,195.33 157.59,196.91 154.90,198.50 152.22,200.09 149.53,201.68 146.85,203.29 144.18,204.89 141.50,206.50 138.83,208.12 136.17,209.74 133.50,211.37 130.84,213.00 128.19,214.64 " stroke="green" fill="none" marker-end="url(#arrow-green)"/>
<polyline points="261.90,534.85 261.61,537.65 261.33,540.45 261.04,543.24 260.75,546.02 260.47,548.80 260.18,551.58 259.90,554.35 259.61,557.11 259.33,559.87 259.05,562.62 258.78,565.37 258.51,568.11 258.24,570.85 257.97,573.58 257.71,576.31 257.45,579.03 257.20,581.74 256.95,584.45 256.71,587.16 256.48,589.85 256.26,592.55 256.04,595.23 255.83,597.92 255.62,600.59 255.43,603.26 255.24,605.93 255.07,608.59 254.90,611.24 254.75,613.89 254.61,616.53 " stroke="green" fill="none" marker-end="url(#sat-5)"/>
<polyline points="254.48,619.17 254.36,621.80 254.25,624.43 254.16,627.05 254.08,629.67 254.01,632.28 253.96,634.89 253.92,637.49 253.90,640.08 253.90,642.67 253.91,645.26 253.94,647.84 253.99,650.42 254.05,652.99 254.14,655.55 254.24,658.11 254.37,660.66 254.51,663.21 254.68,665.76 254.87,668.30 255.08,670.83 255.31,673.36 255.57,675.89 255.85,678.40 256.16,680.92 256.49,683.43 256.84,685.93 257.23,688.43 257.64,690.92 258.08,693.40 258.55,695.89 259.04,698.36 " stroke="green" fill="none" marker-end="url(#arrow-green)"/>
<polyline points="695.56,543.75 694.90,540.93 694.22,538.11 693.52,535.30 692.80,532.49 692.05,529.69 691.28,526.90 690.49,524.11 689.68,521.33 688.85,518.55 688.00,515.77 687.14,513.01 686.25,510.24 685.35,507.48 684.43,504.72 683.49,501.97 682.53,499.22 681.56,496.48 680.58,493.73 679.58,491.00 678.56,488.26 677.53,485.53 676.49,482.79 675.43,480.07 674.36,477.34 673.28,474.62 672.18,471.89 671.07,469.17 669.96,466.45 668.83,463.74 667.69,461.02 666.54,458.31 665.38,455.59 664.21,452.88 663.03,450.17 661.84,447.46 660.65,444.74 659.45,442.03 658.24,439.32 657.02,436.61 655.79,433.90 654.56,431.19 653.33,428.48 652.08,425.77 650.84,423.06 649.58,420.35 648.32,417.64 647.06,414.93 645.80,412.22 644.53,409.51 643.26,406.79 641.98,404.08 640.70,401.37 639.42,398.65 638.14,395.94 636.86,393.22 635.57,390.51 634.29,387.79 633.00,385.07 631.71,382.35 630.43,379.63 629.14,376.92 627.86,374.20 626.58,371.47 625.29,368.75 624.02,366.03 622.74,363.31 621.46,360.59 " stroke="green" fill="none" marker-end="url(#sat-5)"/>
<polyline points="620.19,357.87 618.92,355.15 617.66,352.42 616.40,349.70 615.14,346.98 613.89,344.26 612.65,341.53 611.40,338.81 610.17,336.09 608.94,333.37 607.72,330.65 606.50,327.93 605.29,325.21 604.09,322.50 602.90,319.78 601.71,317.07 600.53,314.35 599.36,311.64 598.20,308.93 597.05,306.22 595.91,303.51 594.78,300.81 593.66,298.10 592.55,295.40 591.45,292.71 590.37,290.01 589.29,287.32 588.23,284.63 587.17,281.94 586.14,279.26 585.11,276.58 584.10,273.90 583.10,271.23 582.11,268.56 581.14,265.89 580.18,263.23 579.24,260.57 578.31,257.92 577.40,255.27 576.51,252.63 575.62,249.99 574.76,247.35 573.91,244.72 573.08,242.10 572.27,239.48 571.47,236.87 570.69,234.26 569.93,231.66 569.18,229.07 568.46,226.48 567.75,223.90 567.06,221.32 566.39,218.75 565.74,216.19 565.11,213.63 564.50,211.09 563.91,208.55 563.34,206.01 562.79,203.49 562.26,200.97 561.75,198.46 561.26,195.95 560.79,193.46 560.35,190.97 559.92,188.49 559.52,186.02 559.14,183.56 558.78,181.11 558.45,178.67 " stroke="green" fill="none" marker-end="url(#arrow-green)"/>
</svg>
