<svg xmlns="http://www.w3.org/2000/svg" width="800" height="800">
<style>text { font-family: 'Segoe UI',Arial, sans-serif; fill: #222222; }</style>
<rect width="100%" height="100%" fill="white"/>
<text x="400" y="30" text-anchor="middle" font-size="20">Sky Plot of GPS Satellite Trajectories from the rinex.nav</text>
<rect x="1" y="1" width="798" height="798" fill="none" stroke="gray" stroke-width="2" />
<defs>
<marker id="arrow-green" markerWidth="10" markerHeight="10" refX="10" refY="5" orient="auto" markerUnits="strokeWidth">
<path d="M0,0 L10,5 L0,10 Z" fill="green" />
</marker>
<marker id="arrow-yellow" markerWidth="10" markerHeight="10" refX="10" refY="5" orient="auto" markerUnits="strokeWidth">
<path d="M0,0 L10,5 L0,10 Z" fill="yellow" />
</marker>
<marker id="arrow-orange" markerWidth="10" markerHeight="10" refX="10" refY="5" orient="auto" markerUnits="strokeWidth">
<path d="M0,0 L10,5 L0,10 Z" fill="orange" />
</marker>
<marker id="arrow-red" markerWidth="10" markerHeight="10" refX="10" refY="5" orient="auto" markerUnits="strokeWidth">
<path d="M0,0 L10,5 L0,10 Z" fill="red" />
</marker>
</defs>
<defs>
<marker id="sat-1" markerWidth="30" markerHeight="30" refX="23" refY="15" orient="auto" markerUnits="userSpaceOnUse">
  <circle cx="15" cy="15" r="10" fill="white" stroke="black" />
  <text x="15" y="20" font-size="14" text-anchor="middle">1</text>
</marker>
<marker id="sat-4" markerWidth="30" markerHeight="30" refX="23" refY="15" orient="auto" markerUnits="userSpaceOnUse">
  <circle cx="15" cy="15" r="10" fill="white" stroke="black" />
  <text x="15" y="20" font-size="14" text-anchor="middle">4</text>
</marker>
<marker id="sat-5" markerWidth="30" markerHeight="30" refX="23" refY="15" orient="auto" markerUnits="userSpaceOnUse">
  <circle cx="15" cy="15" r="10" fill="white" stroke="black" />
  <text x="15" y="20" font-size="14" text-anchor="middle">5</text>
</marker>
<marker id="sat-6" markerWidth="30" markerHeight="30" refX="23" refY="15" orient="auto" markerUnits="userSpaceOnUse">
  <circle cx="15" cy="15" r="10" fill="white" stroke="black" />
  <text x="15" y="20" font-size="14" text-anchor="middle">6</text>
</marker>
<marker id="sat-7" markerWidth="30" markerHeight="30" refX="23" refY="15" orient="auto" markerUnits="userSpaceOnUse">
  <circle cx="15" cy="15" r="10" fill="white" stroke="black" />
  <text x="15" y="20" font-size="14" text-anchor="middle">7</text>
</marker>
<marker id="sat-9" markerWidth="30" markerHeight="30" refX="23" refY="15" orient="auto" markerUnits="userSpaceOnUse">
  <circle cx="15" cy="15" r="10" fill="white" stroke="black" />
  <text x="15" y="20" font-size="14" text-anchor="middle">9</text>
</marker>
<marker id="sat-10" markerWidth="30" markerHeight="30" refX="23" refY="15" orient="auto" markerUnits="userSpaceOnUse">
  <circle cx="15" cy="15" r="10" fill="white" stroke="black" />
  <text x="15" y="20" font-size="14" text-anchor="middle">10</text>
</marker>
<marker id="sat-11" markerWidth="30" markerHeight="30" refX="23" refY="15" orient="auto" markerUnits="userSpaceOnUse">
  <circle cx="15" cy="15" r="10" fill="white" stroke="black" />
  <text x="15" y="20" font-size="14" text-anchor="middle">11</text>
</marker>
<marker id="sat-12" markerWidth="30" markerHeight="30" refX="23" refY="15" orient="auto" markerUnits="userSpaceOnUse">
  <circle cx="15" cy="15" r="10" fill="white" stroke="black" />
  <text x="15" y="20" font-size="14" text-anchor="middle">12</text>
</marker>
<marker id="sat-14" markerWidth="30" markerHeight="30" refX="23" refY="15" orient="auto" markerUnits="userSpaceOnUse">
  <circle cx="15" cy="15" r="10" fill="white" stroke="black" />
  <text x="15" y="20" font-size="14" text-anchor="middle">14</text>
</marker>
<marker id="sat-15" markerWidth="30" markerHeight="30" refX="23" refY="15" orient="auto" markerUnits="userSpaceOnUse">
  <circle cx="15" cy="15" r="10" fill="white" stroke="black" />
  <text x="15" y="20" font-size="14" text-anchor="middle">15</text>
</marker>
<marker id="sat-16" markerWidth="30" markerHeight="30" refX="23" refY="15" orient="auto" markerUnits="userSpaceOnUse">
  <circle cx="15" cy="15" r="10" fill="white" stroke="black" />
  <text x="15" y="20" font-size="14" text-anchor="middle">16</text>
</marker>
<marker id="sat-18" markerWidth="30" markerHeight="30" refX="23" refY="15" orient="auto" markerUnits="userSpaceOnUse">
  <circle cx="15" cy="15" r="10" fill="white" stroke="black" />
  <text x="15" y="20" font-size="14" text-anchor="middle">18</text>
</marker>
<marker id="sat-20" markerWidth="30" markerHeight="30" refX="23" refY="15" orient="auto" markerUnits="userSpaceOnUse">
  <circle cx="15" cy="15" r="10" fill="white" stroke="black" />
  <text x="15" y="20" font-size="14" text-anchor="middle">20</text>
</marker>
<marker id="sat-21" markerWidth="30" markerHeight="30" refX="23" refY="15" orient="auto" markerUnits="userSpaceOnUse">
  <circle cx="15" cy="15" r="10" fill="white" stroke="black" />
  <text x="15" y="20" font-size="14" text-anchor="middle">21</text>
</marker>
<marker id="sat-22" markerWidth="30" markerHeight="30" refX="23" refY="15" orient="auto" markerUnits="userSpaceOnUse">
  <circle cx="15" cy="15" r="10" fill="white" stroke="black" />
  <text x="15" y="20" font-size="14" text-anchor="middle">22</text>
</marker>
<marker id="sat-24" markerWidth="30" markerHeight="30" refX="23" refY="15" orient="auto" markerUnits="userSpaceOnUse">
  <circle cx="15" cy="15" r="10" fill="white" stroke="black" />
  <text x="15" y="20" font-size="14" text-anchor="middle">24</text>
</marker>
<marker id="sat-25" markerWidth="30" markerHeight="30" refX="23" refY="15" orient="auto" markerUnits="userSpaceOnUse">
  <circle cx="15" cy="15" r="10" fill="white" stroke="black" />
  <text x="15" y="20" font-size="14" text-anchor="middle">25</text>
</marker>
<marker id="sat-26" markerWidth="30" markerHeight="30" refX="23" refY="15" orient="auto" markerUnits="userSpaceOnUse">
  <circle cx="15" cy="15" r="10" fill="white" stroke="black" />
  <text x="15" y="20" font-size="14" text-anchor="middle">26</text>
</marker>
<marker id="sat-28" markerWidth="30" markerHeight="30" refX="23" refY="15" orient="auto" markerUnits="userSpaceOnUse">
  <circle cx="15" cy="15" r="10" fill="white" stroke="black" />
  <text x="15" y="20" font-size="14" text-anchor="middle">28</text>
</marker>
<marker id="sat-29" markerWidth="30" markerHeight="30" refX="23" refY="15" orient="auto" markerUnits="userSpaceOnUse">
  <circle cx="15" cy="15" r="10" fill="white" stroke="black" />
  <text x="15" y="20" font-size="14" text-anchor="middle">29</text>
</marker>
<marker id="sat-31" markerWidth="30" markerHeight="30" refX="23" refY="15" orient="auto" markerUnits="userSpaceOnUse">
  <circle cx="15" cy="15" r="10" fill="white" stroke="black" />
  <text x="15" y="20" font-size="14" text-anchor="middle">31</text>
</marker>
<marker id="sat-32" markerWidth="30" markerHeight="30" refX="23" refY="15" orient="auto" markerUnits="userSpaceOnUse">
  <circle cx="15" cy="15" r="10" fill="white" stroke="black" />
  <text x="15" y="20" font-size="14" text-anchor="middle">32</text>
</marker>
</defs>
<circle cx="400.0" cy="400.0" r="330.0" stroke="#cccccc" fill="none" />
<circle cx="400.0" cy="400.0" r="311.7" stroke="#cccccc" fill="none" />
<circle cx="400.0" cy="400.0" r="293.3" stroke="#cccccc" fill="none" />
<circle cx="400.0" cy="400.0" r="275.0" stroke="#cccccc" fill="none" />
<circle cx="400.0" cy="400.0" r="220.0" stroke="#cccccc" fill="none" />
<circle cx="400.0" cy="400.0" r="110.0" stroke="#cccccc" fill="none" />
<line x1="70.0" y1="400.0" x2="730.0" y2="400.0" stroke="#cccccc" />
<line x1="400.0" y1="70.0" x2="400.0" y2="730.0" stroke="#cccccc" />
<text x="400.0" y="60.0" font-size="16" text-anchor="middle">N</text>
<text x="750.0" y="400.0" font-size="16" text-anchor="middle">E</text>
<text x="400.0" y="760.0" font-size="16" text-anchor="middle">S</text>
<text x="50.0" y="400.0" font-size="16" text-anchor="middle">W</text>
<text x="402.0" y="140.0" font-size="14" fill="#666666">15°</text>
<text x="402.0" y="195.0" font-size="14" fill="#666666">30°</text>
<text x="402.0" y="305.0" font-size="14" fill="#666666">60°</text>
<rect x="20" y="60" width="20" height="10" fill="green" /><text x="50" y="70" font-size="14" fill="black">fitInterval = 4 h</text>
<rect x="20" y="85" width="20" height="10" fill="yellow" /><text x="50" y="95" font-size="14" fill="black">fitInterval = 6 h</text>
<rect x="20" y="110" width="20" height="10" fill="orange" /><text x="50" y="120" font-size="14" fill="black">fitInterval = 8 h</text>
<rect x="20" y="135" width="20" height="10" fill="red" /><text x="50" y="145" font-size="14" fill="black">fitInterval ≥ 10 h</text>
<polyline points="614.71,170.91 611.96,169.47 609.20,168.04 606.44,166.61 603.68,165.18 600.92,163.76 598.16,162.34 595.40,160.91 592.64,159.49 589.88,158.08 587.12,156.66 584.36,155.24 581.61,153.83 578.85,152.42 576.09,151.00 573.34,149.59 570.58,148.18 567.83,146.77 565.08,145.36 562.33,143.95 559.59,142.54 556.84,141.13 554.10,139.73 551.36,138.32 548.62,136.91 545.89,135.50 543.16,134.09 540.44,132.69 537.71,131.28 534.99,129.87 532.28,128.46 529.57,127.05 526.86,125.64 524.16,124.23 521.46,122.82 " stroke="green" fill="none" marker-end="url(#sat-1)"/>
<polyline points="518.77,121.41 516.08,120.00 513.40,118.59 510.72,117.17 508.05,115.76 505.38,114.35 502.72,112.93 500.07,111.52 497.42,110.10 494.78,108.68 492.15,107.27 489.52,105.85 486.90,104.43 484.29,103.01 481.68,101.58 479.08,100.16 476.49,98.74 473.91,97.31 471.33,95.89 468.76,94.46 466.20,93.03 463.65,91.60 461.11,90.17 458.57,88.74 456.05,87.31 453.53,85.87 451.02,84.44 448.52,83.00 446.03,81.56 443.55,80.13 441.07,78.69 438.61,77.25 436.16,75.80 433.71,74.36 431.28,72.91 428.85,71.47 " stroke="green" fill="none" marker-end="url(#arrow-green)"/>
<polyline points="366.35,71.92 364.07,73.48 361.79,75.05 359.49,76.61 357.18,78.18 354.86,79.74 352.53,81.30 350.19,82.86 347.84,84.42 345.48,85.97 343.11,87.53 340.72,89.08 338.33,90.64 335.93,92.19 333.51,93.74 331.09,95.29 328.65,96.84 326.21,98.38 323.76,99.93 321.29,101.48 318.82,103.02 316.34,104.56 313.85,106.10 311.35,107.65 308.84,109.19 306.33,110.73 303.80,112.26 301.27,113.80 298.73,115.34 296.18,116.87 293.62,118.41 291.06,119.94 288.49,121.48 285.91,123.01 283.32,124.54 280.73,126.07 278.13,127.60 275.53,129.13 272.92,130.66 270.30,132.19 267.67,133.72 265.05,135.25 262.41,136.78 259.77,138.31 257.13,139.83 254.48,141.36 " stroke="green" fill="none" marker-end="url(#sat-4)"/>
<polyline points="251.82,142.89 249.16,144.42 246.50,145.94 243.84,147.47 241.16,149.00 238.49,150.53 235.81,152.05 233.13,153.58 230.45,155.11 227.76,156.64 225.07,158.17 222.38,159.70 219.69,161.23 216.99,162.76 214.30,164.29 211.60,165.83 208.90,167.36 206.20,168.90 203.49,170.44 200.79,171.98 198.09,173.52 195.38,175.06 192.68,176.60 189.97,178.15 187.27,179.70 184.57,181.25 181.86,182.80 179.16,184.36 176.46,185.91 173.76,187.48 171.06,189.04 168.36,190.61 165.67,192.18 162.97,193.75 160.28,195.33 157.59,196.91 154.90,198.50 152.22,200.09 149.53,201.68 146.85,203.29 144.18,204.89 141.50,206.50 138.83,208.12 136.17,209.74 133.50,211.37 130.84,213.00 128.19,214.64 " stroke="green" fill="none" marker-end="url(#arrow-green)"/>
<polyline points="261.90,534.85 261.61,537.65 261.33,540.45 261.04,543.24 260.75,546.02 260.47,548.80 260.18,551.58 259.90,554.35 259.61,557.11 259.33,559.87 259.05,562.62 258.78,565.37 258.51,568.11 258.24,570.85 257.97,573.58 257.71,576.31 257.45,579.03 257.20,581.74 256.95,584.45 256.71,587.16 256.48,589.85 256.26,592.55 256.04,595.23 255.83,597.92 255.62,600.59 255.43,603.26 255.24,605.93 255.07,608.59 254.90,611.24 254.75,613.89 254.61,616.53 " stroke="green" fill="none" marker-end="url(#sat-5)"/>
<polyline points="254.48,619.17 254.36,621.80 254.25,624.43 254.16,627.05 254.08,629.67 254.01,632.28 253.96,634.89 253.92,637.49 253.90,640.08 253.90,642.67 253.91,645.26 253.94,647.84 253.99,650.42 254.05,652.99 254.14,655.55 254.24,658.11 254.37,660.66 254.51,663.21 254.68,665.76 254.87,668.30 255.08,670.83 255.31,673.36 255.57,675.89 255.85,678.40 256.16,680.92 256.49,683.43 256.84,685.93 257.23,688.43 257.64,690.92 258.08,693.40 258.55,695.89 259.04,698.36 " stroke="green" fill="none" marker-end="url(#arrow-green)"/>
<polyline points="695.56,543.75 694.90,540.93 694.22,538.11 693.52,535.30 692.80,532.49 692.05,529.69 691.28,526.90 690.49,524.11 689.68,521.33 688.85,518.55 688.00,515.77 687.14,513.01 686.25,510.24 685.35,507.48 684.43,504.72 683.49,501.97 682.53,499.22 681.56,496.48 680.58,493.73 679.58,491.00 678.56,488.26 677.53,485.53 676.49,482.79 675.43,480.07 674.36,477.34 673.28,474.62 672.18,471.89 671.07,469.17 669.96,466.45 668.83,463.74 667.69,461.02 666.54,458.31 665.38,455.59 664.21,452.88 663.03,450.17 661.84,447.46 660.65,444.74 659.45,442.03 658.24,439.32 657.02,436.61 655.79,433.90 654.56,431.19 653.33,428.48 652.08,425.77 650.84,423.06 649.58,420.35 648.32,417.64 647.06,414.93 645.80,412.22 644.53,409.51 643.26,406.79 641.98,404.08 640.70,401.37 639.42,398.65 638.14,395.94 636.86,393.22 635.57,390.51 634.29,387.79 633.00,385.07 631.71,382.35 630.43,379.63 629.14,376.92 627.86,374.20 626.58,371.47 625.29,368.75 624.02,366.03 622.74,363.31 621.46,360.59 " stroke="green" fill="none" marker-end="url(#sat-5)"/>
<polyline points="620.19,357.87 618.92,355.15 617.66,352.42 616.40,349.70 615.14,346.98 613.89,344.26 612.65,341.53 611.40,338.81 610.17,336.09 608.94,333.37 607.72,330.65 606.50,327.93 605.29,325.21 604.09,322.50 602.90,319.78 601.71,317.07 600.53,314.35 599.36,311.64 598.20,308.93 597.05,306.22 595.91,303.51 594.78,300.81 593.66,298.10 592.55,295.40 591.45,292.71 590.37,290.01 589.29,287.32 588.23,284.63 587.17,281.94 586.14,279.26 585.11,276.58 584.10,273.90 583.10,271.23 582.11,268.56 581.14,265.89 580.18,263.23 579.24,260.57 578.31,257.92 577.40,255.27 576.51,252.63 575.62,249.99 574.76,247.35 573.91,244.72 573.08,242.10 572.27,239.48 571.47,236.87 570.69,234.26 569.93,231.66 569.18,229.07 568.46,226.48 567.75,223.90 567.06,221.32 566.39,218.75 565.74,216.19 565.11,213.63 564.50,211.09 563.91,208.55 563.34,206.01 562.79,203.49 562.26,200.97 561.75,198.46 561.26,195.95 560.79,193.46 560.35,190.97 559.92,188.49 559.52,186.02 559.14,183.56 558.78,181.11 558.45,178.67 " stroke="green" fill="none" marker-end="url(#arrow-green)"/>
<polyline points="646.93,407.43 645.59,404.75 644.24,402.08 642.90,399.41 641.54,396.74 640.19,394.07 638.84,391.40 637.48,388.73 636.12,386.05 634.77,383.38 633.41,380.71 632.05,378.04 630.70,375.37 629.34,372.70 627.99,370.03 626.64,367.36 625.28,364.69 623.94,362.02 622.59,359.35 621.25,356.68 619.91,354.01 618.57,351.34 617.24,348.67 615.92,346.01 614.59,343.34 613.28,340.67 611.97,338.00 610.66,335.34 609.36,332.67 608.07,330.01 606.78,327.35 605.50,324.68 604.23,322.02 602.96,319.36 601.71,316.70 600.46,314.05 599.22,311.39 597.99,308.74 596.77,306.09 595.56,303.43 594.36,300.79 593.17,298.14 591.99,295.50 590.82,292.85 589.66,290.21 588.52,287.58 587.38,284.94 586.26,282.31 585.15,279.68 584.06,277.06 582.98,274.44 581.91,271.82 580.85,269.20 579.81,266.59 578.78,263.98 577.77,261.38 576.77,258.78 575.79,256.18 574.83,253.59 573.88,251.00 " stroke="green" fill="none" marker-end="url(#sat-6)"/>
<polyline points="572.94,248.42 572.02,245.84 571.12,243.26 570.24,240.70 569.37,238.13 568.52,235.57 567.69,233.02 566.88,230.47 566.08,227.93 565.30,225.39 564.55,222.86 563.81,220.34 563.09,217.82 562.39,215.31 561.71,212.80 561.04,210.30 560.40,207.81 559.78,205.32 559.18,202.84 558.60,200.37 558.04,197.90 557.51,195.44 556.99,192.99 556.50,190.55 556.02,188.11 555.57,185.68 555.15,183.26 554.74,180.85 554.36,178.45 554.00,176.05 553.66,173.66 553.34,171.28 553.05,168.91 552.78,166.55 552.54,164.19 552.32,161.85 552.12,159.51 551.95,157.19 551.80,154.87 551.68,152.56 551.58,150.26 551.50,147.98 551.45,145.70 551.42,143.43 551.42,141.17 551.45,138.92 551.49,136.68 551.57,134.45 551.67,132.23 551.79,130.03 551.95,127.83 552.12,125.64 552.33,123.47 552.55,121.30 552.81,119.15 553.09,117.01 553.40,114.88 553.73,112.76 554.09,110.66 554.48,108.56 " stroke="green" fill="none" marker-end="url(#arrow-green)"/>
<polyline points="" stroke="green" fill="none" marker-end="url(#sat-6)"/>
<polyline points="" stroke="green" fill="none" marker-end="url(#arrow-green)"/>
<polyline points="650.02,341.81 652.35,342.59 654.67,343.41 656.99,344.25 659.31,345.13 661.62,346.04 663.92,346.97 666.22,347.94 668.52,348.94 670.80,349.97 673.08,351.04 675.36,352.13 677.63,353.25 679.88,354.40 682.14,355.59 684.38,356.80 686.62,358.04 688.84,359.31 " stroke="green" fill="none" marker-end="url(#sat-7)"/>
<polyline points="691.06,360.61 693.27,361.94 695.47,363.30 697.67,364.69 699.85,366.11 702.02,367.55 704.18,369.02 706.33,370.52 708.47,372.05 710.60,373.60 712.72,375.18 714.83,376.79 716.92,378.43 719.01,380.09 721.08,381.78 723.14,383.49 725.19,385.23 727.22,386.99 729.24,388.78 " stroke="green" fill="none" marker-end="url(#arrow-green)"/>
<polyline points="611.26,443.38 613.14,445.24 615.01,447.13 616.86,449.04 618.69,450.97 620.50,452.92 622.29,454.88 624.06,456.87 625.82,458.88 627.55,460.90 629.27,462.94 630.96,465.00 632.64,467.08 634.30,469.17 635.94,471.28 637.56,473.40 639.16,475.54 640.74,477.70 642.30,479.87 643.84,482.05 645.37,484.25 646.87,486.46 648.36,488.69 649.82,490.92 651.27,493.17 652.70,495.44 654.11,497.71 " stroke="green" fill="none" marker-end="url(#sat-9)"/>
<polyline points="655.50,500.00 656.87,502.29 658.23,504.60 659.56,506.92 660.88,509.24 662.18,511.58 663.46,513.92 664.72,516.28 665.97,518.64 667.19,521.01 668.40,523.38 669.60,525.77 670.77,528.16 671.93,530.55 673.07,532.96 674.20,535.36 675.30,537.78 676.40,540.19 677.47,542.61 678.53,545.04 679.58,547.47 680.61,549.90 681.62,552.33 682.62,554.77 683.61,557.21 684.58,559.65 685.53,562.09 " stroke="green" fill="none" marker-end="url(#arrow-green)"/>
<polyline points="239.36,186.44 237.51,188.62 235.64,190.79 233.76,192.97 231.88,195.15 229.98,197.33 228.06,199.51 226.14,201.69 224.21,203.87 222.27,206.05 220.32,208.23 218.36,210.42 216.39,212.60 214.41,214.79 212.43,216.97 210.43,219.16 208.43,221.35 206.42,223.54 204.40,225.73 202.38,227.92 200.34,230.12 198.31,232.31 196.26,234.50 194.21,236.70 192.16,238.90 190.09,241.09 188.03,243.29 185.96,245.49 183.88,247.69 181.80,249.90 179.72,252.10 177.63,254.31 175.54,256.51 173.45,258.72 171.35,260.93 169.25,263.14 167.15,265.36 165.05,267.57 162.95,269.79 160.84,272.01 158.73,274.23 156.63,276.45 " stroke="green" fill="none" marker-end="url(#sat-10)"/>
<polyline points="154.52,278.68 152.41,280.90 150.30,283.13 148.20,285.37 146.09,287.60 143.99,289.84 141.88,292.08 139.78,294.32 137.68,296.57 135.59,298.82 133.49,301.08 131.40,303.34 129.31,305.60 127.22,307.86 125.14,310.13 123.07,312.41 120.99,314.69 118.92,316.97 116.86,319.26 114.80,321.55 112.75,323.85 110.70,326.16 108.66,328.47 106.63,330.79 104.60,333.11 102.58,335.44 100.57,337.78 98.56,340.12 96.57,342.48 94.58,344.83 92.60,347.20 90.63,349.58 88.67,351.96 86.71,354.36 84.77,356.76 82.84,359.17 80.92,361.59 79.01,364.02 77.12,366.47 75.23,368.92 73.36,371.38 71.50,373.86 " stroke="green" fill="none" marker-end="url(#arrow-green)"/>
<polyline points="634.84,573.81 634.40,571.09 633.94,568.36 633.47,565.64 632.98,562.91 632.47,560.19 631.95,557.47 631.41,554.74 630.86,552.02 630.30,549.29 629.72,546.57 629.12,543.84 628.52,541.12 627.90,538.39 627.27,535.66 626.63,532.93 625.98,530.21 625.32,527.48 624.65,524.75 623.97,522.01 623.28,519.28 622.58,516.55 621.87,513.81 621.16,511.07 620.43,508.34 619.70,505.60 618.97,502.86 618.22,500.11 617.48,497.37 616.72,494.62 615.96,491.88 615.20,489.13 614.43,486.37 613.65,483.62 612.88,480.87 612.10,478.11 611.31,475.35 610.53,472.59 609.74,469.83 608.95,467.07 608.16,464.30 607.37,461.54 606.57,458.77 605.78,456.00 604.99,453.23 604.20,450.46 603.40,447.68 602.61,444.91 601.82,442.13 601.04,439.35 600.25,436.57 599.47,433.79 598.69,431.01 597.91,428.23 597.14,425.44 596.37,422.66 595.60,419.87 594.84,417.09 594.08,414.30 593.33,411.51 " stroke="green" fill="none" marker-end="url(#sat-11)"/>
<polyline points="592.59,408.73 591.85,405.94 591.11,403.16 590.39,400.37 589.66,397.58 588.95,394.80 588.25,392.01 587.55,389.23 586.86,386.45 586.18,383.67 585.50,380.88 584.84,378.11 584.19,375.33 583.54,372.55 582.91,369.78 582.28,367.01 581.67,364.24 581.07,361.47 580.48,358.71 579.90,355.95 579.33,353.19 578.77,350.44 578.23,347.69 577.70,344.94 577.18,342.20 576.68,339.46 576.19,336.72 575.71,333.99 575.25,331.27 574.80,328.55 574.37,325.83 573.95,323.12 573.54,320.42 573.16,317.72 572.78,315.03 572.43,312.35 572.09,309.67 571.76,306.99 571.45,304.33 571.16,301.67 570.89,299.02 570.64,296.38 570.40,293.74 570.18,291.11 569.98,288.50 569.79,285.88 569.63,283.28 569.48,280.69 569.35,278.11 569.25,275.53 569.16,272.97 569.09,270.41 569.04,267.86 569.01,265.33 569.00,262.80 569.01,260.29 569.04,257.79 569.10,255.29 569.17,252.81 569.26,250.34 569.38,247.88 " stroke="green" fill="none" marker-end="url(#arrow-green)"/>
<polyline points="569.38,247.88 569.52,245.44 569.67,243.00 569.86,240.58 570.06,238.17 570.28,235.77 570.53,233.39 570.80,231.02 571.09,228.66 571.40,226.31 571.74,223.98 572.10,221.66 572.48,219.36 572.88,217.07 573.31,214.79 573.76,212.53 574.24,210.29 574.74,208.06 575.26,205.84 575.80,203.64 576.37,201.45 576.97,199.28 577.58,197.13 578.22,194.99 578.89,192.87 579.58,190.77 " stroke="green" fill="none" marker-end="url(#sat-11)"/>
<polyline points="580.29,188.68 581.03,186.61 581.79,184.55 582.58,182.51 583.39,180.49 584.23,178.49 585.09,176.51 585.97,174.54 586.88,172.59 587.81,170.66 588.77,168.75 589.76,166.85 590.77,164.98 591.80,163.12 592.86,161.29 593.94,159.47 595.05,157.67 596.18,155.90 597.34,154.14 598.52,152.40 599.73,150.68 600.96,148.99 602.21,147.31 603.50,145.66 604.80,144.03 606.13,142.41 " stroke="green" fill="none" marker-end="url(#arrow-green)"/>
<polyline points="328.38,414.79 330.71,413.45 333.06,412.14 335.43,410.85 337.80,409.60 340.20,408.38 342.60,407.18 345.02,406.02 347.45,404.89 349.90,403.78 352.36,402.71 354.83,401.67 357.31,400.66 359.80,399.69 362.31,398.74 364.82,397.83 367.35,396.95 369.88,396.10 372.43,395.29 374.98,394.50 377.55,393.76 380.12,393.04 382.70,392.36 385.28,391.71 387.88,391.10 390.48,390.52 393.09,389.97 395.70,389.46 398.32,388.98 400.94,388.54 403.57,388.13 406.20,387.76 408.84,387.42 411.48,387.12 414.12,386.85 416.76,386.61 419.41,386.41 422.06,386.25 424.71,386.12 427.36,386.03 430.01,385.97 432.66,385.95 435.31,385.96 437.96,386.01 440.61,386.09 443.25,386.21 445.89,386.36 448.53,386.55 451.17,386.77 453.81,387.03 456.43,387.32 459.06,387.64 461.68,388.00 464.30,388.40 466.90,388.83 469.51,389.29 472.10,389.79 474.69,390.33 477.28,390.89 479.85,391.49 " stroke="green" fill="none" marker-end="url(#sat-12)"/>
<polyline points="482.42,392.13 484.98,392.79 487.53,393.49 490.07,394.23 492.60,394.99 495.12,395.79 497.63,396.62 500.13,397.49 502.61,398.38 505.09,399.31 507.56,400.27 510.01,401.26 512.45,402.28 514.88,403.34 517.29,404.42 519.69,405.53 522.08,406.68 524.46,407.85 526.82,409.05 529.16,410.29 531.49,411.55 533.81,412.84 536.11,414.16 538.39,415.50 540.66,416.88 542.91,418.28 545.15,419.71 547.36,421.16 549.57,422.65 551.75,424.16 553.92,425.69 556.07,427.25 558.20,428.84 560.32,430.45 562.41,432.08 564.49,433.74 566.55,435.42 568.59,437.13 570.62,438.86 572.62,440.61 574.61,442.38 576.57,444.18 578.52,446.00 580.45,447.84 582.35,449.70 584.24,451.58 586.11,453.48 587.96,455.40 589.79,457.34 591.60,459.29 593.39,461.27 595.16,463.27 596.91,465.28 598.64,467.31 600.35,469.36 602.04,471.42 603.71,473.50 605.36,475.60 606.99,477.71 608.59,479.84 610.18,481.98 " stroke="green" fill="none" marker-end="url(#arrow-green)"/>
<polyline points="610.18,481.98 611.75,484.14 613.30,486.31 614.83,488.49 616.34,490.69 617.83,492.90 619.30,495.12 620.75,497.35 622.18,499.60 623.59,501.86 624.98,504.12 626.35,506.40 627.70,508.69 629.04,510.99 630.35,513.30 631.65,515.61 632.92,517.94 634.18,520.27 635.42,522.61 636.64,524.96 637.85,527.31 639.03,529.67 640.20,532.04 641.35,534.42 " stroke="green" fill="none" marker-end="url(#sat-12)"/>
<polyline points="642.48,536.80 643.60,539.18 644.69,541.57 645.77,543.96 646.84,546.36 647.89,548.76 648.92,551.17 649.94,553.57 650.94,555.98 651.92,558.40 652.89,560.81 653.85,563.23 654.79,565.64 655.72,568.06 656.63,570.48 657.53,572.90 658.42,575.31 659.29,577.73 660.15,580.14 661.00,582.56 661.83,584.97 662.65,587.38 663.47,589.79 664.27,592.19 665.06,594.60 " stroke="green" fill="none" marker-end="url(#arrow-green)"/>
<polyline points="577.88,302.64 579.89,301.52 581.91,300.44 583.94,299.39 585.98,298.36 588.04,297.37 590.11,296.40 592.20,295.47 594.29,294.57 596.40,293.70 598.52,292.86 600.65,292.06 602.80,291.28 604.95,290.54 607.12,289.83 609.30,289.15 611.48,288.50 613.68,287.88 615.89,287.30 618.11,286.75 620.33,286.23 622.57,285.75 624.82,285.30 627.07,284.88 629.33,284.49 631.61,284.14 633.89,283.82 636.17,283.53 638.47,283.28 640.77,283.05 " stroke="green" fill="none" marker-end="url(#sat-14)"/>
<polyline points="643.08,282.87 645.39,282.71 647.72,282.59 650.04,282.51 652.38,282.46 654.72,282.44 657.06,282.45 659.41,282.50 661.77,282.58 664.12,282.70 666.49,282.85 668.85,283.03 671.22,283.25 673.60,283.50 675.97,283.79 678.35,284.11 680.73,284.46 683.12,284.85 685.50,285.27 687.89,285.72 690.27,286.21 692.66,286.73 695.05,287.29 697.44,287.88 699.83,288.50 702.21,289.16 704.60,289.85 706.99,290.57 709.37,291.33 711.76,292.12 " stroke="green" fill="none" marker-end="url(#arrow-green)"/>
<polyline points="330.37,513.25 330.77,516.02 331.16,518.80 331.54,521.57 331.90,524.34 332.26,527.11 332.60,529.88 332.94,532.64 333.26,535.40 333.57,538.15 333.88,540.91 334.18,543.65 334.46,546.40 334.74,549.14 335.01,551.87 335.28,554.60 335.53,557.33 335.78,560.05 336.02,562.76 336.26,565.47 336.49,568.18 336.71,570.87 336.93,573.56 337.15,576.25 337.36,578.93 337.56,581.60 337.76,584.27 337.96,586.93 338.16,589.58 338.35,592.23 338.54,594.86 338.73,597.50 338.92,600.12 339.10,602.74 339.29,605.35 339.48,607.95 339.66,610.54 339.85,613.13 340.03,615.71 340.22,618.28 340.41,620.84 340.61,623.40 340.80,625.95 " stroke="green" fill="none" marker-end="url(#sat-15)"/>
<polyline points="341.00,628.49 341.20,631.02 341.41,633.54 341.62,636.05 341.84,638.56 342.06,641.06 342.28,643.55 342.52,646.03 342.76,648.50 343.00,650.96 343.26,653.42 343.52,655.86 343.79,658.30 344.07,660.73 344.36,663.15 344.66,665.56 344.97,667.96 345.30,670.35 345.63,672.73 345.97,675.11 346.33,677.47 346.70,679.83 347.09,682.17 347.49,684.51 347.90,686.84 348.33,689.16 348.77,691.46 349.23,693.76 349.71,696.05 350.20,698.33 350.72,700.60 351.25,702.86 351.80,705.10 352.36,707.34 352.95,709.57 353.56,711.79 354.19,713.99 354.84,716.19 355.52,718.38 356.22,720.55 356.94,722.71 357.68,724.86 358.45,727.00 " stroke="green" fill="none" marker-end="url(#arrow-green)"/>
<polyline points="646.64,323.95 644.95,321.33 643.25,318.71 641.56,316.09 639.87,313.47 638.18,310.86 636.49,308.24 634.79,305.63 633.10,303.02 631.42,300.41 629.73,297.80 628.05,295.19 626.37,292.59 624.69,289.98 623.01,287.38 621.34,284.78 619.68,282.18 618.01,279.59 616.36,276.99 614.70,274.40 613.06,271.81 611.41,269.22 609.78,266.63 608.15,264.05 606.53,261.47 604.91,258.89 603.30,256.31 601.70,253.74 600.11,251.17 598.53,248.60 596.95,246.03 595.39,243.47 593.83,240.91 592.28,238.35 590.75,235.80 589.22,233.25 587.71,230.70 586.20,228.15 584.71,225.61 583.23,223.08 581.76,220.54 580.30,218.01 578.86,215.49 577.42,212.96 576.00,210.45 574.60,207.93 " stroke="green" fill="none" marker-end="url(#sat-16)"/>
<polyline points="573.21,205.42 571.83,202.91 570.47,200.41 569.12,197.91 567.78,195.42 566.47,192.93 565.16,190.45 563.87,187.97 562.60,185.49 561.35,183.02 560.11,180.56 558.89,178.10 557.68,175.64 556.49,173.19 555.32,170.75 554.17,168.31 553.03,165.88 551.91,163.45 550.82,161.02 549.73,158.60 548.67,156.19 547.63,153.78 546.61,151.38 545.60,148.99 544.62,146.60 543.65,144.21 542.71,141.83 541.78,139.46 540.88,137.09 539.99,134.73 539.13,132.38 538.29,130.03 537.47,127.69 536.66,125.35 535.89,123.02 535.13,120.70 534.39,118.38 533.68,116.07 532.98,113.77 532.31,111.47 531.66,109.18 531.04,106.89 530.43,104.61 529.85,102.34 529.29,100.08 528.76,97.82 " stroke="green" fill="none" marker-end="url(#arrow-green)"/>
<polyline points="331.21,87.17 329.24,89.01 327.26,90.85 325.26,92.68 323.25,94.52 321.23,96.35 319.19,98.19 317.14,100.02 315.08,101.86 313.00,103.69 310.91,105.52 308.81,107.35 306.69,109.19 304.56,111.02 302.42,112.85 300.27,114.68 298.11,116.51 295.93,118.34 293.74,120.17 291.54,122.00 289.33,123.82 287.11,125.65 284.88,127.48 282.63,129.31 280.38,131.14 278.12,132.96 275.84,134.79 273.56,136.62 271.26,138.44 268.96,140.27 266.64,142.10 264.32,143.92 261.99,145.75 259.65,147.58 257.30,149.40 254.94,151.23 252.58,153.06 250.21,154.88 247.83,156.71 245.44,158.54 243.04,160.36 240.64,162.19 238.23,164.02 235.82,165.84 233.40,167.67 230.97,169.50 228.54,171.33 226.10,173.16 223.66,174.99 221.21,176.82 " stroke="green" fill="none" marker-end="url(#sat-18)"/>
<polyline points="218.76,178.65 216.30,180.48 213.84,182.31 211.37,184.15 208.91,185.98 206.43,187.82 203.96,189.65 201.48,191.49 199.00,193.33 196.51,195.17 194.03,197.01 191.54,198.85 189.05,200.69 186.55,202.54 184.06,204.39 181.57,206.24 179.07,208.09 176.57,209.94 174.08,211.79 171.58,213.65 169.09,215.51 166.59,217.37 164.09,219.24 161.60,221.10 159.10,222.98 156.61,224.85 154.12,226.73 151.63,228.61 149.14,230.49 146.66,232.38 144.18,234.27 141.69,236.17 139.22,238.07 136.74,239.97 134.27,241.88 131.80,243.80 129.34,245.72 126.88,247.64 124.42,249.57 121.97,251.51 119.52,253.45 117.08,255.40 114.64,257.36 112.21,259.32 109.79,261.29 107.37,263.27 104.95,265.25 102.54,267.25 100.14,269.25 97.75,271.26 95.36,273.28 " stroke="green" fill="none" marker-end="url(#arrow-green)"/>
<polyline points="353.32,725.36 353.94,723.22 354.54,721.06 355.12,718.90 355.68,716.72 356.23,714.54 356.76,712.34 357.27,710.12 357.77,707.90 358.25,705.66 358.72,703.42 359.17,701.16 359.61,698.89 360.04,696.61 360.46,694.32 360.87,692.02 361.26,689.71 361.65,687.39 362.02,685.06 362.39,682.72 362.75,680.37 363.10,678.01 363.44,675.64 363.78,673.26 364.11,670.88 364.44,668.48 364.75,666.07 365.07,663.66 365.38,661.24 365.69,658.80 365.99,656.36 366.29,653.92 366.59,651.46 366.89,649.00 367.18,646.52 367.48,644.04 367.77,641.56 368.07,639.06 368.36,636.56 368.66,634.05 368.96,631.53 369.26,629.01 369.56,626.48 369.87,623.94 370.18,621.40 370.49,618.85 370.80,616.29 371.13,613.73 371.45,611.16 371.78,608.59 372.12,606.01 372.47,603.43 372.82,600.84 373.17,598.25 373.54,595.65 373.91,593.04 374.29,590.44 374.68,587.83 375.08,585.21 375.49,582.59 375.90,579.97 376.33,577.34 376.77,574.72 377.22,572.08 377.68,569.45 378.15,566.81 378.63,564.18 379.12,561.54 379.63,558.89 380.15,556.25 " stroke="green" fill="none" marker-end="url(#sat-18)"/>
<polyline points="380.68,553.61 381.22,550.96 381.78,548.32 382.35,545.67 382.94,543.03 383.54,540.38 384.16,537.74 384.79,535.09 385.43,532.45 386.09,529.81 386.77,527.17 387.46,524.53 388.17,521.90 388.89,519.27 389.64,516.64 390.39,514.01 391.17,511.39 391.96,508.77 392.77,506.16 393.60,503.55 394.44,500.95 395.31,498.35 396.19,495.76 397.09,493.17 398.00,490.59 398.94,488.02 399.89,485.46 400.87,482.90 401.86,480.35 402.87,477.81 403.90,475.28 404.95,472.76 406.02,470.24 407.11,467.74 408.22,465.25 409.35,462.77 410.50,460.29 411.67,457.84 412.86,455.39 414.06,452.95 415.29,450.53 416.54,448.12 417.81,445.73 419.10,443.35 420.40,440.98 421.73,438.63 423.08,436.29 424.45,433.97 425.84,431.66 427.25,429.37 428.68,427.10 430.13,424.85 431.59,422.61 433.08,420.39 434.59,418.19 436.12,416.01 437.67,413.84 439.24,411.70 440.82,409.58 442.43,407.47 444.06,405.39 445.70,403.33 447.37,401.29 449.05,399.27 450.75,397.27 452.48,395.30 454.22,393.35 455.98,391.42 457.75,389.52 459.55,387.63 " stroke="green" fill="none" marker-end="url(#arrow-green)"/>
<polyline points="290.37,651.55 290.53,654.11 290.70,656.66 290.89,659.21 291.09,661.74 291.31,664.27 291.55,666.80 291.81,669.32 292.09,671.83 292.38,674.33 292.70,676.83 293.03,679.32 293.39,681.81 " stroke="green" fill="none" marker-end="url(#sat-20)"/>
<polyline points="293.77,684.28 294.17,686.76 294.59,689.22 295.04,691.67 295.51,694.12 296.00,696.56 296.52,699.00 297.07,701.42 297.64,703.84 298.24,706.25 298.87,708.66 299.52,711.05 300.21,713.44 " stroke="green" fill="none" marker-end="url(#arrow-green)"/>
<polyline points="707.50,464.23 706.33,461.54 705.15,458.86 703.95,456.18 702.74,453.51 701.51,450.85 700.26,448.20 699.01,445.55 697.74,442.90 696.46,440.26 695.16,437.63 693.85,435.00 692.53,432.38 691.21,429.76 689.86,427.14 688.51,424.53 687.15,421.93 685.78,419.33 684.40,416.73 683.01,414.13 681.61,411.54 680.21,408.95 678.79,406.37 677.37,403.78 675.94,401.20 674.51,398.63 673.07,396.05 671.62,393.48 670.16,390.91 668.70,388.34 667.24,385.77 665.77,383.21 664.30,380.65 662.82,378.09 661.33,375.53 659.85,372.97 658.36,370.41 656.87,367.86 655.37,365.30 653.88,362.75 652.38,360.20 650.88,357.65 649.38,355.10 647.87,352.55 646.37,350.00 644.87,347.45 643.36,344.91 641.86,342.36 640.36,339.82 638.86,337.27 637.36,334.73 635.86,332.19 634.36,329.65 632.87,327.11 631.37,324.56 629.89,322.02 628.40,319.49 626.92,316.95 625.44,314.41 623.96,311.87 622.49,309.34 621.03,306.80 619.57,304.27 618.11,301.73 616.66,299.20 615.22,296.67 613.78,294.14 612.35,291.61 610.92,289.08 609.51,286.56 608.10,284.03 606.70,281.51 605.30,278.98 " stroke="green" fill="none" marker-end="url(#sat-20)"/>
<polyline points="603.92,276.46 602.54,273.94 601.17,271.42 599.81,268.91 598.46,266.39 597.12,263.88 595.80,261.36 594.48,258.86 593.17,256.35 591.87,253.84 590.59,251.34 589.31,248.84 588.05,246.34 586.80,243.84 585.56,241.35 584.34,238.86 583.12,236.37 581.92,233.89 580.74,231.40 579.57,228.92 578.41,226.45 577.27,223.97 576.14,221.50 575.02,219.04 573.92,216.57 572.84,214.11 571.77,211.66 570.72,209.20 569.68,206.76 568.66,204.31 567.66,201.87 566.67,199.43 565.70,197.00 564.75,194.57 563.82,192.15 562.90,189.73 562.00,187.31 561.12,184.90 560.25,182.50 559.41,180.10 558.58,177.70 557.78,175.31 556.99,172.92 556.22,170.54 555.47,168.17 554.74,165.79 554.03,163.43 553.34,161.07 552.67,158.72 552.02,156.37 551.39,154.02 550.78,151.69 550.20,149.36 549.63,147.03 549.09,144.71 548.56,142.40 548.06,140.09 547.58,137.79 547.12,135.50 546.69,133.21 546.27,130.93 545.88,128.65 545.51,126.38 545.16,124.12 544.84,121.87 544.53,119.62 544.25,117.38 544.00,115.15 543.76,112.92 543.55,110.70 543.37,108.49 543.20,106.29 543.06,104.09 " stroke="green" fill="none" marker-end="url(#arrow-green)"/>
<polyline points="344.37,651.70 344.57,654.21 344.79,656.71 345.01,659.20 345.25,661.69 345.50,664.17 345.75,666.63 346.02,669.09 346.31,671.55 346.60,673.99 346.91,676.43 347.23,678.85 347.57,681.27 347.92,683.68 348.28,686.08 348.67,688.48 " stroke="green" fill="none" marker-end="url(#sat-21)"/>
<polyline points="349.07,690.86 349.48,693.23 349.92,695.60 350.37,697.96 350.85,700.30 351.34,702.64 351.85,704.97 352.38,707.29 352.94,709.60 353.52,711.90 354.12,714.19 354.74,716.46 355.39,718.73 356.06,720.99 356.76,723.24 357.48,725.47 " stroke="green" fill="none" marker-end="url(#arrow-green)"/>
<polyline points="729.34,408.86 727.80,406.26 726.24,403.67 724.67,401.09 723.08,398.52 721.48,395.96 719.86,393.41 718.23,390.86 716.59,388.33 714.94,385.80 713.28,383.28 711.60,380.77 709.91,378.27 708.21,375.77 706.51,373.28 704.79,370.79 703.06,368.32 701.32,365.84 699.57,363.38 697.82,360.92 696.05,358.46 694.28,356.01 692.50,353.57 690.71,351.13 688.92,348.69 687.12,346.26 685.31,343.83 683.50,341.41 681.67,338.99 679.85,336.57 678.02,334.16 676.18,331.75 674.34,329.35 672.49,326.94 670.64,324.54 668.79,322.15 666.93,319.75 665.07,317.36 663.21,314.97 661.34,312.58 659.47,310.20 657.60,307.82 655.73,305.43 653.86,303.05 651.98,300.68 650.11,298.30 648.23,295.93 646.35,293.55 644.47,291.18 642.60,288.81 640.72,286.45 638.85,284.08 636.97,281.71 635.10,279.35 633.23,276.98 631.36,274.62 629.49,272.26 627.63,269.90 625.77,267.54 623.91,265.18 622.05,262.83 620.20,260.47 618.36,258.12 616.51,255.76 614.68,253.41 612.84,251.06 611.02,248.71 609.20,246.36 " stroke="green" fill="none" marker-end="url(#sat-21)"/>
<polyline points="607.38,244.01 605.57,241.66 603.77,239.32 601.97,236.97 600.18,234.63 598.40,232.28 596.62,229.94 594.85,227.60 593.10,225.26 591.35,222.92 589.60,220.58 587.87,218.25 586.15,215.91 584.43,213.58 582.73,211.25 581.03,208.92 579.35,206.59 577.68,204.26 576.02,201.94 574.36,199.61 572.72,197.29 571.10,194.97 569.48,192.65 567.88,190.33 566.29,188.01 564.71,185.70 563.14,183.39 561.59,181.08 560.05,178.77 558.52,176.46 557.01,174.16 555.52,171.86 554.03,169.56 552.57,167.26 551.11,164.96 549.67,162.67 548.25,160.38 546.84,158.09 545.45,155.80 544.08,153.52 542.72,151.24 541.37,148.96 540.05,146.68 538.74,144.41 537.44,142.13 536.17,139.87 534.91,137.60 533.67,135.34 532.44,133.07 531.24,130.82 530.05,128.56 528.88,126.31 527.73,124.06 526.60,121.81 525.48,119.57 524.39,117.33 523.31,115.09 522.26,112.86 521.22,110.62 520.20,108.40 519.20,106.17 518.22,103.95 517.26,101.73 516.32,99.51 515.40,97.30 514.50,95.09 513.62,92.89 512.76,90.68 " stroke="green" fill="none" marker-end="url(#arrow-green)"/>
<polyline points="700.20,309.68 702.50,310.64 704.79,311.64 707.08,312.66 " stroke="green" fill="none" marker-end="url(#sat-22)"/>
<polyline points="709.37,313.72 711.65,314.81 713.93,315.93 716.20,317.08 718.46,318.27 " stroke="green" fill="none" marker-end="url(#arrow-green)"/>
<polyline points="440.67,488.38 442.02,490.73 443.34,493.08 444.65,495.45 445.93,497.83 447.20,500.21 448.45,502.60 449.67,505.00 450.88,507.41 452.07,509.82 453.24,512.24 454.39,514.67 455.52,517.10 456.63,519.54 457.72,521.98 458.80,524.42 459.85,526.87 460.89,529.33 461.91,531.79 462.92,534.25 463.90,536.71 464.87,539.18 465.82,541.65 466.76,544.12 467.67,546.59 468.58,549.06 469.46,551.54 470.33,554.01 471.18,556.49 472.02,558.97 472.85,561.44 473.65,563.92 474.45,566.39 475.23,568.87 476.00,571.34 476.75,573.81 477.49,576.28 478.21,578.75 478.93,581.21 479.63,583.67 480.32,586.13 480.99,588.59 481.66,591.04 482.32,593.49 482.96,595.94 483.59,598.38 484.22,600.82 " stroke="green" fill="none" marker-end="url(#sat-24)"/>
<polyline points="484.83,603.25 485.44,605.68 486.03,608.11 486.62,610.52 487.20,612.94 487.77,615.35 488.34,617.75 488.89,620.15 489.44,622.54 489.99,624.92 490.53,627.30 491.06,629.67 491.59,632.04 492.11,634.39 492.63,636.74 493.15,639.09 493.66,641.42 494.17,643.75 494.68,646.07 495.18,648.38 495.68,650.69 496.19,652.98 496.69,655.27 497.19,657.55 497.69,659.82 498.19,662.08 498.70,664.33 499.20,666.57 499.71,668.80 500.22,671.02 500.73,673.23 501.25,675.43 501.77,677.62 502.29,679.81 502.82,681.98 503.36,684.13 503.90,686.28 504.45,688.42 505.00,690.54 505.57,692.66 506.14,694.76 506.72,696.85 507.31,698.93 507.90,700.99 508.51,703.05 509.13,705.09 509.77,707.11 510.41,709.13 " stroke="green" fill="none" marker-end="url(#arrow-green)"/>
<polyline points="" stroke="green" fill="none" marker-end="url(#sat-24)"/>
<polyline points="" stroke="green" fill="none" marker-end="url(#arrow-green)"/>
<polyline points="401.12,396.18 403.64,397.04 406.15,397.94 408.65,398.86 411.14,399.82 413.61,400.81 416.08,401.83 418.53,402.88 420.98,403.97 423.41,405.08 425.82,406.22 428.22,407.40 430.61,408.60 432.99,409.83 435.35,411.09 437.69,412.38 440.03,413.70 442.34,415.05 444.64,416.42 446.92,417.82 449.19,419.25 451.44,420.71 453.68,422.19 455.90,423.70 458.10,425.24 460.28,426.80 462.45,428.38 464.60,429.99 466.73,431.63 468.84,433.29 470.93,434.97 473.01,436.68 475.06,438.41 477.10,440.16 479.11,441.93 481.11,443.73 483.09,445.54 485.05,447.38 486.99,449.24 488.91,451.12 490.81,453.02 492.69,454.94 494.54,456.88 496.38,458.83 498.20,460.81 500.00,462.80 501.77,464.81 503.53,466.84 505.27,468.89 506.98,470.95 508.67,473.02 510.35,475.12 512.00,477.23 513.63,479.35 515.24,481.49 516.83,483.64 518.40,485.80 519.95,487.98 521.48,490.17 522.98,492.37 524.47,494.59 525.93,496.82 527.38,499.05 528.81,501.30 530.21,503.56 531.59,505.83 532.96,508.11 " stroke="green" fill="none" marker-end="url(#sat-25)"/>
<polyline points="534.30,510.40 535.63,512.70 536.93,515.01 538.22,517.32 539.48,519.64 540.73,521.98 541.95,524.31 543.16,526.66 544.35,529.01 545.52,531.37 546.67,533.73 547.80,536.10 548.92,538.47 550.01,540.85 551.09,543.23 552.15,545.62 553.20,548.01 554.22,550.40 555.23,552.80 556.23,555.19 557.20,557.60 558.17,560.00 559.11,562.40 560.04,564.81 560.95,567.22 561.85,569.63 562.74,572.03 563.60,574.44 564.46,576.85 565.30,579.26 566.13,581.67 566.94,584.08 567.74,586.48 568.53,588.88 569.31,591.29 570.07,593.68 570.83,596.08 571.57,598.48 572.30,600.87 573.02,603.25 573.73,605.64 574.42,608.02 575.11,610.39 575.80,612.77 576.47,615.13 577.13,617.50 577.79,619.85 578.43,622.20 579.07,624.55 579.71,626.89 580.34,629.22 580.96,631.55 581.57,633.87 582.19,636.18 582.79,638.49 583.39,640.78 583.99,643.07 584.59,645.35 585.18,647.63 585.77,649.89 586.36,652.15 586.95,654.39 587.53,656.63 588.12,658.86 588.70,661.08 589.29,663.28 589.87,665.48 590.46,667.67 " stroke="green" fill="none" marker-end="url(#arrow-green)"/>
<polyline points="570.29,178.22 568.63,175.92 566.98,173.62 565.35,171.32 563.72,169.03 562.11,166.73 560.52,164.45 558.93,162.16 557.36,159.88 555.80,157.60 554.26,155.33 552.73,153.05 551.22,150.79 549.72,148.52 548.23,146.26 546.76,144.00 545.30,141.75 543.86,139.49 542.44,137.25 " stroke="green" fill="none" marker-end="url(#sat-26)"/>
<polyline points="541.03,135.00 539.64,132.76 538.26,130.52 536.90,128.29 535.55,126.06 534.23,123.83 532.92,121.61 531.62,119.39 530.34,117.17 529.08,114.96 527.84,112.75 526.62,110.54 525.41,108.34 524.22,106.14 523.05,103.95 521.89,101.76 520.76,99.57 519.64,97.38 518.54,95.20 517.46,93.03 " stroke="green" fill="none" marker-end="url(#arrow-green)"/>
<polyline points="88.60,296.68 90.98,295.93 93.37,295.22 95.75,294.54 98.13,293.89 100.52,293.27 102.91,292.69 105.30,292.15 107.69,291.63 110.08,291.15 112.47,290.70 114.85,290.29 117.24,289.91 119.63,289.57 122.01,289.25 124.40,288.97 126.78,288.73 129.16,288.52 131.53,288.34 133.90,288.20 136.28,288.09 138.64,288.01 141.00,287.97 143.36,287.96 145.72,287.99 148.07,288.05 150.41,288.14 152.75,288.26 155.09,288.42 157.41,288.62 159.74,288.85 162.05,289.11 164.36,289.40 166.66,289.73 168.96,290.09 171.24,290.48 " stroke="green" fill="none" marker-end="url(#sat-26)"/>
<polyline points="173.52,290.91 175.80,291.37 178.06,291.86 180.32,292.39 182.56,292.95 184.80,293.54 187.03,294.17 189.24,294.82 191.45,295.51 193.65,296.23 195.84,296.99 198.02,297.77 200.18,298.59 202.34,299.44 204.49,300.32 206.62,301.23 208.74,302.18 210.85,303.15 212.95,304.16 215.03,305.20 217.11,306.26 219.17,307.36 221.21,308.49 223.25,309.65 225.27,310.84 227.27,312.05 229.26,313.30 231.24,314.58 233.21,315.89 235.16,317.22 237.09,318.59 239.01,319.98 240.92,321.40 242.81,322.85 244.69,324.33 246.55,325.83 246.71,325.96 " stroke="green" fill="none" marker-end="url(#arrow-green)"/>
<polyline points="246.71,325.96 248.55,327.50 250.38,329.06 252.19,330.65 253.99,332.26 255.77,333.90 257.53,335.57 259.28,337.26 261.01,338.98 262.72,340.73 264.42,342.50 266.10,344.29 267.76,346.11 269.40,347.95 271.03,349.81 272.64,351.70 274.23,353.61 275.81,355.55 277.36,357.51 278.90,359.49 280.43,361.49 281.93,363.51 283.41,365.56 284.88,367.62 286.33,369.71 287.76,371.81 289.18,373.94 290.57,376.09 291.95,378.25 293.30,380.44 294.64,382.64 295.97,384.86 297.27,387.10 298.55,389.35 299.82,391.62 301.07,393.91 302.29,396.22 303.50,398.54 304.70,400.88 305.87,403.23 307.02,405.60 " stroke="green" fill="none" marker-end="url(#sat-26)"/>
<polyline points="308.16,407.98 309.28,410.38 310.38,412.79 311.46,415.21 312.52,417.65 313.57,420.10 314.60,422.56 315.61,425.03 316.60,427.52 317.57,430.01 318.53,432.52 319.46,435.03 320.38,437.56 321.29,440.10 322.17,442.64 323.04,445.20 323.89,447.76 324.72,450.33 325.54,452.91 326.34,455.50 327.12,458.09 327.89,460.69 328.64,463.30 329.37,465.91 330.09,468.53 330.79,471.15 331.48,473.78 332.15,476.41 332.81,479.05 333.45,481.69 334.07,484.34 334.68,486.99 335.28,489.64 335.86,492.29 336.43,494.95 336.98,497.61 337.52,500.27 338.05,502.93 338.56,505.59 339.06,508.26 339.11,508.49 " stroke="green" fill="none" marker-end="url(#arrow-green)"/>
<polyline points="253.68,323.83 254.45,326.24 255.20,328.66 255.93,331.10 256.64,333.55 257.33,336.02 258.00,338.51 258.65,341.01 259.28,343.52 259.90,346.05 260.49,348.59 261.06,351.15 261.62,353.71 262.15,356.29 262.67,358.89 263.17,361.49 263.65,364.11 264.11,366.74 264.55,369.37 264.97,372.02 265.38,374.68 265.77,377.35 266.14,380.03 266.50,382.72 266.83,385.42 267.15,388.13 267.46,390.85 267.74,393.57 268.01,396.30 268.27,399.04 268.51,401.79 268.73,404.54 268.93,407.30 269.13,410.07 269.30,412.84 269.46,415.62 269.61,418.40 269.74,421.19 269.86,423.99 269.96,426.78 270.06,429.59 270.13,432.39 270.20,435.20 270.25,438.01 270.29,440.83 270.31,443.65 270.33,446.47 270.33,449.29 270.32,452.12 270.30,454.94 270.26,457.77 270.22,460.60 270.17,463.43 270.10,466.26 270.03,469.09 269.95,471.92 269.86,474.75 269.76,477.58 269.65,480.41 269.53,483.24 269.40,486.07 269.27,488.90 269.13,491.72 268.98,494.54 268.83,497.37 268.66,500.19 268.50,503.00 268.32,505.82 268.15,508.63 267.96,511.44 267.78,514.25 " stroke="green" fill="none" marker-end="url(#sat-28)"/>
<polyline points="267.58,517.05 267.39,519.85 267.19,522.65 266.98,525.45 266.78,528.24 266.57,531.03 266.36,533.81 266.15,536.59 265.93,539.36 265.72,542.14 265.50,544.90 265.29,547.67 265.07,550.43 264.86,553.18 264.64,555.93 264.43,558.68 264.22,561.42 264.01,564.15 263.81,566.88 263.60,569.61 263.40,572.33 263.21,575.05 263.01,577.76 262.83,580.47 262.64,583.17 262.47,585.86 262.30,588.56 262.13,591.24 261.97,593.92 261.82,596.60 261.68,599.27 261.54,601.94 261.42,604.60 261.30,607.25 261.19,609.91 261.09,612.55 261.01,615.19 260.93,617.83 260.87,620.46 260.81,623.08 260.77,625.70 260.74,628.31 260.73,630.92 260.73,633.53 260.74,636.13 260.77,638.72 260.82,641.31 260.88,643.89 260.95,646.47 261.05,649.05 261.16,651.61 261.29,654.18 261.44,656.73 261.61,659.29 261.79,661.83 262.00,664.38 262.23,666.91 262.48,669.44 262.75,671.97 263.05,674.49 263.37,677.01 263.71,679.52 264.08,682.02 264.47,684.52 264.89,687.01 265.33,689.50 265.80,691.98 266.30,694.45 266.83,696.92 267.39,699.39 267.97,701.84 " stroke="green" fill="none" marker-end="url(#arrow-green)"/>
<polyline points="303.77,516.11 304.94,513.68 306.12,511.26 307.33,508.84 308.55,506.44 309.79,504.04 311.06,501.65 312.34,499.28 313.64,496.91 314.96,494.55 316.31,492.21 317.67,489.87 319.05,487.55 320.45,485.24 321.88,482.94 323.32,480.65 324.79,478.38 326.27,476.12 327.78,473.88 329.30,471.65 330.85,469.43 332.42,467.23 334.00,465.04 335.61,462.87 337.24,460.72 338.89,458.58 340.56,456.46 342.24,454.36 343.95,452.28 345.68,450.21 347.43,448.17 349.20,446.14 350.99,444.13 352.80,442.14 354.63,440.17 356.47,438.23 358.34,436.30 360.23,434.40 362.13,432.51 364.06,430.65 366.00,428.81 367.96,427.00 369.94,425.21 371.94,423.44 373.95,421.69 375.99,419.97 378.04,418.28 380.11,416.61 382.19,414.97 384.30,413.35 386.42,411.75 388.55,410.19 390.70,408.65 392.87,407.14 395.05,405.65 397.25,404.20 399.47,402.77 401.70,401.37 403.94,399.99 406.20,398.65 408.47,397.34 410.76,396.05 413.06,394.80 415.37,393.57 417.70,392.38 420.03,391.22 422.38,390.08 424.75,388.98 427.12,387.91 429.50,386.87 431.90,385.87 434.31,384.89 436.72,383.95 439.15,383.04 441.58,382.16 444.03,381.31 446.48,380.50 448.94,379.72 451.41,378.98 453.89,378.26 " stroke="green" fill="none" marker-end="url(#sat-29)"/>
<polyline points="456.37,377.58 458.87,376.94 461.36,376.33 463.87,375.75 466.38,375.20 468.89,374.69 471.41,374.22 473.94,373.78 476.47,373.37 479.00,373.00 481.54,372.66 484.08,372.36 486.62,372.09 489.17,371.86 491.71,371.66 494.26,371.49 496.81,371.36 499.36,371.27 501.91,371.21 504.46,371.19 507.01,371.20 509.56,371.24 512.11,371.32 514.66,371.44 517.21,371.59 519.75,371.77 522.29,371.99 524.83,372.24 527.36,372.53 529.89,372.85 532.42,373.21 534.94,373.60 537.46,374.02 539.97,374.48 542.47,374.98 544.97,375.50 547.47,376.06 549.96,376.66 552.44,377.29 554.91,377.95 557.37,378.64 559.83,379.37 562.28,380.13 564.72,380.92 567.15,381.75 569.57,382.60 571.99,383.49 574.39,384.41 576.78,385.37 579.16,386.35 581.54,387.37 583.90,388.41 586.24,389.49 588.58,390.60 590.91,391.74 593.22,392.91 595.52,394.11 597.81,395.33 600.08,396.59 602.34,397.88 604.59,399.19 606.82,400.54 609.04,401.91 611.25,403.31 613.44,404.74 615.61,406.19 617.77,407.68 619.92,409.18 622.05,410.72 624.16,412.28 626.26,413.87 628.35,415.48 630.41,417.12 632.46,418.79 634.50,420.48 636.51,422.19 638.51,423.93 640.50,425.69 642.46,427.47 644.41,429.28 646.34,431.11 " stroke="green" fill="none" marker-end="url(#arrow-green)"/>
<polyline points="211.63,222.00 212.75,223.98 213.84,225.98 214.91,228.01 215.96,230.05 216.99,232.11 217.99,234.20 218.97,236.30 219.93,238.42 220.86,240.57 221.77,242.73 222.67,244.91 223.53,247.11 224.38,249.33 225.20,251.56 226.00,253.82 226.78,256.09 227.54,258.38 228.27,260.68 228.98,263.01 229.67,265.35 230.34,267.70 230.99,270.07 231.62,272.46 232.22,274.87 232.80,277.29 233.36,279.72 233.90,282.17 234.42,284.63 234.92,287.11 235.40,289.60 235.85,292.11 236.29,294.63 236.71,297.16 237.10,299.71 237.48,302.27 237.83,304.84 238.17,307.42 238.49,310.02 238.78,312.62 239.06,315.24 239.32,317.87 239.56,320.51 239.78,323.16 239.98,325.81 240.16,328.48 240.33,331.16 240.48,333.85 240.61,336.55 240.72,339.25 240.81,341.96 240.89,344.69 240.95,347.42 241.00,350.15 241.02,352.90 241.04,355.65 241.03,358.40 241.01,361.17 240.97,363.94 240.92,366.71 240.86,369.49 240.77,372.28 240.68,375.07 240.57,377.86 240.44,380.66 240.31,383.46 240.15,386.27 239.99,389.08 239.81,391.89 239.62,394.71 239.42,397.53 239.20,400.35 238.97,403.17 238.73,406.00 238.48,408.82 238.22,411.65 237.95,414.48 237.66,417.31 237.37,420.14 237.07,422.97 " stroke="green" fill="none" marker-end="url(#sat-31)"/>
<polyline points="236.75,425.81 236.43,428.64 236.10,431.47 235.76,434.30 235.41,437.13 235.05,439.96 234.69,442.79 234.32,445.61 233.94,448.44 233.55,451.26 233.16,454.09 232.76,456.91 232.35,459.73 231.94,462.54 231.53,465.36 231.10,468.17 230.68,470.98 230.25,473.78 229.81,476.58 229.38,479.38 228.94,482.18 228.49,484.97 228.05,487.76 227.60,490.55 227.15,493.33 226.69,496.11 226.24,498.89 225.79,501.66 225.33,504.43 224.88,507.19 224.42,509.95 223.97,512.71 223.51,515.46 223.06,518.21 222.61,520.95 222.16,523.69 221.71,526.43 221.27,529.16 220.83,531.89 220.39,534.61 219.96,537.33 219.53,540.04 219.11,542.75 218.69,545.46 218.27,548.16 217.87,550.86 217.46,553.55 217.07,556.24 216.68,558.93 216.30,561.61 215.92,564.28 215.56,566.96 215.20,569.63 214.86,572.29 214.52,574.95 214.19,577.61 213.87,580.26 213.57,582.91 213.27,585.56 212.99,588.20 212.71,590.84 212.45,593.48 212.21,596.11 211.98,598.74 211.76,601.36 211.55,603.98 211.36,606.60 211.19,609.22 211.03,611.83 210.89,614.44 210.76,617.05 210.65,619.65 210.56,622.25 210.49,624.85 210.44,627.44 210.41,630.03 210.39,632.62 210.40,635.21 210.43,637.79 210.48,640.37 210.55,642.95 " stroke="green" fill="none" marker-end="url(#arrow-green)"/>
<polyline points="225.14,269.45 224.62,272.02 224.09,274.60 223.55,277.18 222.98,279.77 222.40,282.37 221.81,284.98 221.19,287.59 220.57,290.20 219.92,292.83 219.26,295.46 218.59,298.09 217.90,300.73 217.20,303.37 216.48,306.02 215.75,308.67 215.01,311.33 214.25,313.99 213.48,316.66 212.70,319.33 211.90,322.01 211.09,324.69 210.28,327.37 209.44,330.06 208.60,332.75 207.75,335.44 206.89,338.14 206.01,340.84 205.13,343.54 204.24,346.24 203.34,348.95 202.43,351.66 201.51,354.37 200.58,357.09 199.64,359.81 198.70,362.52 197.75,365.24 196.79,367.97 195.82,370.69 194.85,373.42 193.88,376.14 192.89,378.87 191.90,381.60 190.91,384.33 189.91,387.06 188.91,389.80 187.90,392.53 186.89,395.26 185.88,398.00 184.86,400.73 183.85,403.47 182.82,406.21 181.80,408.94 180.78,411.68 179.75,414.42 178.72,417.16 177.70,419.89 176.67,422.63 175.64,425.37 " stroke="green" fill="none" marker-end="url(#sat-32)"/>
<polyline points="174.62,428.11 173.59,430.85 172.57,433.59 171.55,436.33 170.52,439.07 169.51,441.81 168.49,444.55 167.48,447.29 166.47,450.03 165.47,452.77 164.47,455.51 163.47,458.25 162.48,461.00 161.50,463.74 160.52,466.48 159.54,469.22 158.58,471.97 157.62,474.71 156.67,477.46 155.72,480.20 154.79,482.95 153.86,485.70 152.94,488.45 152.03,491.20 151.14,493.95 150.25,496.70 149.37,499.45 148.50,502.21 147.65,504.97 146.81,507.73 145.98,510.49 145.16,513.25 144.36,516.01 143.57,518.78 142.79,521.55 142.03,524.32 141.29,527.09 140.56,529.87 139.85,532.65 139.15,535.43 138.47,538.22 137.81,541.01 137.17,543.80 136.55,546.59 135.95,549.39 135.36,552.20 134.80,555.00 134.26,557.81 133.74,560.63 133.24,563.45 132.76,566.27 132.31,569.10 131.88,571.93 131.48,574.77 131.10,577.61 130.75,580.46 130.42,583.31 130.12,586.17 129.85,589.03 " stroke="green" fill="none" marker-end="url(#arrow-green)"/>
<polyline points="" stroke="green" fill="none" marker-end="url(#sat-32)"/>
<polyline points="" stroke="green" fill="none" marker-end="url(#arrow-green)"/>
</svg>
