<svg xmlns="http://www.w3.org/2000/svg" width="600" height="600">
<style>text { font-family: 'Segoe UI',Arial, sans-serif; fill: #222222; }</style>
<rect width="100%" height="100%" fill="white"/>
<text x="300.0" y="30" text-anchor="middle" font-size="20">Sky Plot of filtered GPS Satellite Trajectories from the rinex.nav</text>
<rect x="1" y="1" width="598" height="598" fill="none" stroke="gray" stroke-width="2" />
<defs>
<marker id="arrow-green" markerWidth="10" markerHeight="10" refX="10" refY="5" orient="auto" markerUnits="strokeWidth">
<path d="M0,0 L10,5 L0,10 Z" fill="green" />
</marker>
<marker id="arrow-yellow" markerWidth="10" markerHeight="10" refX="10" refY="5" orient="auto" markerUnits="strokeWidth">
<path d="M0,0 L10,5 L0,10 Z" fill="yellow" />
</marker>
<marker id="arrow-orange" markerWidth="10" markerHeight="10" refX="10" refY="5" orient="auto" markerUnits="strokeWidth">
<path d="M0,0 L10,5 L0,10 Z" fill="orange" />
</marker>
<marker id="arrow-red" markerWidth="10" markerHeight="10" refX="10" refY="5" orient="auto" markerUnits="strokeWidth">
<path d="M0,0 L10,5 L0,10 Z" fill="red" />
</marker>
</defs>
<defs>
<marker id="sat-1" markerWidth="30" markerHeight="30" refX="23" refY="15" orient="auto" markerUnits="userSpaceOnUse">
  <circle cx="15" cy="15" r="10" fill="white" stroke="black" />
  <text x="15" y="20" font-size="14" text-anchor="middle">1</text>
</marker>
<marker id="sat-4" markerWidth="30" markerHeight="30" refX="23" refY="15" orient="auto" markerUnits="userSpaceOnUse">
  <circle cx="15" cy="15" r="10" fill="white" stroke="black" />
  <text x="15" y="20" font-size="14" text-anchor="middle">4</text>
</marker>
<marker id="sat-5" markerWidth="30" markerHeight="30" refX="23" refY="15" orient="auto" markerUnits="userSpaceOnUse">
  <circle cx="15" cy="15" r="10" fill="white" stroke="black" />
  <text x="15" y="20" font-size="14" text-anchor="middle">5</text>
</marker>
</defs>
<circle cx="300.0" cy="330.0" r="240.0" stroke="#cccccc" fill="none" />
<circle cx="300.0" cy="330.0" r="226.7" stroke="#cccccc" fill="none" />
<circle cx="300.0" cy="330.0" r="213.3" stroke="#cccccc" fill="none" />
<circle cx="300.0" cy="330.0" r="200.0" stroke="#cccccc" fill="none" />
<circle cx="300.0" cy="330.0" r="160.0" stroke="#cccccc" fill="none" />
<circle cx="300.0" cy="330.0" r="80.0" stroke="#cccccc" fill="none" />
<line x1="60.0" y1="330.0" x2="540.0" y2="330.0" stroke="#cccccc" />
<line x1="300.0" y1="90.0" x2="300.0" y2="570.0" stroke="#cccccc" />
<text x="300.0" y="80.0" font-size="16" text-anchor="middle">N</text>
<text x="560.0" y="330.0" font-size="16" text-anchor="middle">E</text>
<text x="300.0" y="590.0" font-size="16" text-anchor="middle">S</text>
<text x="40.0" y="330.0" font-size="16" text-anchor="middle">W</text>
<text x="302.0" y="145.0" font-size="14" fill="#666666">15°</text>
<text x="302.0" y="185.0" font-size="14" fill="#666666">30°</text>
<text x="302.0" y="265.0" font-size="14" fill="#666666">60°</text>
<rect x="20" y="50" width="20" height="10" fill="green" /><text x="50" y="60" font-size="14" fill="black">fitInterval = 4 h</text>
<rect x="20" y="75" width="20" height="10" fill="yellow" /><text x="50" y="85" font-size="14" fill="black">fitInterval = 6 h</text>
<rect x="20" y="100" width="20" height="10" fill="orange" /><text x="50" y="110" font-size="14" fill="black">fitInterval = 8 h</text>
<rect x="20" y="125" width="20" height="10" fill="red" /><text x="50" y="135" font-size="14" fill="black">fitInterval ≥ 10 h</text>
<polyline points="456.15,163.39 454.15,162.34 452.14,161.30 450.14,160.26 448.13,159.22 446.13,158.19 444.12,157.15 442.11,156.12 440.10,155.09 438.10,154.06 436.09,153.03 434.08,152.00 432.08,150.97 430.07,149.94 428.07,148.91 426.06,147.89 424.06,146.86 422.06,145.83 420.06,144.81 418.06,143.78 416.06,142.76 414.07,141.73 412.07,140.71 410.08,139.69 408.09,138.66 406.10,137.64 404.12,136.61 402.13,135.59 400.15,134.57 398.18,133.54 396.20,132.52 394.23,131.49 392.26,130.47 390.30,129.44 388.33,128.42 " stroke="green" fill="none" marker-end="url(#sat-1)"/>
<polyline points="386.38,127.39 384.42,126.36 382.47,125.34 380.52,124.31 378.58,123.28 376.64,122.25 374.71,121.22 372.78,120.19 370.85,119.16 368.93,118.13 367.02,117.10 365.11,116.07 363.20,115.04 361.30,114.00 359.40,112.97 357.51,111.94 355.63,110.90 353.75,109.86 351.88,108.83 350.01,107.79 348.15,106.75 346.29,105.71 344.44,104.67 342.60,103.63 340.76,102.59 338.93,101.54 337.10,100.50 335.29,99.46 333.48,98.41 331.67,97.36 329.87,96.32 328.08,95.27 326.30,94.22 324.52,93.17 322.75,92.12 320.98,91.07 " stroke="green" fill="none" marker-end="url(#arrow-green)"/>
<polyline points="275.52,91.39 273.87,92.53 272.21,93.67 270.54,94.81 268.86,95.95 267.17,97.08 265.48,98.22 263.78,99.35 262.07,100.48 260.35,101.62 258.62,102.75 256.89,103.88 255.15,105.01 253.40,106.14 251.64,107.26 249.88,108.39 248.11,109.52 246.33,110.64 244.55,111.77 242.76,112.89 240.96,114.01 239.16,115.14 237.35,116.26 235.53,117.38 233.70,118.50 231.87,119.62 230.04,120.74 228.20,121.86 226.35,122.97 224.49,124.09 222.64,125.21 220.77,126.32 218.90,127.44 217.02,128.55 215.14,129.67 213.26,130.78 211.37,131.89 209.47,133.01 207.57,134.12 205.67,135.23 203.76,136.34 201.85,137.45 199.94,138.57 198.02,139.68 196.09,140.79 194.17,141.90 " stroke="green" fill="none" marker-end="url(#sat-4)"/>
<polyline points="192.24,143.01 190.30,144.12 188.37,145.23 186.43,146.34 184.48,147.45 182.54,148.56 180.59,149.67 178.64,150.79 176.69,151.90 174.74,153.01 172.78,154.12 170.82,155.24 168.86,156.35 166.90,157.46 164.94,158.58 162.98,159.69 161.02,160.81 159.05,161.93 157.09,163.05 155.12,164.16 153.15,165.28 151.19,166.41 149.22,167.53 147.25,168.65 145.29,169.78 143.32,170.91 141.36,172.04 139.39,173.17 137.42,174.30 135.46,175.44 133.50,176.57 131.54,177.71 129.58,178.86 127.62,180.00 125.66,181.15 123.70,182.30 121.75,183.45 119.79,184.61 117.84,185.77 115.89,186.93 113.95,188.10 112.00,189.27 110.06,190.45 108.12,191.63 106.18,192.81 104.25,194.00 102.32,195.20 " stroke="green" fill="none" marker-end="url(#arrow-green)"/>
<polyline points="199.56,428.07 199.35,430.11 199.15,432.14 198.94,434.17 198.73,436.20 198.52,438.22 198.31,440.24 198.11,442.25 197.90,444.26 197.70,446.27 197.49,448.27 197.29,450.27 197.09,452.26 196.90,454.25 196.71,456.24 196.52,458.22 196.33,460.20 196.15,462.18 195.97,464.15 195.79,466.11 195.62,468.08 195.46,470.03 195.30,471.99 195.15,473.94 195.00,475.89 194.86,477.83 194.72,479.77 194.60,481.70 194.48,483.63 194.36,485.56 194.26,487.48 " stroke="green" fill="none" marker-end="url(#sat-5)"/>
<polyline points="194.16,489.40 194.08,491.31 194.00,493.22 193.93,495.13 193.87,497.03 193.83,498.93 193.79,500.83 193.76,502.72 193.75,504.61 193.74,506.49 193.75,508.37 193.78,510.25 193.81,512.12 193.86,513.99 193.92,515.85 194.00,517.72 194.09,519.57 194.19,521.43 194.31,523.28 194.45,525.13 194.60,526.97 194.77,528.81 194.96,530.64 195.16,532.48 195.39,534.30 195.63,536.13 195.89,537.95 196.17,539.76 196.46,541.58 196.78,543.39 197.12,545.19 197.49,546.99 " stroke="green" fill="none" marker-end="url(#arrow-green)"/>
<polyline points="514.95,434.55 514.47,432.49 513.98,430.44 513.47,428.40 512.94,426.36 512.40,424.32 511.84,422.29 511.27,420.26 510.68,418.24 510.08,416.22 509.46,414.20 508.83,412.19 508.18,410.18 507.53,408.17 506.86,406.16 506.17,404.16 505.48,402.16 504.77,400.16 504.06,398.17 503.33,396.18 502.59,394.19 501.84,392.20 501.08,390.21 500.31,388.23 499.53,386.25 498.75,384.27 497.95,382.29 497.15,380.31 496.33,378.33 495.51,376.35 494.68,374.38 493.85,372.40 493.00,370.43 492.15,368.46 491.30,366.48 490.43,364.51 489.56,362.54 488.69,360.57 487.81,358.60 486.92,356.63 486.03,354.66 485.14,352.69 484.24,350.72 483.33,348.74 482.43,346.77 481.51,344.80 480.60,342.83 479.68,340.86 478.76,338.89 477.84,336.91 476.91,334.94 475.99,332.97 475.06,330.99 474.12,329.02 473.19,327.05 472.26,325.07 471.32,323.09 470.39,321.12 469.45,319.14 468.52,317.17 467.58,315.19 466.65,313.21 465.72,311.23 464.78,309.25 463.85,307.28 462.92,305.30 461.99,303.32 461.06,301.34 " stroke="green" fill="none" marker-end="url(#sat-5)"/>
<polyline points="460.14,299.36 459.22,297.38 458.30,295.40 457.38,293.42 456.47,291.44 455.56,289.46 454.65,287.48 453.75,285.50 452.85,283.52 451.96,281.54 451.07,279.56 450.18,277.59 449.30,275.61 448.43,273.63 447.56,271.66 446.70,269.68 445.84,267.71 444.99,265.74 444.15,263.77 443.31,261.80 442.48,259.83 441.66,257.86 440.84,255.89 440.04,253.93 439.24,251.97 438.45,250.01 437.67,248.05 436.89,246.09 436.13,244.14 435.37,242.19 434.63,240.24 433.89,238.29 433.16,236.35 432.45,234.40 431.74,232.47 431.04,230.53 430.36,228.60 429.68,226.67 429.02,224.74 428.37,222.82 427.73,220.90 427.10,218.98 426.48,217.07 425.88,215.16 425.28,213.26 424.70,211.36 424.14,209.46 423.58,207.57 423.04,205.69 422.51,203.80 422.00,201.92 421.50,200.05 421.01,198.18 420.54,196.32 420.08,194.46 419.64,192.61 419.21,190.76 418.79,188.92 418.39,187.08 418.00,185.25 417.63,183.42 417.28,181.60 416.94,179.79 416.62,177.98 416.31,176.18 416.01,174.38 415.74,172.59 415.48,170.81 415.23,169.03 " stroke="green" fill="none" marker-end="url(#arrow-green)"/>
</svg>
